{
.appVersion = "3109";
copyright = "Copyright 2022 The Noto Project Authors (https://github.com/notofonts/dives-akuru)";
customParameters = (
{
name = glyphOrder;
value = (
.notdef,
NULL,
CR,
space,
u11900,
u11901,
u11902,
u11903,
u11904,
u11905,
u11906,
u11909,
u1190C,
u1190D,
u1190E,
u1190F,
u11910,
u11911,
u11912,
u11913,
u11915,
u11916,
u11918,
u11919,
u1191A,
u1191B,
u1191C,
u1191D,
u1191E,
u1191F,
u11920,
u11921,
u11922,
u11923,
u11924,
u11925,
u11940,
u11926,
u11927,
u11942,
u11928,
u11929,
u1192A,
u1192B,
u1192C,
u1192D,
u1192E,
u1192F,
"ka_tha-divesakuru",
"ka_ra_vowelI-divesakuru",
"ka_ssa-divesakuru",
"ka_medra-divesakuru",
"ka_vowelU-divesakuru",
"ka_vowelUU-divesakuru",
"nga_ga-divesakuru",
"tta_tta-divesakuru",
"tta_va-divesakuru",
"nna_dda-divesakuru",
"ta_tha-divesakuru",
"ta_medya-divesakuru",
"da_medya-divesakuru",
"da_vowelU-divesakuru",
"dha_medya-divesakuru",
"dha_vowelI-divesakuru",
"dha_vowelII-divesakuru",
"dha_vowelU-divesakuru",
"na_ta_medra-divesakuru",
"na_tha-divesakuru",
"na_dha-divesakuru",
"na_dha_vowelI-divesakuru",
"na_dha_vowelII-divesakuru",
"na_dha_vowelU-divesakuru",
"na_vowelU-divesakuru",
"pa_medra-divesakuru",
"pa_vowelI-divesakuru",
"pa_vowelU-divesakuru",
"pa_vowelUU-divesakuru",
"ba_bha-divesakuru",
"ma_ba-divesakuru",
"ma_vowelU-divesakuru",
"ya_medya-divesakuru",
"ya_vowelI-divesakuru",
"u-divesakuru.00",
"uu-divesakuru.00",
"yya_medya-divesakuru",
"yya_vowelI-divesakuru",
"ra_vowelU-divesakuru",
"va_va-divesakuru",
"sha_ra_vowelI-divesakuru",
"sha_medra-divesakuru",
"ssa_tta-divesakuru",
"sa_ta-divesakuru",
"sa_ta_medra-divesakuru",
"sa_pa_medra-divesakuru",
"sa_va-divesakuru",
"sa_medya-divesakuru",
"sa_vowelI-divesakuru",
"sa_vowelU-divesakuru",
"lla_vowelU-divesakuru",
"nasal_ga-divesakuru",
"k-divesakuru",
"n-divesakuru",
"s-divesakuru",
"t-divesakuru",
"tt-divesakuru",
"u-divesakuru",
"bu-divesakuru",
"dhu-divesakuru",
"su-divesakuru",
"tu-divesakuru",
"tta_tt-divesakuru",
"na_dh-divesakuru",
"ma_b-divesakuru",

glyphs = (
{
glyphname = u11900;
lastChange = "2022-02-03 14:16:54 +0000";
layers = (
{
anchors = (
{
name = Anchor2;
position = "{576, 590}";
},
{
name = Anchor3;
position = "{707, 366}";
},
{
name = Anchor4;
position = "{252, 607}";
},
{
name = Anchor6;
position = "{466, -202}";
},
{
name = bottom;
position = "{466, -202}";
},
{
name = top;
position = "{576, 590}";
},
{
name = topleft;
position = "{252, 607}";
},
{
name = topright;
position = "{707, 366}";
}
);
layerId = UUID0;
paths = (
{
closed = 1;
nodes = (
"790 -210 OFFCURVE",
"856 -120 OFFCURVE",
"856 -16 CURVE SMOOTH",
"856 73 OFFCURVE",
"800 138 OFFCURVE",
"740 160 CURVE",
"744 149 LINE",
"795 169 OFFCURVE",
"841 210 OFFCURVE",
"841 284 CURVE SMOOTH",
"841 363 OFFCURVE",
"763 459 OFFCURVE",
"603 459 CURVE SMOOTH",
"417 459 OFFCURVE",
"266 330 OFFCURVE",
"266 131 CURVE SMOOTH",
"266 37 OFFCURVE",
"303 -17 OFFCURVE",
"376 -17 CURVE SMOOTH",
"432 -17 OFFCURVE",
"478 16 OFFCURVE",
"478 77 CURVE SMOOTH",
"478 156 OFFCURVE",
"401 215 OFFCURVE",
"286 223 CURVE SMOOTH",
"169 231 OFFCURVE",
"109 238 OFFCURVE",
"109 289 CURVE SMOOTH",
"109 400 OFFCURVE",
"353 384 OFFCURVE",
"353 542 CURVE SMOOTH",
"353 602 OFFCURVE",
"319 659 OFFCURVE",
"236 659 CURVE SMOOTH",
"161 659 OFFCURVE",
"115 614 OFFCURVE",
"115 546 CURVE SMOOTH",
"115 473 OFFCURVE",
"163 433 OFFCURVE",
"231 433 CURVE SMOOTH",
"291 433 OFFCURVE",
"334 463 OFFCURVE",
"334 536 CURVE SMOOTH",
"334 588 OFFCURVE",
"303 634 OFFCURVE",
"258 634 CURVE SMOOTH",
"248 634 OFFCURVE",
"232 633 OFFCURVE",
"220 619 CURVE",
"236 607 LINE",
"286 607 OFFCURVE",
"300 579 OFFCURVE",
"300 519 CURVE SMOOTH",
"300 415 OFFCURVE",
"43 433 OFFCURVE",
"43 285 CURVE SMOOTH",
"43 186 OFFCURVE",
"153 178 OFFCURVE",
"262 171 CURVE SMOOTH",
"367 164 OFFCURVE",
"418 131 OFFCURVE",
"418 76 CURVE SMOOTH",
"418 48 OFFCURVE",
"398 34 OFFCURVE",
"377 34 CURVE SMOOTH",
"342 34 OFFCURVE",
"324 65 OFFCURVE",
"324 131 CURVE SMOOTH",
"324 309 OFFCURVE",
"454 407 OFFCURVE",
"593 407 CURVE SMOOTH",
"727 407 OFFCURVE",
"765 341 OFFCURVE",
"765 276 CURVE SMOOTH",
"765 232 OFFCURVE",
"744 178 OFFCURVE",
"673 169 CURVE",
"673 130 LINE",
"750 115 OFFCURVE",
"777 52 OFFCURVE",
"777 -15 CURVE SMOOTH",
"777 -85 OFFCURVE",
"756 -157 OFFCURVE",
"704 -157 CURVE SMOOTH",
"640 -157 OFFCURVE",
"612 -69 OFFCURVE",
"612 53 CURVE SMOOTH",
"612 160 OFFCURVE",
"641 287 OFFCURVE",
"760 351 CURVE",
"717 383 LINE",
"629 334 OFFCURVE",
"547 214 OFFCURVE",
"547 51 CURVE SMOOTH",
"547 -96 OFFCURVE",
"606 -210 OFFCURVE",
"698 -210 CURVE SMOOTH"
);
},
{
closed = 1;
nodes = (
"191 484 OFFCURVE",
"172 509 OFFCURVE",
"172 545 CURVE SMOOTH",
"172 580 OFFCURVE",
"198 602 OFFCURVE",
"233 602 CURVE SMOOTH",
"277 602 OFFCURVE",
"294 574 OFFCURVE",
"294 545 CURVE SMOOTH",
"294 504 OFFCURVE",
"271 484 OFFCURVE",
"234 484 CURVE SMOOTH"
);
}
);
width = 931;
}
);
unicode = 11900;
},
{
glyphname = u11901;
lastChange = "2022-02-03 14:19:32 +0000";
layers = (
{
anchors = (
{
name = Anchor2;
position = "{961, 536}";
},
{
name = Anchor6;
position = "{466, -202}";
},
{
name = bottom;
position = "{466, -202}";
},
{
name = top;
position = "{961, 536}";
},
{
name = topleft;
position = "{252, 607}";
}
);
components = (
{
name = u11900;
}
);
layerId = UUID0;
paths = (
{
closed = 1;
nodes = (
"1036 111 OFFCURVE",
"1073 210 OFFCURVE",
"1073 284 CURVE SMOOTH",
"1073 355 OFFCURVE",
"1029 411 OFFCURVE",
"958 440 CURVE",
"924 392 LINE",
"974 368 OFFCURVE",
"1007 331 OFFCURVE",
"1007 269 CURVE SMOOTH",
"1007 210 OFFCURVE",
"983 130 OFFCURVE",
"911 21 CURVE",
"958 -4 LINE"
);
}
);
width = 1113;
}
);
unicode = 11901;
},
{
glyphname = u11902;
lastChange = "2022-02-03 14:17:09 +0000";
layers = (
{
anchors = (
{
name = Anchor2;
position = "{472, 590}";
},
{
name = Anchor3;
position = "{617, 334}";
},
{
name = Anchor4;
position = "{136, 607}";
},
{
name = Anchor6;
position = "{456, -292}";
},
{
name = bottom;
position = "{456, -292}";
},
{
name = top;
position = "{472, 590}";
},
{
name = topleft;
position = "{136, 607}";
},
{
name = topright;
position = "{617, 334}";
}
);
layerId = UUID0;
paths = (
{
closed = 1;
nodes = (
"519 -271 OFFCURVE",
"779 -124 OFFCURVE",
"779 163 CURVE SMOOTH",
"779 316 OFFCURVE",
"684 436 OFFCURVE",
"497 436 CURVE SMOOTH",
"325 436 OFFCURVE",
"163 287 OFFCURVE",
"163 134 CURVE SMOOTH",
"163 22 OFFCURVE",
"228 -17 OFFCURVE",
"294 -17 CURVE SMOOTH",
"354 -17 OFFCURVE",
"409 26 OFFCURVE",
"409 97 CURVE SMOOTH",
"409 194 OFFCURVE",
"340 284 OFFCURVE",
"84 342 CURVE",
"99 316 LINE",
"158 373 OFFCURVE",
"238 453 OFFCURVE",
"238 561 CURVE SMOOTH",
"238 620 OFFCURVE",
"190 659 OFFCURVE",
"124 659 CURVE SMOOTH",
"62 659 OFFCURVE",
"23 631 OFFCURVE",
"23 587 CURVE SMOOTH",
"23 545 OFFCURVE",
"44 530 OFFCURVE",
"73 530 CURVE SMOOTH",
"101 530 OFFCURVE",
"124 544 OFFCURVE",
"124 579 CURVE SMOOTH",
"124 604 OFFCURVE",
"109 624 OFFCURVE",
"87 624 CURVE SMOOTH",
"82 624 OFFCURVE",
"77 622 OFFCURVE",
"77 618 CURVE",
"102 613 LINE",
"165 613 OFFCURVE",
"179 590 OFFCURVE",
"179 557 CURVE SMOOTH",
"179 469 OFFCURVE",
"95 379 OFFCURVE",
"45 326 CURVE",
"45 292 LINE",
"333 227 OFFCURVE",
"349 151 OFFCURVE",
"349 100 CURVE SMOOTH",
"349 61 OFFCURVE",
"325 41 OFFCURVE",
"295 41 CURVE SMOOTH",
"261 41 OFFCURVE",
"225 61 OFFCURVE",
"225 137 CURVE SMOOTH",
"225 267 OFFCURVE",
"359 382 OFFCURVE",
"501 382 CURVE SMOOTH",
"657 382 OFFCURVE",
"719 277 OFFCURVE",
"719 161 CURVE SMOOTH",
"719 -97 OFFCURVE",
"471 -180 OFFCURVE",
"313 -180 CURVE SMOOTH",
"192 -180 OFFCURVE",
"117 -166 OFFCURVE",
"52 -145 CURVE",
"38 -192 LINE",
"95 -235 OFFCURVE",
"193 -271 OFFCURVE",
"318 -271 CURVE SMOOTH"
);
}
);
width = 819;
}
);
unicode = 11902;
},
{
glyphname = u11903;
lastChange = "2022-02-03 14:17:29 +0000";
layers = (
{
anchors = (
{
name = Anchor2;
position = "{776, 590}";
},
{
name = Anchor3;
position = "{836, 274}";
},
{
name = Anchor4;
position = "{136, 607}";
},
{
name = Anchor6;
position = "{552, -432}";
},
{
name = bottom;
position = "{552, -432}";
},
{
name = top;
position = "{776, 590}";
},
{
name = topleft;
position = "{136, 607}";
},
{
name = topright;
position = "{836, 274}";
}
);
layerId = UUID0;
paths = (
{
closed = 1;
nodes = (
"449 -271 OFFCURVE",
"689 -124 OFFCURVE",
"689 163 CURVE SMOOTH",
"689 316 OFFCURVE",
"594 435 OFFCURVE",
"447 435 CURVE SMOOTH",
"295 435 OFFCURVE",
"163 287 OFFCURVE",
"163 144 CURVE SMOOTH",
"163 22 OFFCURVE",
"228 -17 OFFCURVE",
"294 -17 CURVE SMOOTH",
"354 -17 OFFCURVE",
"409 26 OFFCURVE",
"409 97 CURVE SMOOTH",
"409 194 OFFCURVE",
"340 284 OFFCURVE",
"84 342 CURVE",
"99 316 LINE",
"158 369 OFFCURVE",
"243 453 OFFCURVE",
"243 561 CURVE SMOOTH",
"243 620 OFFCURVE",
"195 659 OFFCURVE",
"129 659 CURVE SMOOTH",
"67 659 OFFCURVE",
"28 631 OFFCURVE",
"28 587 CURVE SMOOTH",
"28 545 OFFCURVE",
"49 530 OFFCURVE",
"78 530 CURVE SMOOTH",
"106 530 OFFCURVE",
"129 544 OFFCURVE",
"129 579 CURVE SMOOTH",
"129 604 OFFCURVE",
"114 624 OFFCURVE",
"92 624 CURVE SMOOTH",
"87 624 OFFCURVE",
"82 622 OFFCURVE",
"82 618 CURVE",
"107 613 LINE",
"170 613 OFFCURVE",
"184 590 OFFCURVE",
"184 558 CURVE SMOOTH",
"184 469 OFFCURVE",
"98 380 OFFCURVE",
"45 326 CURVE",
"45 292 LINE",
"333 227 OFFCURVE",
"349 151 OFFCURVE",
"349 100 CURVE SMOOTH",
"349 61 OFFCURVE",
"325 41 OFFCURVE",
"295 41 CURVE SMOOTH",
"261 41 OFFCURVE",
"225 61 OFFCURVE",
"225 147 CURVE SMOOTH",
"225 267 OFFCURVE",
"329 381 OFFCURVE",
"451 381 CURVE SMOOTH",
"567 381 OFFCURVE",
"629 277 OFFCURVE",
"629 161 CURVE SMOOTH",
"629 -97 OFFCURVE",
"401 -180 OFFCURVE",
"253 -180 CURVE SMOOTH",
"172 -180 OFFCURVE",
"117 -166 OFFCURVE",
"52 -145 CURVE",
"38 -192 LINE",
"95 -235 OFFCURVE",
"173 -271 OFFCURVE",
"278 -271 CURVE SMOOTH"
);
},
{
closed = 1;
nodes = (
"887 -391 OFFCURVE",
"1064 -194 OFFCURVE",
"1064 15 CURVE SMOOTH",
"1064 129 OFFCURVE",
"995 206 OFFCURVE",
"883 206 CURVE SMOOTH",
"827 206 OFFCURVE",
"770 176 OFFCURVE",
"770 110 CURVE SMOOTH",
"770 69 OFFCURVE",
"801 32 OFFCURVE",
"856 32 CURVE SMOOTH",
"909 32 OFFCURVE",
"976 76 OFFCURVE",
"976 179 CURVE SMOOTH",
"976 289 OFFCURVE",
"913 359 OFFCURVE",
"814 359 CURVE SMOOTH",
"738 359 OFFCURVE",
"671 313 OFFCURVE",
"639 251 CURVE",
"653 225 LINE",
"697 279 OFFCURVE",
"755 305 OFFCURVE",
"812 305 CURVE SMOOTH",
"873 305 OFFCURVE",
"922 266 OFFCURVE",
"922 191 CURVE SMOOTH",
"922 102 OFFCURVE",
"887 83 OFFCURVE",
"859 83 CURVE SMOOTH",
"836 83 OFFCURVE",
"822 101 OFFCURVE",
"822 120 CURVE SMOOTH",
"822 146 OFFCURVE",
"843 163 OFFCURVE",
"879 163 CURVE SMOOTH",
"965 163 OFFCURVE",
"1005 111 OFFCURVE",
"1005 19 CURVE SMOOTH",
"1005 -152 OFFCURVE",
"830 -314 OFFCURVE",
"540 -339 CURVE",
"546 -391 LINE"
);
}
);
width = 1104;
}
);
unicode = 11903;
},
{
glyphname = u11904;
lastChange = "2022-02-03 14:07:34 +0000";
layers = (
{
anchors = (
{
name = Anchor2;
position = "{516, 590}";
},
{
name = Anchor4;
position = "{343, 543}";
},
{
name = Anchor6;
position = "{405, -38}";
},
{
name = bottom;
position = "{405, -38}";
},
{
name = top;
position = "{516, 590}";
},
{
name = topleft;
position = "{343, 543}";
}
);
layerId = UUID0;
paths = (
{
closed = 1;
nodes = (
"576 -10 OFFCURVE",
"678 142 OFFCURVE",
"678 293 CURVE SMOOTH",
"678 320 OFFCURVE",
"675 342 OFFCURVE",
"671 360 CURVE",
"618 357 LINE",
"622 338 OFFCURVE",
"624 318 OFFCURVE",
"624 302 CURVE SMOOTH",
"624 179 OFFCURVE",
"552 92 OFFCURVE",
"390 92 CURVE SMOOTH",
"281 92 OFFCURVE",
"220 135 OFFCURVE",
"220 191 CURVE SMOOTH",
"220 222 OFFCURVE",
"229 250 OFFCURVE",
"285 289 CURVE SMOOTH",
"366 346 OFFCURVE",
"410 404 OFFCURVE",
"410 470 CURVE SMOOTH",
"410 545 OFFCURVE",
"359 581 OFFCURVE",
"276 581 CURVE SMOOTH",
"266 581 LINE",
"255 490 OFFCURVE",
"223 450 OFFCURVE",
"164 450 CURVE SMOOTH",
"117 450 OFFCURVE",
"100 471 OFFCURVE",
"100 520 CURVE SMOOTH",
"100 539 OFFCURVE",
"104 556 OFFCURVE",
"110 575 CURVE",
"43 575 LINE",
"36 560 OFFCURVE",
"32 540 OFFCURVE",
"32 516 CURVE SMOOTH",
"32 432 OFFCURVE",
"83 393 OFFCURVE",
"156 393 CURVE SMOOTH",
"266 393 OFFCURVE",
"305 488 OFFCURVE",
"310 539 CURVE",
"299 527 LINE",
"327 526 OFFCURVE",
"355 510 OFFCURVE",
"355 463 CURVE SMOOTH",
"355 420 OFFCURVE",
"333 379 OFFCURVE",
"269 336 CURVE SMOOTH",
"177 274 OFFCURVE",
"154 218 OFFCURVE",
"154 169 CURVE SMOOTH",
"154 58 OFFCURVE",
"249 -10 OFFCURVE",
"378 -10 CURVE SMOOTH"
);
}
);
width = 718;
}
);
unicode = 11904;
},
{
glyphname = u11905;
lastChange = "2022-02-03 14:07:37 +0000";
layers = (
{
anchors = (
{
name = Anchor2;
position = "{526, 590}";
},
{
name = Anchor4;
position = "{343, 543}";
},
{
name = Anchor6;
position = "{526, 590}";
},
{
name = bottom;
position = "{405, -38}";
},
{
name = top;
position = "{526, 590}";
},
{
name = topleft;
position = "{343, 543}";
}
);
layerId = UUID0;
paths = (
{
closed = 1;
nodes = (
"566 -10 OFFCURVE",
"700 135 OFFCURVE",
"700 289 CURVE SMOOTH",
"700 353 OFFCURVE",
"671 413 OFFCURVE",
"587 413 CURVE SMOOTH",
"525 413 OFFCURVE",
"477 372 OFFCURVE",
"477 305 CURVE SMOOTH",
"477 248 OFFCURVE",
"524 179 OFFCURVE",
"641 179 CURVE SMOOTH",
"696 179 OFFCURVE",
"750 185 OFFCURVE",
"810 202 CURVE",
"810 250 LINE",
"746 232 OFFCURVE",
"690 227 OFFCURVE",
"640 227 CURVE SMOOTH",
"553 227 OFFCURVE",
"533 267 OFFCURVE",
"533 305 CURVE SMOOTH",
"533 339 OFFCURVE",
"554 363 OFFCURVE",
"590 363 CURVE SMOOTH",
"633 363 OFFCURVE",
"650 330 OFFCURVE",
"650 291 CURVE SMOOTH",
"650 187 OFFCURVE",
"556 92 OFFCURVE",
"390 92 CURVE SMOOTH",
"281 92 OFFCURVE",
"220 135 OFFCURVE",
"220 191 CURVE SMOOTH",
"220 222 OFFCURVE",
"229 250 OFFCURVE",
"285 289 CURVE SMOOTH",
"366 346 OFFCURVE",
"410 404 OFFCURVE",
"410 470 CURVE SMOOTH",
"410 545 OFFCURVE",
"359 581 OFFCURVE",
"276 581 CURVE SMOOTH",
"266 581 LINE",
"255 490 OFFCURVE",
"223 450 OFFCURVE",
"164 450 CURVE SMOOTH",
"117 450 OFFCURVE",
"100 471 OFFCURVE",
"100 520 CURVE SMOOTH",
"100 539 OFFCURVE",
"104 556 OFFCURVE",
"110 575 CURVE",
"43 575 LINE",
"36 560 OFFCURVE",
"32 540 OFFCURVE",
"32 516 CURVE SMOOTH",
"32 432 OFFCURVE",
"83 393 OFFCURVE",
"156 393 CURVE SMOOTH",
"266 393 OFFCURVE",
"305 488 OFFCURVE",
"310 539 CURVE",
"299 527 LINE",
"327 526 OFFCURVE",
"355 510 OFFCURVE",
"355 463 CURVE SMOOTH",
"355 420 OFFCURVE",
"333 381 OFFCURVE",
"269 338 CURVE SMOOTH",
"177 276 OFFCURVE",
"154 218 OFFCURVE",
"154 169 CURVE SMOOTH",
"154 58 OFFCURVE",
"249 -10 OFFCURVE",
"378 -10 CURVE SMOOTH"
);
}
);
width = 820;
}
);
unicode = 11905;
},
{
glyphname = u11906;
lastChange = "2022-02-03 14:08:08 +0000";
layers = (
{
anchors = (
{
name = Anchor2;
position = "{566, 590}";
},
{
name = Anchor4;
position = "{367, 543}";
},
{
name = Anchor6;
position = "{435, -38}";
},
{
name = bottom;
position = "{435, -38}";
},
{
name = right;
position = "{792, 304}";
},
{
name = top;
position = "{566, 590}";
},
{
name = topleft;
position = "{367, 543}";
}
);
layerId = UUID0;
paths = (
{
closed = 1;
nodes = (
"352 -10 OFFCURVE",
"472 163 OFFCURVE",
"472 350 CURVE SMOOTH",
"472 497 OFFCURVE",
"402 581 OFFCURVE",
"298 581 CURVE SMOOTH",
"288 581 LINE",
"277 490 OFFCURVE",
"245 450 OFFCURVE",
"186 450 CURVE SMOOTH",
"139 450 OFFCURVE",
"122 471 OFFCURVE",
"122 520 CURVE SMOOTH",
"122 539 OFFCURVE",
"126 556 OFFCURVE",
"132 575 CURVE",
"65 575 LINE",
"58 560 OFFCURVE",
"54 540 OFFCURVE",
"54 516 CURVE SMOOTH",
"54 432 OFFCURVE",
"105 393 OFFCURVE",
"178 393 CURVE SMOOTH",
"288 393 OFFCURVE",
"327 488 OFFCURVE",
"332 539 CURVE",
"321 524 LINE",
"361 524 OFFCURVE",
"412 463 OFFCURVE",
"412 345 CURVE SMOOTH",
"412 195 OFFCURVE",
"312 57 OFFCURVE",
"196 57 CURVE SMOOTH",
"147 57 OFFCURVE",
"108 78 OFFCURVE",
"108 130 CURVE SMOOTH",
"108 187 OFFCURVE",
"139 214 OFFCURVE",
"194 214 CURVE SMOOTH",
"311 214 OFFCURVE",
"380 -7 OFFCURVE",
"541 -7 CURVE SMOOTH",
"666 -7 OFFCURVE",
"754 110 OFFCURVE",
"754 250 CURVE SMOOTH",
"754 308 OFFCURVE",
"743 357 OFFCURVE",
"725 392 CURVE",
"662 381 LINE",
"674 338 OFFCURVE",
"680 298 OFFCURVE",
"680 257 CURVE SMOOTH",
"680 142 OFFCURVE",
"635 68 OFFCURVE",
"545 68 CURVE SMOOTH",
"419 68 OFFCURVE",
"341 268 OFFCURVE",
"192 268 CURVE SMOOTH",
"97 268 OFFCURVE",
"40 210 OFFCURVE",
"40 126 CURVE SMOOTH",
"40 35 OFFCURVE",
"112 -10 OFFCURVE",
"194 -10 CURVE SMOOTH"
);
}
);
width = 794;
}
);
unicode = 11906;
},
{
glyphname = u11909;
lastChange = "2022-02-03 14:14:10 +0000";
layers = (
{
anchors = (
{
name = Anchor2;
position = "{586, 590}";
},
{
name = Anchor4;
position = "{257, 537}";
},
{
name = Anchor6;
position = "{535, -38}";
},
{
name = bottom;
position = "{535, -38}";
},
{
name = top;
position = "{586, 590}";
},
{
name = topleft;
position = "{257, 537}";
}
);
layerId = UUID0;
paths = (
{
closed = 1;
nodes = (
"404 -10 OFFCURVE",
"481 59 OFFCURVE",
"504 129 CURVE",
"533 44 OFFCURVE",
"601 -10 OFFCURVE",
"703 -10 CURVE SMOOTH",
"816 -10 OFFCURVE",
"915 78 OFFCURVE",
"915 236 CURVE SMOOTH",
"915 359 OFFCURVE",
"852 437 OFFCURVE",
"767 437 CURVE SMOOTH",
"692 437 OFFCURVE",
"656 400 OFFCURVE",
"656 336 CURVE SMOOTH",
"656 279 OFFCURVE",
"689 238 OFFCURVE",
"758 238 CURVE SMOOTH",
"813 238 OFFCURVE",
"853 269 OFFCURVE",
"853 330 CURVE SMOOTH",
"853 349 OFFCURVE",
"829 372 OFFCURVE",
"814 383 CURVE",
"817 375 LINE",
"857 338 OFFCURVE",
"864 292 OFFCURVE",
"864 254 CURVE SMOOTH",
"864 149 OFFCURVE",
"779 95 OFFCURVE",
"689 95 CURVE SMOOTH",
"614 95 OFFCURVE",
"538 131 OFFCURVE",
"531 204 CURVE",
"478 204 LINE",
"463 147 OFFCURVE",
"411 95 OFFCURVE",
"301 95 CURVE SMOOTH",
"229 95 OFFCURVE",
"190 119 OFFCURVE",
"190 163 CURVE SMOOTH",
"190 189 OFFCURVE",
"201 218 OFFCURVE",
"270 247 CURVE SMOOTH",
"359 284 OFFCURVE",
"445 320 OFFCURVE",
"445 430 CURVE SMOOTH",
"445 511 OFFCURVE",
"382 589 OFFCURVE",
"255 589 CURVE SMOOTH",
"125 589 OFFCURVE",
"40 528 OFFCURVE",
"40 450 CURVE SMOOTH",
"40 377 OFFCURVE",
"89 337 OFFCURVE",
"157 337 CURVE SMOOTH",
"221 337 OFFCURVE",
"276 367 OFFCURVE",
"276 446 CURVE SMOOTH",
"276 501 OFFCURVE",
"238 538 OFFCURVE",
"183 538 CURVE SMOOTH",
"173 538 OFFCURVE",
"157 537 OFFCURVE",
"149 535 CURVE",
"159 517 LINE",
"180 526 OFFCURVE",
"211 537 OFFCURVE",
"261 537 CURVE SMOOTH",
"329 537 OFFCURVE",
"385 489 OFFCURVE",
"385 428 CURVE SMOOTH",
"385 358 OFFCURVE",
"349 332 OFFCURVE",
"266 299 CURVE SMOOTH",
"164 259 OFFCURVE",
"124 204 OFFCURVE",
"124 141 CURVE SMOOTH",
"124 42 OFFCURVE",
"197 -10 OFFCURVE",
"303 -10 CURVE SMOOTH"
);
},
{
closed = 1;
nodes = (
"116 388 OFFCURVE",
"97 413 OFFCURVE",
"97 449 CURVE SMOOTH",
"97 484 OFFCURVE",
"123 506 OFFCURVE",
"158 506 CURVE SMOOTH",
"202 506 OFFCURVE",
"219 478 OFFCURVE",
"219 449 CURVE SMOOTH",
"219 408 OFFCURVE",
"196 388 OFFCURVE",
"159 388 CURVE SMOOTH"
);
},
{
closed = 1;
nodes = (
"721 285 OFFCURVE",
"706 307 OFFCURVE",
"706 339 CURVE SMOOTH",
"706 369 OFFCURVE",
"728 388 OFFCURVE",
"757 388 CURVE SMOOTH",
"794 388 OFFCURVE",
"809 363 OFFCURVE",
"809 339 CURVE SMOOTH",
"809 303 OFFCURVE",
"788 285 OFFCURVE",
"758 285 CURVE SMOOTH"
);
}
);
width = 955;
}
);
unicode = 11909;
},
{
glyphname = u1190C;
lastChange = "2022-02-03 13:21:39 +0000";
layers = (
{
anchors = (
{
name = Anchor2;
position = "{532, 653}";
},
{
name = Anchor3;
position = "{674, 495}";
},
{
name = Anchor4;
position = "{534, 551}";
},
{
name = Anchor6;
position = "{505, -276}";
},
{
name = bottom;
position = "{505, -276}";
},
{
name = right;
position = "{938, 300}";
},
{
name = top;
position = "{532, 653}";
},
{
name = topleft;
position = "{534, 551}";
},
{
name = topright;
position = "{674, 495}";
}
);
layerId = UUID0;
paths = (
{
closed = 1;
nodes = (
"725 -235 OFFCURVE",
"904 11 OFFCURVE",
"904 254 CURVE SMOOTH",
"904 466 OFFCURVE",
"775 598 OFFCURVE",
"554 598 CURVE SMOOTH",
"387 598 OFFCURVE",
"176 520 OFFCURVE",
"176 295 CURVE SMOOTH",
"176 121 OFFCURVE",
"285 -2 OFFCURVE",
"440 -2 CURVE SMOOTH",
"532 -2 OFFCURVE",
"631 64 OFFCURVE",
"631 169 CURVE SMOOTH",
"631 247 OFFCURVE",
"582 290 OFFCURVE",
"471 305 CURVE",
"473 294 LINE",
"566 307 OFFCURVE",
"619 357 OFFCURVE",
"619 428 CURVE SMOOTH",
"619 493 OFFCURVE",
"561 562 OFFCURVE",
"390 562 CURVE",
"380 519 LINE",
"479 519 OFFCURVE",
"529 486 OFFCURVE",
"529 427 CURVE SMOOTH",
"529 379 OFFCURVE",
"509 321 OFFCURVE",
"352 317 CURVE",
"352 272 LINE",
"518 263 OFFCURVE",
"535 208 OFFCURVE",
"535 164 CURVE SMOOTH",
"535 107 OFFCURVE",
"496 64 OFFCURVE",
"423 64 CURVE SMOOTH",
"325 64 OFFCURVE",
"237 148 OFFCURVE",
"237 297 CURVE SMOOTH",
"237 493 OFFCURVE",
"420 547 OFFCURVE",
"548 547 CURVE SMOOTH",
"732 547 OFFCURVE",
"842 439 OFFCURVE",
"842 270 CURVE SMOOTH",
"842 33 OFFCURVE",
"663 -143 OFFCURVE",
"418 -143 CURVE SMOOTH",
"303 -143 OFFCURVE",
"212 -118 OFFCURVE",
"125 -76 CURVE",
"99 -128 LINE",
"180 -187 OFFCURVE",
"273 -235 OFFCURVE",
"414 -235 CURVE SMOOTH"
);
},
{
closed = 1;
nodes = (
"125 455 LINE",
"106 463 OFFCURVE",
"87 475 OFFCURVE",
"87 502 CURVE SMOOTH",
"87 541 OFFCURVE",
"136 571 OFFCURVE",
"200 571 CURVE SMOOTH",
"278 571 OFFCURVE",
"331 551 OFFCURVE",
"385 526 CURVE",
"406 567 LINE",
"349 594 OFFCURVE",
"263 615 OFFCURVE",
"192 615 CURVE SMOOTH",
"68 615 OFFCURVE",
"10 550 OFFCURVE",
"10 486 CURVE SMOOTH",
"10 425 OFFCURVE",
"60 406 OFFCURVE",
"94 395 CURVE"
);
}
);
width = 944;
}
);
unicode = 1190C;
},
{
glyphname = u1190D;
lastChange = "2022-02-07 15:33:09 +0000";
layers = (
{
anchors = (
{
name = Anchor10;
position = "{670, 120}";
},
{
name = Anchor11;
position = "{601, 197}";
},
{
name = Anchor2;
position = "{454, 590}";
},
{
name = Anchor3;
position = "{372, 494}";
},
{
name = Anchor4;
position = "{312, 537}";
},
{
name = Anchor6;
position = "{403, -38}";
},
{
name = bottom;
position = "{403, -38}";
},
{
name = halant;
position = "{601, 197}";
},
{
name = right2;
position = "{670, 120}";
},
{
name = top;
position = "{454, 590}";
},
{
name = topleft;
position = "{312, 537}";
},
{
name = topright;
position = "{372, 494}";
}
);
guideLines = (
{
position = "{602, 197}";
}
);
layerId = UUID0;
paths = (
{
closed = 1;
nodes = (
"442 -10 OFFCURVE",
"560 76 OFFCURVE",
"632 200 CURVE",
"591 227 LINE",
"506 117 OFFCURVE",
"413 92 OFFCURVE",
"302 92 CURVE SMOOTH",
"157 92 OFFCURVE",
"95 140 OFFCURVE",
"95 202 CURVE",
"81 187 LINE",
"383 198 OFFCURVE",
"494 301 OFFCURVE",
"494 430 CURVE SMOOTH",
"494 511 OFFCURVE",
"445 589 OFFCURVE",
"318 589 CURVE SMOOTH",
"208 589 OFFCURVE",
"123 528 OFFCURVE",
"123 450 CURVE SMOOTH",
"123 377 OFFCURVE",
"172 337 OFFCURVE",
"240 337 CURVE SMOOTH",
"304 337 OFFCURVE",
"359 367 OFFCURVE",
"359 446 CURVE SMOOTH",
"359 501 OFFCURVE",
"311 538 OFFCURVE",
"266 538 CURVE SMOOTH",
"256 538 OFFCURVE",
"240 537 OFFCURVE",
"232 535 CURVE",
"242 517 LINE",
"263 526 OFFCURVE",
"294 537 OFFCURVE",
"324 537 CURVE SMOOTH",
"392 537 OFFCURVE",
"434 489 OFFCURVE",
"434 428 CURVE SMOOTH",
"434 341 OFFCURVE",
"380 247 OFFCURVE",
"40 234 CURVE",
"40 222 LINE SMOOTH",
"40 77 OFFCURVE",
"137 -10 OFFCURVE",
"296 -10 CURVE SMOOTH"
);
},
{
closed = 1;
nodes = (
"199 388 OFFCURVE",
"180 413 OFFCURVE",
"180 449 CURVE SMOOTH",
"180 484 OFFCURVE",
"206 506 OFFCURVE",
"241 506 CURVE SMOOTH",
"285 506 OFFCURVE",
"302 478 OFFCURVE",
"302 449 CURVE SMOOTH",
"302 408 OFFCURVE",
"279 388 OFFCURVE",
"242 388 CURVE SMOOTH"
);
}
);
width = 672;
}
);
unicode = 1190D;
},
{
glyphname = u1190E;
lastChange = "2022-02-03 16:15:59 +0000";
layers = (
{
anchors = (
{
name = Anchor11;
position = "{665, 374}";
},
{
name = Anchor2;
position = "{144, 714}";
},
{
name = Anchor6;
position = "{375, -38}";
},
{
name = bottom;
position = "{375, -38}";
},
{
name = halant;
position = "{665, 374}";
},
{
name = top;
position = "{144, 714}";
}
);
layerId = UUID0;
paths = (
{
closed = 1;
nodes = (
"546 -10 OFFCURVE",
"696 127 OFFCURVE",
"696 354 CURVE SMOOTH",
"696 487 OFFCURVE",
"612 587 OFFCURVE",
"487 587 CURVE SMOOTH",
"378 587 OFFCURVE",
"309 517 OFFCURVE",
"309 421 CURVE SMOOTH",
"309 386 OFFCURVE",
"317 359 OFFCURVE",
"329 331 CURVE",
"357 348 LINE",
"252 348 LINE SMOOTH",
"186 348 OFFCURVE",
"175 365 OFFCURVE",
"175 464 CURVE SMOOTH",
"175 671 LINE",
"119 671 LINE",
"119 440 LINE SMOOTH",
"119 310 OFFCURVE",
"151 291 OFFCURVE",
"245 291 CURVE SMOOTH",
"413 291 LINE",
"395 319 OFFCURVE",
"367 366 OFFCURVE",
"367 422 CURVE SMOOTH",
"367 502 OFFCURVE",
"420 533 OFFCURVE",
"485 533 CURVE SMOOTH",
"585 533 OFFCURVE",
"635 448 OFFCURVE",
"635 352 CURVE SMOOTH",
"635 154 OFFCURVE",
"498 81 OFFCURVE",
"320 81 CURVE SMOOTH",
"239 81 OFFCURVE",
"164 95 OFFCURVE",
"99 116 CURVE",
"80 74 LINE",
"128 21 OFFCURVE",
"230 -10 OFFCURVE",
"315 -10 CURVE SMOOTH"
);
}
);
width = 746;
}
);
unicode = 1190E;
},
{
glyphname = u1190F;
lastChange = "2022-02-07 14:33:42 +0000";
layers = (
{
anchors = (
{
name = Anchor10;
position = "{780, 297}";
},
{
name = Anchor11;
position = "{724, 320}";
},
{
name = Anchor2;
position = "{539, 590}";
},
{
name = Anchor4;
position = "{340, 543}";
},
{
name = Anchor6;
position = "{488, -38}";
},
{
name = bottom;
position = "{488, -38}";
},
{
name = halant;
position = "{724, 320}";
},
{
name = right2;
position = "{780, 297}";
},
{
name = top;
position = "{539, 590}";
},
{
name = topleft;
position = "{340, 543}";
}
);
layerId = UUID0;
paths = (
{
closed = 1;
nodes = (
"439 -10 OFFCURVE",
"536 172 OFFCURVE",
"536 293 CURVE SMOOTH",
"536 320 OFFCURVE",
"533 342 OFFCURVE",
"529 360 CURVE",
"476 357 LINE",
"480 341 OFFCURVE",
"482 322 OFFCURVE",
"482 306 CURVE SMOOTH",
"482 209 OFFCURVE",
"416 92 OFFCURVE",
"312 92 CURVE SMOOTH",
"247 92 OFFCURVE",
"216 123 OFFCURVE",
"216 176 CURVE SMOOTH",
"216 210 OFFCURVE",
"229 250 OFFCURVE",
"285 289 CURVE SMOOTH",
"366 346 OFFCURVE",
"410 404 OFFCURVE",
"410 470 CURVE SMOOTH",
"410 545 OFFCURVE",
"359 581 OFFCURVE",
"276 581 CURVE SMOOTH",
"266 581 LINE",
"255 490 OFFCURVE",
"223 450 OFFCURVE",
"164 450 CURVE SMOOTH",
"117 450 OFFCURVE",
"100 471 OFFCURVE",
"100 520 CURVE SMOOTH",
"100 539 OFFCURVE",
"104 556 OFFCURVE",
"110 575 CURVE",
"43 575 LINE",
"36 560 OFFCURVE",
"32 540 OFFCURVE",
"32 516 CURVE SMOOTH",
"32 432 OFFCURVE",
"83 393 OFFCURVE",
"156 393 CURVE SMOOTH",
"266 393 OFFCURVE",
"305 488 OFFCURVE",
"310 539 CURVE",
"299 527 LINE",
"327 526 OFFCURVE",
"355 510 OFFCURVE",
"355 463 CURVE SMOOTH",
"355 420 OFFCURVE",
"333 379 OFFCURVE",
"269 336 CURVE SMOOTH",
"177 274 OFFCURVE",
"150 206 OFFCURVE",
"150 147 CURVE SMOOTH",
"150 42 OFFCURVE",
"215 -10 OFFCURVE",
"300 -10 CURVE SMOOTH"
);
},
{
closed = 1;
nodes = (
"708 -10 OFFCURVE",
"774 112 OFFCURVE",
"774 246 CURVE SMOOTH",
"774 299 OFFCURVE",
"768 332 OFFCURVE",
"764 350 CURVE",
"711 347 LINE",
"715 328 OFFCURVE",
"720 297 OFFCURVE",
"720 255 CURVE SMOOTH",
"720 153 OFFCURVE",
"681 92 OFFCURVE",
"591 92 CURVE SMOOTH",
"527 92 OFFCURVE",
"493 131 OFFCURVE",
"491 144 CURVE",
"435 122 LINE",
"448 49 OFFCURVE",
"507 -10 OFFCURVE",
"581 -10 CURVE SMOOTH"
);
}
);
width = 814;
}
);
unicode = 1190F;
},
{
glyphname = u11910;
lastChange = "2022-02-07 14:34:26 +0000";
layers = (
{
anchors = (
{
name = Anchor10;
position = "{539, 110}";
},
{
name = Anchor11;
position = "{447, 274}";
},
{
name = Anchor2;
position = "{296, 590}";
},
{
name = Anchor4;
position = "{259, 547}";
},
{
name = Anchor6;
position = "{275, -38}";
},
{
name = bottom;
position = "{275, -38}";
},
{
name = halant;
position = "{447, 374}";
},
{
name = right2;
position = "{539, 110}";
},
{
name = top;
position = "{296, 590}";
},
{
name = topleft;
position = "{259, 547}";
}
);
layerId = UUID0;
paths = (
{
closed = 1;
nodes = (
"416 -11 OFFCURVE",
"508 61 OFFCURVE",
"508 159 CURVE SMOOTH",
"508 250 OFFCURVE",
"401 304 OFFCURVE",
"329 308 CURVE",
"330 299 LINE",
"400 306 OFFCURVE",
"504 358 OFFCURVE",
"504 446 CURVE SMOOTH",
"504 540 OFFCURVE",
"408 589 OFFCURVE",
"255 589 CURVE SMOOTH",
"102 589 OFFCURVE",
"20 545 OFFCURVE",
"20 459 CURVE SMOOTH",
"20 392 OFFCURVE",
"64 367 OFFCURVE",
"122 367 CURVE SMOOTH",
"175 367 OFFCURVE",
"221 392 OFFCURVE",
"221 458 CURVE SMOOTH",
"221 503 OFFCURVE",
"189 534 OFFCURVE",
"144 534 CURVE SMOOTH",
"135 534 OFFCURVE",
"122 533 OFFCURVE",
"115 532 CURVE",
"139 517 LINE",
"160 526 OFFCURVE",
"191 537 OFFCURVE",
"251 537 CURVE SMOOTH",
"346 537 OFFCURVE",
"406 513 OFFCURVE",
"406 448 CURVE SMOOTH",
"406 367 OFFCURVE",
"318 325 OFFCURVE",
"203 321 CURVE",
"203 276 LINE",
"312 271 OFFCURVE",
"408 243 OFFCURVE",
"408 160 CURVE SMOOTH",
"408 83 OFFCURVE",
"350 45 OFFCURVE",
"221 45 CURVE SMOOTH",
"159 45 OFFCURVE",
"117 52 OFFCURVE",
"59 63 CURVE",
"48 11 LINE",
"121 -7 OFFCURVE",
"177 -11 OFFCURVE",
"234 -11 CURVE SMOOTH"
);
},
{
closed = 1;
nodes = (
"86 408 OFFCURVE",
"70 429 OFFCURVE",
"70 459 CURVE SMOOTH",
"70 494 OFFCURVE",
"86 507 OFFCURVE",
"121 507 CURVE SMOOTH",
"157 507 OFFCURVE",
"172 483 OFFCURVE",
"172 459 CURVE SMOOTH",
"172 425 OFFCURVE",
"152 408 OFFCURVE",
"122 408 CURVE SMOOTH"
);
}
);
width = 558;
}
);
unicode = 11910;
},
{
glyphname = u11911;
lastChange = "2022-02-07 14:34:59 +0000";
layers = (
{
anchors = (
{
name = Anchor10;
position = "{797, 305}";
},
{
name = Anchor11;
position = "{732, 380}";
},
{
name = Anchor2;
position = "{535, 590}";
},
{
name = Anchor4;
position = "{346, 543}";
},
{
name = Anchor6;
position = "{514, -38}";
},
{
name = bottom;
position = "{514, -38}";
},
{
name = halant;
position = "{732, 380}";
},
{
name = right2;
position = "{797, 305}";
},
{
name = top;
position = "{535, 590}";
},
{
name = topleft;
position = "{346, 543}";
}
);
layerId = UUID0;
paths = (
{
closed = 1;
nodes = (
"606 -10 OFFCURVE",
"777 142 OFFCURVE",
"777 336 CURVE SMOOTH",
"777 363 OFFCURVE",
"775 390 OFFCURVE",
"772 410 CURVE",
"719 407 LINE",
"722 386 OFFCURVE",
"723 361 OFFCURVE",
"723 345 CURVE SMOOTH",
"723 179 OFFCURVE",
"582 92 OFFCURVE",
"391 92 CURVE SMOOTH",
"214 92 OFFCURVE",
"147 147 OFFCURVE",
"147 219 CURVE",
"133 204 LINE",
"325 235 OFFCURVE",
"456 316 OFFCURVE",
"456 452 CURVE SMOOTH",
"456 548 OFFCURVE",
"393 581 OFFCURVE",
"281 581 CURVE SMOOTH",
"271 581 LINE",
"260 490 OFFCURVE",
"228 450 OFFCURVE",
"169 450 CURVE SMOOTH",
"122 450 OFFCURVE",
"105 471 OFFCURVE",
"105 520 CURVE SMOOTH",
"105 539 OFFCURVE",
"109 556 OFFCURVE",
"115 575 CURVE",
"48 575 LINE",
"41 560 OFFCURVE",
"37 540 OFFCURVE",
"37 516 CURVE SMOOTH",
"37 432 OFFCURVE",
"88 393 OFFCURVE",
"161 393 CURVE SMOOTH",
"271 393 OFFCURVE",
"310 488 OFFCURVE",
"315 539 CURVE",
"304 527 LINE",
"352 527 OFFCURVE",
"396 514 OFFCURVE",
"396 450 CURVE SMOOTH",
"396 356 OFFCURVE",
"322 284 OFFCURVE",
"92 251 CURVE",
"92 239 LINE SMOOTH",
"92 84 OFFCURVE",
"194 -10 OFFCURVE",
"379 -10 CURVE SMOOTH"
);
}
);
width = 817;
}
);
unicode = 11911;
},
{
glyphname = u11912;
lastChange = "2022-02-03 13:22:38 +0000";
layers = (
{
anchors = (
{
name = Anchor11;
position = "{1162, 378}";
},
{
name = Anchor2;
position = "{515, 590}";
},
{
name = Anchor4;
position = "{347, 543}";
},
{
name = Anchor6;
position = "{614, -138}";
},
{
name = bottom;
position = "{614, -138}";
},
{
name = halant;
position = "{1162, 378}";
},
{
name = top;
position = "{515, 590}";
},
{
name = topleft;
position = "{347, 543}";
}
);
layerId = UUID0;
paths = (
{
closed = 1;
nodes = (
"976 -191 OFFCURVE",
"1223 -27 OFFCURVE",
"1223 287 CURVE SMOOTH",
"1223 523 OFFCURVE",
"1061 656 OFFCURVE",
"854 656 CURVE SMOOTH",
"682 656 OFFCURVE",
"540 537 OFFCURVE",
"540 344 CURVE SMOOTH",
"540 192 OFFCURVE",
"665 73 OFFCURVE",
"811 73 CURVE SMOOTH",
"931 73 OFFCURVE",
"1047 154 OFFCURVE",
"1047 308 CURVE SMOOTH",
"1047 438 OFFCURVE",
"960 509 OFFCURVE",
"860 509 CURVE SMOOTH",
"782 509 OFFCURVE",
"720 465 OFFCURVE",
"720 393 CURVE SMOOTH",
"720 356 OFFCURVE",
"732 333 OFFCURVE",
"746 311 CURVE SMOOTH",
"758 292 OFFCURVE",
"767 273 OFFCURVE",
"767 248 CURVE SMOOTH",
"767 159 OFFCURVE",
"582 92 OFFCURVE",
"391 92 CURVE SMOOTH",
"214 92 OFFCURVE",
"147 147 OFFCURVE",
"147 219 CURVE",
"133 204 LINE",
"325 235 OFFCURVE",
"456 316 OFFCURVE",
"456 452 CURVE SMOOTH",
"456 548 OFFCURVE",
"393 581 OFFCURVE",
"281 581 CURVE SMOOTH",
"271 581 LINE",
"260 490 OFFCURVE",
"228 448 OFFCURVE",
"169 448 CURVE SMOOTH",
"122 448 OFFCURVE",
"105 471 OFFCURVE",
"105 520 CURVE SMOOTH",
"105 539 OFFCURVE",
"109 556 OFFCURVE",
"115 575 CURVE",
"51 575 LINE",
"44 560 OFFCURVE",
"40 540 OFFCURVE",
"40 516 CURVE SMOOTH",
"40 432 OFFCURVE",
"88 393 OFFCURVE",
"161 393 CURVE SMOOTH",
"271 393 OFFCURVE",
"310 488 OFFCURVE",
"315 539 CURVE",
"304 527 LINE",
"352 527 OFFCURVE",
"396 514 OFFCURVE",
"396 450 CURVE SMOOTH",
"396 356 OFFCURVE",
"322 284 OFFCURVE",
"92 251 CURVE",
"92 239 LINE SMOOTH",
"92 84 OFFCURVE",
"194 -10 OFFCURVE",
"379 -10 CURVE SMOOTH",
"606 -10 OFFCURVE",
"816 122 OFFCURVE",
"816 242 CURVE SMOOTH",
"816 272 OFFCURVE",
"807 295 OFFCURVE",
"797 317 CURVE SMOOTH",
"788 337 OFFCURVE",
"781 355 OFFCURVE",
"781 376 CURVE SMOOTH",
"781 412 OFFCURVE",
"809 442 OFFCURVE",
"864 442 CURVE SMOOTH",
"948 442 OFFCURVE",
"987 369 OFFCURVE",
"987 301 CURVE SMOOTH",
"987 189 OFFCURVE",
"902 131 OFFCURVE",
"812 131 CURVE SMOOTH",
"698 131 OFFCURVE",
"598 231 OFFCURVE",
"598 349 CURVE SMOOTH",
"598 517 OFFCURVE",
"716 602 OFFCURVE",
"858 602 CURVE SMOOTH",
"1034 602 OFFCURVE",
"1163 484 OFFCURVE",
"1163 285 CURVE SMOOTH",
"1163 0 OFFCURVE",
"928 -100 OFFCURVE",
"740 -100 CURVE SMOOTH",
"649 -100 OFFCURVE",
"584 -96 OFFCURVE",
"519 -85 CURVE",
"505 -132 LINE",
"562 -165 OFFCURVE",
"650 -191 OFFCURVE",
"755 -191 CURVE SMOOTH"
);
}
);
width = 1263;
}
);
unicode = 11912;
},
{
glyphname = u11913;
lastChange = "2022-02-07 14:35:15 +0000";
layers = (
{
anchors = (
{
name = Anchor10;
position = "{708, 202}";
},
{
name = Anchor11;
position = "{559, -256}";
},
{
name = Anchor2;
position = "{516, 590}";
},
{
name = Anchor4;
position = "{342, 543}";
},
{
name = Anchor6;
position = "{495, -38}";
},
{
name = bottom;
position = "{495, -38}";
},
{
name = halant;
position = "{559, 256}";
},
{
name = right2;
position = "{708, 202}";
},
{
name = top;
position = "{516, 590}";
},
{
name = topleft;
position = "{342, 543}";
}
);
layerId = UUID0;
paths = (
{
closed = 1;
nodes = (
"666 -62 LINE",
"639 -38 OFFCURVE",
"547 52 OFFCURVE",
"547 162 CURVE SMOOTH",
"547 231 OFFCURVE",
"577 256 OFFCURVE",
"610 256 CURVE SMOOTH",
"640 256 OFFCURVE",
"660 239 OFFCURVE",
"660 209 CURVE SMOOTH",
"660 149 OFFCURVE",
"606 80 OFFCURVE",
"416 80 CURVE SMOOTH",
"237 80 OFFCURVE",
"152 138 OFFCURVE",
"152 219 CURVE",
"128 204 LINE",
"320 235 OFFCURVE",
"451 316 OFFCURVE",
"451 452 CURVE SMOOTH",
"451 548 OFFCURVE",
"388 581 OFFCURVE",
"276 581 CURVE SMOOTH",
"266 581 LINE",
"255 490 OFFCURVE",
"223 450 OFFCURVE",
"164 450 CURVE SMOOTH",
"117 450 OFFCURVE",
"100 471 OFFCURVE",
"100 520 CURVE SMOOTH",
"100 539 OFFCURVE",
"104 556 OFFCURVE",
"110 575 CURVE",
"43 575 LINE",
"36 560 OFFCURVE",
"32 540 OFFCURVE",
"32 516 CURVE SMOOTH",
"32 432 OFFCURVE",
"83 393 OFFCURVE",
"156 393 CURVE SMOOTH",
"266 393 OFFCURVE",
"305 488 OFFCURVE",
"310 539 CURVE",
"299 527 LINE",
"347 527 OFFCURVE",
"391 514 OFFCURVE",
"391 450 CURVE SMOOTH",
"391 356 OFFCURVE",
"317 284 OFFCURVE",
"87 251 CURVE",
"87 239 LINE SMOOTH",
"87 85 OFFCURVE",
"179 -10 OFFCURVE",
"382 -10 CURVE SMOOTH",
"579 -10 OFFCURVE",
"716 93 OFFCURVE",
"716 213 CURVE SMOOTH",
"716 265 OFFCURVE",
"687 309 OFFCURVE",
"621 309 CURVE SMOOTH",
"560 309 OFFCURVE",
"497 264 OFFCURVE",
"497 163 CURVE SMOOTH",
"497 47 OFFCURVE",
"590 -65 OFFCURVE",
"622 -94 CURVE"
);
}
);
width = 758;
}
);
unicode = 11913;
},
{
glyphname = u11915;
lastChange = "2022-02-07 14:35:36 +0000";
layers = (
{
anchors = (
{
name = Anchor2;
position = "{446, 590}";
},
{
name = Anchor3;
position = "{620, 494}";
},
{
name = Anchor4;
position = "{350, 543}";
},
{
name = Anchor6;
position = "{425, -138}";
},
{
name = bottom;
position = "{425, -138}";
},
{
name = top;
position = "{446, 590}";
},
{
name = topleft;
position = "{350, 543}";
},
{
name = topright;
position = "{620, 494}";
}
);
layerId = UUID0;
paths = (
{
closed = 1;
nodes = (
"654 -114 OFFCURVE",
"789 106 OFFCURVE",
"789 337 CURVE SMOOTH",
"789 483 OFFCURVE",
"722 589 OFFCURVE",
"577 589 CURVE SMOOTH",
"471 589 OFFCURVE",
"424 513 OFFCURVE",
"405 436 CURVE",
"386 513 OFFCURVE",
"336 589 OFFCURVE",
"240 589 CURVE SMOOTH",
"111 589 OFFCURVE",
"35 493 OFFCURVE",
"35 369 CURVE SMOOTH",
"35 316 OFFCURVE",
"53 277 OFFCURVE",
"70 251 CURVE",
"116 264 LINE",
"105 289 OFFCURVE",
"96 319 OFFCURVE",
"96 351 CURVE SMOOTH",
"96 454 OFFCURVE",
"165 493 OFFCURVE",
"241 493 CURVE SMOOTH",
"326 493 OFFCURVE",
"369 427 OFFCURVE",
"379 346 CURVE",
"432 346 LINE",
"442 427 OFFCURVE",
"482 493 OFFCURVE",
"577 493 CURVE SMOOTH",
"675 493 OFFCURVE",
"729 429 OFFCURVE",
"729 316 CURVE SMOOTH",
"729 137 OFFCURVE",
"626 -49 OFFCURVE",
"515 -49 CURVE SMOOTH",
"474 -49 OFFCURVE",
"460 -22 OFFCURVE",
"460 17 CURVE SMOOTH",
"460 90 OFFCURVE",
"525 179 OFFCURVE",
"627 246 CURVE SMOOTH",
"742 322 OFFCURVE",
"860 365 OFFCURVE",
"953 395 CURVE",
"934 444 LINE",
"835 409 OFFCURVE",
"717 362 OFFCURVE",
"618 298 CURVE SMOOTH",
"477 207 OFFCURVE",
"394 102 OFFCURVE",
"394 0 CURVE SMOOTH",
"394 -76 OFFCURVE",
"438 -114 OFFCURVE",
"506 -114 CURVE SMOOTH"
);
}
);
width = 963;
}
);
unicode = 11915;
},
{
glyphname = u11916;
lastChange = "2022-02-07 14:36:03 +0000";
layers = (
{
anchors = (
{
name = Anchor10;
position = "{724, 201}";
},
{
name = Anchor2;
position = "{476, 590}";
},
{
name = Anchor4;
position = "{270, 543}";
},
{
name = Anchor6;
position = "{455, -38}";
},
{
name = bottom;
position = "{455, -38}";
},
{
name = right2;
position = "{724, 201}";
},
{
name = top;
position = "{476, 590}";
},
{
name = topleft;
position = "{270, 543}";
}
);
layerId = UUID0;
paths = (
{
closed = 1;
nodes = (
"557 -10 OFFCURVE",
"705 105 OFFCURVE",
"705 253 CURVE SMOOTH",
"705 269 OFFCURVE",
"703 286 OFFCURVE",
"700 300 CURVE",
"647 297 LINE",
"650 276 OFFCURVE",
"651 265 OFFCURVE",
"651 252 CURVE SMOOTH",
"651 142 OFFCURVE",
"533 92 OFFCURVE",
"395 92 CURVE SMOOTH",
"222 92 OFFCURVE",
"155 147 OFFCURVE",
"155 209 CURVE",
"141 194 LINE",
"258 252 OFFCURVE",
"405 334 OFFCURVE",
"405 471 CURVE SMOOTH",
"405 544 OFFCURVE",
"353 591 OFFCURVE",
"257 591 CURVE SMOOTH",
"176 591 OFFCURVE",
"99 539 OFFCURVE",
"52 473 CURVE",
"76 450 LINE",
"137 494 OFFCURVE",
"188 517 OFFCURVE",
"252 517 CURVE SMOOTH",
"309 517 OFFCURVE",
"344 495 OFFCURVE",
"344 449 CURVE SMOOTH",
"344 375 OFFCURVE",
"245 300 OFFCURVE",
"100 241 CURVE",
"100 229 LINE SMOOTH",
"100 84 OFFCURVE",
"202 -10 OFFCURVE",
"383 -10 CURVE SMOOTH"
);
},
{
closed = 1;
nodes = (
"76 450 LINE",
"83 483 LINE",
"78 490 LINE",
"81 497 OFFCURVE",
"83 514 OFFCURVE",
"83 531 CURVE SMOOTH",
"83 591 LINE",
"26 591 LINE",
"26 450 LINE"
);
}
);
width = 745;
}
);
unicode = 11916;
},
{
glyphname = u11918;
lastChange = "2022-02-07 14:36:18 +0000";
layers = (
{
anchors = (
{
name = Anchor10;
position = "{765, 279}";
},
{
name = Anchor11;
position = "{728, 333}";
},
{
name = Anchor2;
position = "{556, 590}";
},
{
name = Anchor4;
position = "{341, 543}";
},
{
name = Anchor6;
position = "{535, -38}";
},
{
name = bottom;
position = "{535, -38}";
},
{
name = halant;
position = "{728, 333}";
},
{
name = right2;
position = "{765, 279}";
},
{
name = top;
position = "{556, 590}";
},
{
name = topleft;
position = "{341, 543}";
}
);
layerId = UUID0;
paths = (
{
closed = 1;
nodes = (
"403 -10 OFFCURVE",
"460 59 OFFCURVE",
"483 129 CURVE",
"512 44 OFFCURVE",
"564 -10 OFFCURVE",
"662 -10 CURVE SMOOTH",
"775 -10 OFFCURVE",
"846 58 OFFCURVE",
"846 178 CURVE SMOOTH",
"846 270 OFFCURVE",
"793 338 OFFCURVE",
"723 373 CURVE",
"696 329 LINE",
"766 289 OFFCURVE",
"783 240 OFFCURVE",
"783 192 CURVE SMOOTH",
"783 129 OFFCURVE",
"738 95 OFFCURVE",
"648 95 CURVE SMOOTH",
"577 95 OFFCURVE",
"517 131 OFFCURVE",
"510 204 CURVE",
"457 204 LINE",
"442 147 OFFCURVE",
"410 95 OFFCURVE",
"300 95 CURVE SMOOTH",
"242 95 OFFCURVE",
"206 119 OFFCURVE",
"206 163 CURVE SMOOTH",
"206 189 OFFCURVE",
"214 226 OFFCURVE",
"282 261 CURVE SMOOTH",
"369 306 OFFCURVE",
"461 354 OFFCURVE",
"461 455 CURVE SMOOTH",
"461 546 OFFCURVE",
"388 581 OFFCURVE",
"276 581 CURVE SMOOTH",
"266 581 LINE",
"255 490 OFFCURVE",
"223 450 OFFCURVE",
"164 450 CURVE SMOOTH",
"117 450 OFFCURVE",
"100 471 OFFCURVE",
"100 520 CURVE SMOOTH",
"100 539 OFFCURVE",
"104 556 OFFCURVE",
"110 575 CURVE",
"43 575 LINE",
"36 560 OFFCURVE",
"32 540 OFFCURVE",
"32 516 CURVE SMOOTH",
"32 432 OFFCURVE",
"83 393 OFFCURVE",
"156 393 CURVE SMOOTH",
"266 393 OFFCURVE",
"305 488 OFFCURVE",
"310 539 CURVE",
"299 527 LINE",
"347 527 OFFCURVE",
"404 510 OFFCURVE",
"404 453 CURVE SMOOTH",
"404 392 OFFCURVE",
"361 353 OFFCURVE",
"278 313 CURVE SMOOTH",
"178 265 OFFCURVE",
"140 204 OFFCURVE",
"140 141 CURVE SMOOTH",
"140 42 OFFCURVE",
"210 -10 OFFCURVE",
"302 -10 CURVE SMOOTH"
);
}
);
width = 886;
}
);
unicode = 11918;
},
{
glyphname = u11919;
lastChange = "2022-02-07 14:36:38 +0000";
layers = (
{
anchors = (
{
name = Anchor10;
position = "{749, 279}";
},
{
name = Anchor11;
position = "{712, 333}";
},
{
name = Anchor2;
position = "{556, 590}";
},
{
name = Anchor4;
position = "{260, 543}";
},
{
name = Anchor6;
position = "{535, -38}";
},
{
name = bottom;
position = "{535, -38}";
},
{
name = halant;
position = "{712, 333}";
},
{
name = right2;
position = "{749, 279}";
},
{
name = top;
position = "{556, 590}";
},
{
name = topleft;
position = "{260, 543}";
}
);
layerId = UUID0;
paths = (
{
closed = 1;
nodes = (
"387 -10 OFFCURVE",
"444 59 OFFCURVE",
"467 129 CURVE",
"496 44 OFFCURVE",
"548 -10 OFFCURVE",
"646 -10 CURVE SMOOTH",
"759 -10 OFFCURVE",
"830 58 OFFCURVE",
"830 178 CURVE SMOOTH",
"830 270 OFFCURVE",
"777 338 OFFCURVE",
"707 373 CURVE",
"680 329 LINE",
"750 289 OFFCURVE",
"767 240 OFFCURVE",
"767 192 CURVE SMOOTH",
"767 129 OFFCURVE",
"722 95 OFFCURVE",
"632 95 CURVE SMOOTH",
"561 95 OFFCURVE",
"501 131 OFFCURVE",
"494 204 CURVE",
"441 204 LINE",
"426 147 OFFCURVE",
"394 95 OFFCURVE",
"284 95 CURVE SMOOTH",
"226 95 OFFCURVE",
"190 119 OFFCURVE",
"190 163 CURVE SMOOTH",
"190 189 OFFCURVE",
"201 218 OFFCURVE",
"270 247 CURVE SMOOTH",
"359 284 OFFCURVE",
"445 320 OFFCURVE",
"445 430 CURVE SMOOTH",
"445 511 OFFCURVE",
"382 589 OFFCURVE",
"255 589 CURVE SMOOTH",
"125 589 OFFCURVE",
"40 528 OFFCURVE",
"40 450 CURVE SMOOTH",
"40 377 OFFCURVE",
"89 337 OFFCURVE",
"157 337 CURVE SMOOTH",
"221 337 OFFCURVE",
"276 367 OFFCURVE",
"276 446 CURVE SMOOTH",
"276 501 OFFCURVE",
"238 538 OFFCURVE",
"183 538 CURVE SMOOTH",
"173 538 OFFCURVE",
"157 537 OFFCURVE",
"149 535 CURVE",
"159 517 LINE",
"180 526 OFFCURVE",
"211 537 OFFCURVE",
"261 537 CURVE SMOOTH",
"329 537 OFFCURVE",
"385 489 OFFCURVE",
"385 428 CURVE SMOOTH",
"385 358 OFFCURVE",
"349 332 OFFCURVE",
"266 299 CURVE SMOOTH",
"164 259 OFFCURVE",
"124 204 OFFCURVE",
"124 141 CURVE SMOOTH",
"124 42 OFFCURVE",
"194 -10 OFFCURVE",
"286 -10 CURVE SMOOTH"
);
},
{
closed = 1;
nodes = (
"116 388 OFFCURVE",
"97 413 OFFCURVE",
"97 449 CURVE SMOOTH",
"97 484 OFFCURVE",
"123 506 OFFCURVE",
"158 506 CURVE SMOOTH",
"202 506 OFFCURVE",
"219 478 OFFCURVE",
"219 449 CURVE SMOOTH",
"219 408 OFFCURVE",
"196 388 OFFCURVE",
"159 388 CURVE SMOOTH"
);
}
);
width = 870;
}
);
unicode = 11919;
},
{
glyphname = u1191A;
lastChange = "2022-02-03 14:41:33 +0000";
layers = (
{
anchors = (
{
name = Anchor11;
position = "{738, 380}";
},
{
name = Anchor2;
position = "{446, 590}";
},
{
name = Anchor4;
position = "{350, 543}";
},
{
name = Anchor6;
position = "{425, -38}";
},
{
name = bottom;
position = "{425, -38}";
},
{
name = halant;
position = "{738, 380}";
},
{
name = top;
position = "{446, 590}";
},
{
name = topleft;
position = "{350, 543}";
}
);
layerId = UUID0;
paths = (
{
closed = 1;
nodes = (
"624 -10 OFFCURVE",
"793 171 OFFCURVE",
"793 365 CURVE SMOOTH",
"793 493 OFFCURVE",
"716 589 OFFCURVE",
"587 589 CURVE SMOOTH",
"481 589 OFFCURVE",
"434 513 OFFCURVE",
"415 436 CURVE",
"396 513 OFFCURVE",
"346 589 OFFCURVE",
"240 589 CURVE SMOOTH",
"121 589 OFFCURVE",
"43 493 OFFCURVE",
"43 374 CURVE SMOOTH",
"43 256 OFFCURVE",
"103 183 OFFCURVE",
"188 183 CURVE SMOOTH",
"263 183 OFFCURVE",
"304 231 OFFCURVE",
"304 298 CURVE SMOOTH",
"304 361 OFFCURVE",
"275 415 OFFCURVE",
"194 415 CURVE SMOOTH",
"132 415 OFFCURVE",
"94 369 OFFCURVE",
"94 324 CURVE SMOOTH",
"94 314 OFFCURVE",
"95 298 OFFCURVE",
"97 290 CURVE",
"109 300 LINE",
"103 319 OFFCURVE",
"95 346 OFFCURVE",
"95 366 CURVE SMOOTH",
"95 437 OFFCURVE",
"136 493 OFFCURVE",
"239 493 CURVE SMOOTH",
"336 493 OFFCURVE",
"379 427 OFFCURVE",
"389 346 CURVE",
"442 346 LINE",
"452 427 OFFCURVE",
"492 493 OFFCURVE",
"587 493 CURVE SMOOTH",
"663 493 OFFCURVE",
"733 454 OFFCURVE",
"733 348 CURVE SMOOTH",
"733 192 OFFCURVE",
"594 78 OFFCURVE",
"430 78 CURVE SMOOTH",
"372 78 OFFCURVE",
"330 85 OFFCURVE",
"275 100 CURVE",
"264 58 LINE",
"320 14 OFFCURVE",
"373 -10 OFFCURVE",
"463 -10 CURVE SMOOTH"
);
},
{
closed = 1;
nodes = (
"149 240 OFFCURVE",
"126 255 OFFCURVE",
"126 298 CURVE SMOOTH",
"126 332 OFFCURVE",
"155 358 OFFCURVE",
"191 358 CURVE SMOOTH",
"234 358 OFFCURVE",
"253 336 OFFCURVE",
"253 300 CURVE SMOOTH",
"253 258 OFFCURVE",
"229 240 OFFCURVE",
"191 240 CURVE SMOOTH"
);
}
);
width = 833;
}
);
unicode = 1191A;
},
{
glyphname = u1191B;
lastChange = "2022-02-07 14:37:24 +0000";
layers = (
{
anchors = (
{
name = Anchor10;
position = "{745, 183}";
},
{
name = Anchor2;
position = "{476, 590}";
},
{
name = Anchor4;
position = "{310, 543}";
},
{
name = Anchor6;
position = "{455, -276}";
},
{
name = bottom;
position = "{455, -276}";
},
{
name = right2;
position = "{745, 183}";
},
{
name = top;
position = "{476, 590}";
},
{
name = topleft;
position = "{310, 543}";
}
);
layerId = UUID0;
paths = (
{
closed = 1;
nodes = (
"487 -271 OFFCURVE",
"727 -145 OFFCURVE",
"727 122 CURVE SMOOTH",
"727 269 OFFCURVE",
"628 369 OFFCURVE",
"465 369 CURVE SMOOTH",
"249 369 OFFCURVE",
"86 273 OFFCURVE",
"86 130 CURVE SMOOTH",
"86 36 OFFCURVE",
"156 -10 OFFCURVE",
"247 -10 CURVE SMOOTH",
"385 -10 OFFCURVE",
"495 119 OFFCURVE",
"495 319 CURVE SMOOTH",
"495 496 OFFCURVE",
"405 589 OFFCURVE",
"282 589 CURVE SMOOTH",
"165 589 OFFCURVE",
"93 507 OFFCURVE",
"83 403 CURVE",
"134 395 LINE",
"148 436 OFFCURVE",
"192 502 OFFCURVE",
"279 502 CURVE SMOOTH",
"356 502 OFFCURVE",
"435 450 OFFCURVE",
"435 304 CURVE SMOOTH",
"435 147 OFFCURVE",
"349 46 OFFCURVE",
"249 46 CURVE SMOOTH",
"193 46 OFFCURVE",
"156 77 OFFCURVE",
"156 136 CURVE SMOOTH",
"156 246 OFFCURVE",
"283 315 OFFCURVE",
"469 315 CURVE SMOOTH",
"601 315 OFFCURVE",
"667 230 OFFCURVE",
"667 120 CURVE SMOOTH",
"667 -118 OFFCURVE",
"439 -180 OFFCURVE",
"281 -180 CURVE SMOOTH",
"180 -180 OFFCURVE",
"109 -166 OFFCURVE",
"54 -145 CURVE",
"40 -192 LINE",
"87 -235 OFFCURVE",
"181 -271 OFFCURVE",
"286 -271 CURVE SMOOTH"
);
}
);
width = 767;
}
);
unicode = 1191B;
},
{
glyphname = u1191C;
lastChange = "2022-02-07 14:37:55 +0000";
layers = (
{
anchors = (
{
name = Anchor10;
position = "{597, 201}";
},
{
name = Anchor11;
position = "{509, 256}";
},
{
name = Anchor2;
position = "{416, 590}";
},
{
name = Anchor3;
position = "{300, 492}";
},
{
name = Anchor4;
position = "{292, 536}";
},
{
name = Anchor6;
position = "{395, -38}";
},
{
name = bottom;
position = "{395, -38}";
},
{
name = halant;
position = "{509, 256}";
},
{
name = right2;
position = "{597, 201}";
},
{
name = top;
position = "{416, 590}";
},
{
name = topleft;
position = "{292, 536}";
},
{
name = topright;
position = "{300, 492}";
}
);
layerId = UUID0;
paths = (
{
closed = 1;
nodes = (
"506 -10 OFFCURVE",
"599 100 OFFCURVE",
"599 201 CURVE SMOOTH",
"599 250 OFFCURVE",
"575 309 OFFCURVE",
"498 309 CURVE SMOOTH",
"438 309 OFFCURVE",
"380 267 OFFCURVE",
"380 151 CURVE",
"434 151 LINE",
"434 235 OFFCURVE",
"464 259 OFFCURVE",
"499 259 CURVE SMOOTH",
"528 259 OFFCURVE",
"546 236 OFFCURVE",
"546 203 CURVE SMOOTH",
"546 158 OFFCURVE",
"515 90 OFFCURVE",
"343 90 CURVE SMOOTH",
"206 90 OFFCURVE",
"154 137 OFFCURVE",
"154 189 CURVE",
"140 164 LINE",
"257 232 OFFCURVE",
"399 328 OFFCURVE",
"399 459 CURVE SMOOTH",
"399 536 OFFCURVE",
"356 581 OFFCURVE",
"270 581 CURVE SMOOTH",
"190 581 OFFCURVE",
"113 529 OFFCURVE",
"66 463 CURVE",
"90 440 LINE",
"151 484 OFFCURVE",
"202 507 OFFCURVE",
"259 507 CURVE SMOOTH",
"312 507 OFFCURVE",
"337 487 OFFCURVE",
"337 448 CURVE SMOOTH",
"337 369 OFFCURVE",
"244 280 OFFCURVE",
"99 211 CURVE",
"99 199 LINE SMOOTH",
"99 84 OFFCURVE",
"181 -10 OFFCURVE",
"326 -10 CURVE SMOOTH"
);
},
{
closed = 1;
nodes = (
"90 440 LINE",
"97 473 LINE",
"92 480 LINE",
"95 487 OFFCURVE",
"97 504 OFFCURVE",
"97 521 CURVE SMOOTH",
"97 581 LINE",
"40 581 LINE",
"40 440 LINE"
);
}
);
width = 639;
}
);
unicode = 1191C;
},
{
glyphname = u1191D;
lastChange = "2022-02-03 14:45:16 +0000";
layers = (
{
anchors = (
{
name = Anchor11;
position = "{385, 383}";
},
{
name = Anchor2;
position = "{296, 590}";
},
{
name = Anchor3;
position = "{319, 495}";
},
{
name = Anchor4;
position = "{252, 546}";
},
{
name = Anchor6;
position = "{275, -38}";
},
{
name = bottom;
position = "{275, -38}";
},
{
name = halant;
position = "{385, 383}";
},
{
name = top;
position = "{296, 590}";
},
{
name = topleft;
position = "{252, 546}";
},
{
name = topright;
position = "{319, 495}";
}
);
layerId = UUID0;
paths = (
{
closed = 1;
nodes = (
"410 -11 OFFCURVE",
"506 74 OFFCURVE",
"506 161 CURVE SMOOTH",
"506 265 OFFCURVE",
"425 286 OFFCURVE",
"267 291 CURVE SMOOTH",
"210 293 OFFCURVE",
"185 302 OFFCURVE",
"185 327 CURVE SMOOTH",
"185 360 OFFCURVE",
"227 365 OFFCURVE",
"310 368 CURVE SMOOTH",
"415 372 OFFCURVE",
"502 394 OFFCURVE",
"502 479 CURVE SMOOTH",
"502 550 OFFCURVE",
"422 589 OFFCURVE",
"252 589 CURVE SMOOTH",
"177 589 OFFCURVE",
"106 580 OFFCURVE",
"67 568 CURVE",
"83 520 LINE",
"127 529 OFFCURVE",
"178 537 OFFCURVE",
"259 537 CURVE SMOOTH",
"337 537 OFFCURVE",
"402 527 OFFCURVE",
"402 476 CURVE SMOOTH",
"402 432 OFFCURVE",
"369 422 OFFCURVE",
"274 416 CURVE SMOOTH",
"210 412 OFFCURVE",
"128 398 OFFCURVE",
"128 321 CURVE SMOOTH",
"128 247 OFFCURVE",
"206 242 OFFCURVE",
"278 240 CURVE SMOOTH",
"344 238 OFFCURVE",
"404 223 OFFCURVE",
"404 162 CURVE SMOOTH",
"404 89 OFFCURVE",
"340 45 OFFCURVE",
"205 45 CURVE SMOOTH",
"153 45 OFFCURVE",
"113 51 OFFCURVE",
"47 63 CURVE",
"36 11 LINE",
"94 -5 OFFCURVE",
"150 -11 OFFCURVE",
"218 -11 CURVE SMOOTH"
);
}
);
width = 556;
}
);
unicode = 1191D;
},
{
glyphname = u1191E;
lastChange = "2022-02-03 14:45:22 +0000";
layers = (
{
anchors = (
{
name = Anchor2;
position = "{596, 590}";
},
{
name = Anchor4;
position = "{262, 536}";
},
{
name = Anchor6;
position = "{575, -38}";
},
{
name = bottom;
position = "{575, -38}";
},
{
name = top;
position = "{596, 590}";
},
{
name = topleft;
position = "{262, 536}";
}
);
layerId = UUID0;
paths = (
{
closed = 1;
nodes = (
"559 -10 OFFCURVE",
"664 113 OFFCURVE",
"664 214 CURVE SMOOTH",
"664 282 OFFCURVE",
"623 334 OFFCURVE",
"548 334 CURVE SMOOTH",
"494 334 OFFCURVE",
"435 295 OFFCURVE",
"435 207 CURVE SMOOTH",
"435 115 OFFCURVE",
"539 -10 OFFCURVE",
"682 -10 CURVE SMOOTH",
"843 -10 OFFCURVE",
"909 105 OFFCURVE",
"909 247 CURVE SMOOTH",
"909 305 OFFCURVE",
"898 354 OFFCURVE",
"880 389 CURVE",
"834 378 LINE",
"846 335 OFFCURVE",
"852 295 OFFCURVE",
"852 254 CURVE SMOOTH",
"852 127 OFFCURVE",
"786 82 OFFCURVE",
"667 82 CURVE SMOOTH",
"566 82 OFFCURVE",
"488 125 OFFCURVE",
"488 206 CURVE SMOOTH",
"488 251 OFFCURVE",
"509 276 OFFCURVE",
"547 276 CURVE SMOOTH",
"581 276 OFFCURVE",
"603 251 OFFCURVE",
"603 212 CURVE SMOOTH",
"603 137 OFFCURVE",
"544 85 OFFCURVE",
"401 85 CURVE SMOOTH",
"309 85 OFFCURVE",
"259 108 OFFCURVE",
"259 165 CURVE SMOOTH",
"259 217 OFFCURVE",
"295 258 OFFCURVE",
"342 301 CURVE SMOOTH",
"389 344 OFFCURVE",
"435 387 OFFCURVE",
"435 461 CURVE SMOOTH",
"435 534 OFFCURVE",
"376 589 OFFCURVE",
"255 589 CURVE SMOOTH",
"125 589 OFFCURVE",
"40 528 OFFCURVE",
"40 450 CURVE SMOOTH",
"40 377 OFFCURVE",
"89 337 OFFCURVE",
"157 337 CURVE SMOOTH",
"221 337 OFFCURVE",
"276 367 OFFCURVE",
"276 446 CURVE SMOOTH",
"276 501 OFFCURVE",
"238 538 OFFCURVE",
"183 538 CURVE SMOOTH",
"173 538 OFFCURVE",
"157 537 OFFCURVE",
"149 535 CURVE",
"159 517 LINE",
"180 526 OFFCURVE",
"211 537 OFFCURVE",
"261 537 CURVE SMOOTH",
"323 537 OFFCURVE",
"375 512 OFFCURVE",
"375 459 CURVE SMOOTH",
"375 396 OFFCURVE",
"335 359 OFFCURVE",
"293 321 CURVE SMOOTH",
"243 275 OFFCURVE",
"193 228 OFFCURVE",
"193 149 CURVE SMOOTH",
"193 24 OFFCURVE",
"294 -10 OFFCURVE",
"390 -10 CURVE SMOOTH"
);
},
{
closed = 1;
nodes = (
"116 388 OFFCURVE",
"97 413 OFFCURVE",
"97 449 CURVE SMOOTH",
"97 484 OFFCURVE",
"123 506 OFFCURVE",
"158 506 CURVE SMOOTH",
"202 506 OFFCURVE",
"219 478 OFFCURVE",
"219 449 CURVE SMOOTH",
"219 408 OFFCURVE",
"196 388 OFFCURVE",
"159 388 CURVE SMOOTH"
);
}
);
width = 949;
}
);
unicode = 1191E;
},
{
glyphname = u1191F;
lastChange = "2022-02-03 14:41:55 +0000";
layers = (
{
anchors = (
{
name = Anchor11;
position = "{728, 380}";
},
{
name = Anchor2;
position = "{416, 590}";
},
{
name = Anchor3;
position = "{589, 494}";
},
{
name = Anchor4;
position = "{330, 543}";
},
{
name = Anchor6;
position = "{415, -38}";
},
{
name = bottom;
position = "{415, -38}";
},
{
name = halant;
position = "{728, 380}";
},
{
name = medra;
position = "{718, 489}";
},
{
name = top;
position = "{416, 590}";
},
{
name = topleft;
position = "{330, 543}";
},
{
name = topright;
position = "{589, 494}";
}
);
layerId = UUID0;
paths = (
{
closed = 1;
nodes = (
"625 -6 OFFCURVE",
"783 165 OFFCURVE",
"783 365 CURVE SMOOTH",
"783 493 OFFCURVE",
"706 589 OFFCURVE",
"577 589 CURVE SMOOTH",
"471 589 OFFCURVE",
"424 513 OFFCURVE",
"405 436 CURVE",
"386 513 OFFCURVE",
"336 589 OFFCURVE",
"240 589 CURVE SMOOTH",
"111 589 OFFCURVE",
"35 493 OFFCURVE",
"35 369 CURVE SMOOTH",
"35 316 OFFCURVE",
"53 277 OFFCURVE",
"70 251 CURVE",
"116 264 LINE",
"105 289 OFFCURVE",
"96 319 OFFCURVE",
"96 351 CURVE SMOOTH",
"96 454 OFFCURVE",
"165 493 OFFCURVE",
"241 493 CURVE SMOOTH",
"326 493 OFFCURVE",
"369 427 OFFCURVE",
"379 346 CURVE",
"432 346 LINE",
"442 427 OFFCURVE",
"482 493 OFFCURVE",
"577 493 CURVE SMOOTH",
"653 493 OFFCURVE",
"723 454 OFFCURVE",
"723 348 CURVE SMOOTH",
"723 197 OFFCURVE",
"576 82 OFFCURVE",
"415 82 CURVE SMOOTH",
"354 82 OFFCURVE",
"303 93 OFFCURVE",
"265 105 CURVE",
"246 52 LINE",
"292 15 OFFCURVE",
"361 -6 OFFCURVE",
"431 -6 CURVE SMOOTH"
);
}
);
width = 823;
}
);
unicode = 1191F;
},
{
glyphname = u11920;
lastChange = "2022-02-03 14:45:31 +0000";
layers = (
{
anchors = (
{
name = Anchor11;
position = "{773, 380}";
},
{
name = Anchor2;
position = "{566, 590}";
},
{
name = Anchor4;
position = "{262, 536}";
},
{
name = Anchor6;
position = "{545, -38}";
},
{
name = bottom;
position = "{545, -38}";
},
{
name = halant;
position = "{773, 380}";
},
{
name = top;
position = "{566, 590}";
},
{
name = topleft;
position = "{262, 536}";
}
);
layerId = UUID0;
paths = (
{
closed = 1;
nodes = (
"657 -10 OFFCURVE",
"818 142 OFFCURVE",
"818 336 CURVE SMOOTH",
"818 363 OFFCURVE",
"816 390 OFFCURVE",
"813 410 CURVE",
"760 407 LINE",
"763 386 OFFCURVE",
"764 361 OFFCURVE",
"764 345 CURVE SMOOTH",
"764 179 OFFCURVE",
"633 92 OFFCURVE",
"442 92 CURVE SMOOTH",
"285 92 OFFCURVE",
"198 142 OFFCURVE",
"198 207 CURVE",
"184 192 LINE",
"353 233 OFFCURVE",
"434 337 OFFCURVE",
"434 434 CURVE SMOOTH",
"434 514 OFFCURVE",
"381 589 OFFCURVE",
"255 589 CURVE SMOOTH",
"125 589 OFFCURVE",
"40 528 OFFCURVE",
"40 450 CURVE SMOOTH",
"40 377 OFFCURVE",
"89 337 OFFCURVE",
"157 337 CURVE SMOOTH",
"221 337 OFFCURVE",
"276 367 OFFCURVE",
"276 446 CURVE SMOOTH",
"276 501 OFFCURVE",
"238 538 OFFCURVE",
"183 538 CURVE SMOOTH",
"173 538 OFFCURVE",
"157 537 OFFCURVE",
"149 535 CURVE",
"159 517 LINE",
"180 526 OFFCURVE",
"211 537 OFFCURVE",
"253 537 CURVE SMOOTH",
"328 537 OFFCURVE",
"374 492 OFFCURVE",
"374 432 CURVE SMOOTH",
"374 377 OFFCURVE",
"342 279 OFFCURVE",
"143 239 CURVE",
"143 227 LINE SMOOTH",
"143 79 OFFCURVE",
"265 -10 OFFCURVE",
"430 -10 CURVE SMOOTH"
);
},
{
closed = 1;
nodes = (
"116 388 OFFCURVE",
"97 413 OFFCURVE",
"97 449 CURVE SMOOTH",
"97 484 OFFCURVE",
"123 506 OFFCURVE",
"158 506 CURVE SMOOTH",
"202 506 OFFCURVE",
"219 478 OFFCURVE",
"219 449 CURVE SMOOTH",
"219 408 OFFCURVE",
"196 388 OFFCURVE",
"159 388 CURVE SMOOTH"
);
}
);
width = 858;
}
);
unicode = 11920;
},
{
glyphname = u11921;
lastChange = "2022-02-07 13:33:11 +0000";
layers = (
{
anchors = (
{
name = Anchor11;
position = "{762, 382}";
},
{
name = Anchor2;
position = "{606, 590}";
},
{
name = Anchor3;
position = "{737, 343}";
},
{
name = Anchor4;
position = "{252, 536}";
},
{
name = Anchor6;
position = "{585, -277}";
},
{
name = bottom;
position = "{585, -277}";
},
{
name = halant;
position = "{762, 382}";
},
{
name = top;
position = "{606, 590}";
},
{
name = topleft;
position = "{252, 536}";
},
{
name = topright;
position = "{737, 343}";
}
);
layerId = UUID0;
paths = (
{
closed = 1;
nodes = (
"677 -10 OFFCURVE",
"818 142 OFFCURVE",
"818 324 CURVE SMOOTH",
"818 351 OFFCURVE",
"814 382 OFFCURVE",
"796 409 CURVE",
"749 409 LINE",
"759 382 OFFCURVE",
"764 353 OFFCURVE",
"764 328 CURVE SMOOTH",
"764 179 OFFCURVE",
"653 92 OFFCURVE",
"442 92 CURVE SMOOTH",
"285 92 OFFCURVE",
"198 142 OFFCURVE",
"198 207 CURVE",
"184 192 LINE",
"353 233 OFFCURVE",
"434 337 OFFCURVE",
"434 434 CURVE SMOOTH",
"434 514 OFFCURVE",
"381 589 OFFCURVE",
"255 589 CURVE SMOOTH",
"125 589 OFFCURVE",
"40 528 OFFCURVE",
"40 450 CURVE SMOOTH",
"40 377 OFFCURVE",
"89 337 OFFCURVE",
"157 337 CURVE SMOOTH",
"221 337 OFFCURVE",
"276 367 OFFCURVE",
"276 446 CURVE SMOOTH",
"276 501 OFFCURVE",
"238 538 OFFCURVE",
"183 538 CURVE SMOOTH",
"173 538 OFFCURVE",
"157 537 OFFCURVE",
"149 535 CURVE",
"159 517 LINE",
"180 526 OFFCURVE",
"211 537 OFFCURVE",
"253 537 CURVE SMOOTH",
"328 537 OFFCURVE",
"374 492 OFFCURVE",
"374 432 CURVE SMOOTH",
"374 377 OFFCURVE",
"342 279 OFFCURVE",
"143 239 CURVE",
"143 227 LINE SMOOTH",
"143 79 OFFCURVE",
"265 -10 OFFCURVE",
"430 -10 CURVE SMOOTH"
);
},
{
closed = 1;
nodes = (
"116 388 OFFCURVE",
"97 413 OFFCURVE",
"97 449 CURVE SMOOTH",
"97 484 OFFCURVE",
"123 506 OFFCURVE",
"158 506 CURVE SMOOTH",
"202 506 OFFCURVE",
"219 478 OFFCURVE",
"219 449 CURVE SMOOTH",
"219 408 OFFCURVE",
"196 388 OFFCURVE",
"159 388 CURVE SMOOTH"
);
},
{
closed = 1;
nodes = (
"835 -257 OFFCURVE",
"985 -65 OFFCURVE",
"985 139 CURVE SMOOTH",
"985 271 OFFCURVE",
"914 367 OFFCURVE",
"796 409 CURVE",
"763 371 LINE",
"878 323 OFFCURVE",
"925 247 OFFCURVE",
"925 152 CURVE SMOOTH",
"925 29 OFFCURVE",
"824 -171 OFFCURVE",
"522 -171 CURVE SMOOTH",
"464 -171 OFFCURVE",
"404 -166 OFFCURVE",
"346 -150 CURVE",
"338 -194 LINE",
"402 -237 OFFCURVE",
"484 -257 OFFCURVE",
"584 -257 CURVE SMOOTH"
);
}
);
width = 1030;
}
);
unicode = 11921;
},
{
glyphname = u11922;
lastChange = "2022-02-07 14:38:24 +0000";
layers = (
{
anchors = (
{
name = Anchor10;
position = "{618, 406}";
},
{
name = Anchor2;
position = "{496, 590}";
},
{
name = Anchor3;
position = "{547, 437}";
},
{
name = Anchor4;
position = "{246, 536}";
},
{
name = Anchor6;
position = "{475, -38}";
},
{
name = bottom;
position = "{475, -38}";
},
{
name = right2;
position = "{618, 406}";
},
{
name = top;
position = "{496, 590}";
},
{
name = topleft;
position = "{242, 536}";
},
{
name = topright;
position = "{547, 437}";
}
);
layerId = UUID0;
paths = (
{
closed = 1;
nodes = (
"536 -10 OFFCURVE",
"705 186 OFFCURVE",
"705 344 CURVE SMOOTH",
"705 436 OFFCURVE",
"643 489 OFFCURVE",
"559 503 CURVE",
"549 456 LINE",
"603 441 OFFCURVE",
"657 414 OFFCURVE",
"657 347 CURVE SMOOTH",
"657 240 OFFCURVE",
"516 92 OFFCURVE",
"340 92 CURVE SMOOTH",
"237 92 OFFCURVE",
"204 132 OFFCURVE",
"199 173 CURVE",
"358 235 OFFCURVE",
"434 340 OFFCURVE",
"434 434 CURVE SMOOTH",
"434 514 OFFCURVE",
"381 589 OFFCURVE",
"255 589 CURVE SMOOTH",
"125 589 OFFCURVE",
"40 528 OFFCURVE",
"40 450 CURVE SMOOTH",
"40 377 OFFCURVE",
"89 337 OFFCURVE",
"157 337 CURVE SMOOTH",
"221 337 OFFCURVE",
"276 367 OFFCURVE",
"276 446 CURVE SMOOTH",
"276 501 OFFCURVE",
"238 538 OFFCURVE",
"183 538 CURVE SMOOTH",
"173 538 OFFCURVE",
"157 537 OFFCURVE",
"149 535 CURVE",
"159 517 LINE",
"180 526 OFFCURVE",
"211 537 OFFCURVE",
"253 537 CURVE SMOOTH",
"328 537 OFFCURVE",
"374 492 OFFCURVE",
"374 432 CURVE SMOOTH",
"374 377 OFFCURVE",
"342 275 OFFCURVE",
"143 215 CURVE",
"143 203 LINE SMOOTH",
"143 75 OFFCURVE",
"219 -10 OFFCURVE",
"340 -10 CURVE SMOOTH"
);
},
{
closed = 1;
nodes = (
"116 388 OFFCURVE",
"97 413 OFFCURVE",
"97 449 CURVE SMOOTH",
"97 484 OFFCURVE",
"123 506 OFFCURVE",
"158 506 CURVE SMOOTH",
"202 506 OFFCURVE",
"219 478 OFFCURVE",
"219 449 CURVE SMOOTH",
"219 408 OFFCURVE",
"196 388 OFFCURVE",
"159 388 CURVE SMOOTH"
);
}
);
width = 745;
}
);
unicode = 11922;
},
{
glyphname = u11923;
lastChange = "2022-02-07 14:38:45 +0000";
layers = (
{
anchors = (
{
name = Anchor10;
position = "{843, 301}";
},
{
name = Anchor11;
position = "{699, 356}";
},
{
name = Anchor2;
position = "{596, 590}";
},
{
name = Anchor3;
position = "{669, 312}";
},
{
name = Anchor4;
position = "{242, 536}";
},
{
name = Anchor6;
position = "{575, -277}";
},
{
name = bottom;
position = "{575, -276}";
},
{
name = halant;
position = "{699, 356}";
},
{
name = right2;
position = "{843, 301}";
},
{
name = top;
position = "{596, 590}";
},
{
name = topleft;
position = "{242, 537}";
},
{
name = topright;
position = "{669, 312}";
}
);
layerId = UUID0;
paths = (
{
closed = 1;
nodes = (
"699 -257 OFFCURVE",
"866 -16 OFFCURVE",
"866 244 CURVE SMOOTH",
"866 339 OFFCURVE",
"829 409 OFFCURVE",
"747 409 CURVE SMOOTH",
"690 409 OFFCURVE",
"665 363 OFFCURVE",
"634 297 CURVE SMOOTH",
"568 156 OFFCURVE",
"483 92 OFFCURVE",
"353 92 CURVE SMOOTH",
"244 92 OFFCURVE",
"204 132 OFFCURVE",
"199 173 CURVE",
"358 235 OFFCURVE",
"434 340 OFFCURVE",
"434 434 CURVE SMOOTH",
"434 514 OFFCURVE",
"381 589 OFFCURVE",
"255 589 CURVE SMOOTH",
"125 589 OFFCURVE",
"40 528 OFFCURVE",
"40 450 CURVE SMOOTH",
"40 377 OFFCURVE",
"89 337 OFFCURVE",
"157 337 CURVE SMOOTH",
"221 337 OFFCURVE",
"276 367 OFFCURVE",
"276 446 CURVE SMOOTH",
"276 501 OFFCURVE",
"238 538 OFFCURVE",
"183 538 CURVE SMOOTH",
"173 538 OFFCURVE",
"157 537 OFFCURVE",
"149 535 CURVE",
"159 517 LINE",
"180 526 OFFCURVE",
"211 537 OFFCURVE",
"253 537 CURVE SMOOTH",
"328 537 OFFCURVE",
"374 492 OFFCURVE",
"374 432 CURVE SMOOTH",
"374 377 OFFCURVE",
"342 275 OFFCURVE",
"143 215 CURVE",
"143 203 LINE SMOOTH",
"143 75 OFFCURVE",
"216 -10 OFFCURVE",
"341 -10 CURVE SMOOTH",
"516 -10 OFFCURVE",
"602 108 OFFCURVE",
"662 239 CURVE SMOOTH",
"697 316 OFFCURVE",
"713 350 OFFCURVE",
"745 350 CURVE SMOOTH",
"776 350 OFFCURVE",
"806 315 OFFCURVE",
"806 237 CURVE SMOOTH",
"806 77 OFFCURVE",
"704 -171 OFFCURVE",
"372 -171 CURVE SMOOTH",
"314 -171 OFFCURVE",
"254 -166 OFFCURVE",
"176 -150 CURVE",
"168 -197 LINE",
"234 -234 OFFCURVE",
"308 -257 OFFCURVE",
"404 -257 CURVE SMOOTH"
);
},
{
closed = 1;
nodes = (
"116 388 OFFCURVE",
"97 413 OFFCURVE",
"97 449 CURVE SMOOTH",
"97 484 OFFCURVE",
"123 506 OFFCURVE",
"158 506 CURVE SMOOTH",
"202 506 OFFCURVE",
"219 478 OFFCURVE",
"219 449 CURVE SMOOTH",
"219 408 OFFCURVE",
"196 388 OFFCURVE",
"159 388 CURVE SMOOTH"
);
}
);
width = 911;
}
);
unicode = 11923;
},
{
glyphname = u11924;
lastChange = "2022-02-07 14:39:05 +0000";
layers = (
{
anchors = (
{
name = Anchor10;
position = "{622, 201}";
},
{
name = Anchor11;
position = "{437, 250}";
},
{
name = Anchor2;
position = "{486, 590}";
},
{
name = Anchor3;
position = "{325, 493}";
},
{
name = Anchor4;
position = "{262, 536}";
},
{
name = Anchor6;
position = "{382, -38}";
},
{
name = Anchor9;
position = "{658, 300}";
},
{
name = bottom;
position = "{382, -38}";
},
{
name = halant;
position = "{437, 250}";
},
{
name = right;
position = "{658, 300}";
},
{
name = right2;
position = "{622, 201}";
},
{
name = top;
position = "{486, 590}";
},
{
name = topleft;
position = "{262, 537}";
},
{
name = topright;
position = "{325, 493}";
}
);
layerId = UUID0;
paths = (
{
closed = 1;
nodes = (
"568 -10 OFFCURVE",
"642 98 OFFCURVE",
"642 188 CURVE SMOOTH",
"642 244 OFFCURVE",
"611 309 OFFCURVE",
"526 309 CURVE SMOOTH",
"491 309 OFFCURVE",
"454 295 OFFCURVE",
"424 277 CURVE",
"449 233 LINE",
"478 248 OFFCURVE",
"499 255 OFFCURVE",
"524 255 CURVE SMOOTH",
"562 255 OFFCURVE",
"589 232 OFFCURVE",
"589 196 CURVE SMOOTH",
"589 140 OFFCURVE",
"532 92 OFFCURVE",
"400 92 CURVE SMOOTH",
"282 92 OFFCURVE",
"221 137 OFFCURVE",
"221 185 CURVE SMOOTH",
"221 215 OFFCURVE",
"236 244 OFFCURVE",
"292 280 CURVE SMOOTH",
"363 326 OFFCURVE",
"436 381 OFFCURVE",
"436 461 CURVE SMOOTH",
"436 534 OFFCURVE",
"376 589 OFFCURVE",
"255 589 CURVE SMOOTH",
"125 589 OFFCURVE",
"40 528 OFFCURVE",
"40 450 CURVE SMOOTH",
"40 377 OFFCURVE",
"89 337 OFFCURVE",
"157 337 CURVE SMOOTH",
"221 337 OFFCURVE",
"276 367 OFFCURVE",
"276 446 CURVE SMOOTH",
"276 501 OFFCURVE",
"238 538 OFFCURVE",
"183 538 CURVE SMOOTH",
"173 538 OFFCURVE",
"157 537 OFFCURVE",
"149 535 CURVE",
"159 517 LINE",
"180 526 OFFCURVE",
"211 537 OFFCURVE",
"261 537 CURVE SMOOTH",
"323 537 OFFCURVE",
"376 512 OFFCURVE",
"376 459 CURVE SMOOTH",
"376 409 OFFCURVE",
"351 377 OFFCURVE",
"286 334 CURVE SMOOTH",
"186 268 OFFCURVE",
"155 229 OFFCURVE",
"155 162 CURVE SMOOTH",
"155 62 OFFCURVE",
"248 -10 OFFCURVE",
"388 -10 CURVE SMOOTH"
);
},
{
closed = 1;
nodes = (
"116 388 OFFCURVE",
"97 413 OFFCURVE",
"97 449 CURVE SMOOTH",
"97 484 OFFCURVE",
"123 506 OFFCURVE",
"158 506 CURVE SMOOTH",
"202 506 OFFCURVE",
"219 478 OFFCURVE",
"219 449 CURVE SMOOTH",
"219 408 OFFCURVE",
"196 388 OFFCURVE",
"159 388 CURVE SMOOTH"
);
}
);
width = 692;
}
);
unicode = 11924;
},
{
glyphname = u11925;
lastChange = "2022-02-07 14:40:12 +0000";
layers = (
{
anchors = (
{
name = Anchor10;
position = "{827, 285}";
},
{
name = Anchor2;
position = "{436, 590}";
},
{
name = Anchor4;
position = "{292, 536}";
},
{
name = Anchor6;
position = "{415, -38}";
},
{
name = bottom;
position = "{415, -38}";
},
{
name = right2;
position = "{827, 285}";
},
{
name = top;
position = "{436, 590}";
},
{
name = topleft;
position = "{292, 537}";
}
);
layerId = UUID0;
paths = (
{
closed = 1;
nodes = (
"373 -10 OFFCURVE",
"497 151 OFFCURVE",
"497 355 CURVE SMOOTH",
"497 505 OFFCURVE",
"403 588 OFFCURVE",
"245 588 CURVE SMOOTH",
"160 588 OFFCURVE",
"76 569 OFFCURVE",
"8 546 CURVE",
"35 476 LINE",
"109 503 OFFCURVE",
"175 515 OFFCURVE",
"239 515 CURVE SMOOTH",
"358 515 OFFCURVE",
"434 484 OFFCURVE",
"434 352 CURVE SMOOTH",
"434 175 OFFCURVE",
"341 56 OFFCURVE",
"224 56 CURVE SMOOTH",
"168 56 OFFCURVE",
"131 80 OFFCURVE",
"131 134 CURVE SMOOTH",
"131 184 OFFCURVE",
"160 214 OFFCURVE",
"217 214 CURVE SMOOTH",
"334 214 OFFCURVE",
"403 -7 OFFCURVE",
"564 -7 CURVE SMOOTH",
"689 -7 OFFCURVE",
"777 110 OFFCURVE",
"777 250 CURVE SMOOTH",
"777 308 OFFCURVE",
"766 357 OFFCURVE",
"748 392 CURVE",
"685 381 LINE",
"697 338 OFFCURVE",
"703 298 OFFCURVE",
"703 257 CURVE SMOOTH",
"703 142 OFFCURVE",
"656 67 OFFCURVE",
"570 67 CURVE SMOOTH",
"440 67 OFFCURVE",
"364 268 OFFCURVE",
"215 268 CURVE SMOOTH",
"120 268 OFFCURVE",
"63 210 OFFCURVE",
"63 126 CURVE SMOOTH",
"63 35 OFFCURVE",
"135 -10 OFFCURVE",
"217 -10 CURVE SMOOTH"
);
}
);
width = 817;
}
);
unicode = 11925;
},
{
glyphname = u11940;
lastChange = "2022-02-03 13:25:28 +0000";
layers = (
{
anchors = (
{
name = Anchor2;
position = "{276, 590}";
},
{
name = Anchor3;
position = "{354, 495}";
},
{
name = Anchor4;
position = "{152, 495}";
},
{
name = Anchor6;
position = "{295, -138}";
},
{
name = Anchor9;
position = "{619, 300}";
},
{
name = _medya;
position = "{-109, 488}";
},
{
name = bottom;
position = "{295, -138}";
},
{
name = right;
position = "{619, 300}";
},
{
name = top;
position = "{276, 590}";
},
{
name = topleft;
position = "{152, 495}";
},
{
name = topright;
position = "{354, 495}";
}
);
layerId = UUID0;
paths = (
{
closed = 1;
nodes = (
"240 47 OFFCURVE",
"352 198 OFFCURVE",
"352 348 CURVE SMOOTH",
"352 511 OFFCURVE",
"222 534 OFFCURVE",
"94 534 CURVE SMOOTH",
"15 534 OFFCURVE",
"-36 526 OFFCURVE",
"-100 512 CURVE",
"-83 471 LINE",
"-28 480 OFFCURVE",
"25 484 OFFCURVE",
"79 484 CURVE SMOOTH",
"202 484 OFFCURVE",
"282 463 OFFCURVE",
"282 340 CURVE SMOOTH",
"282 209 OFFCURVE",
"193 77 OFFCURVE",
"11 -46 CURVE",
"51 -73 LINE"
);
},
{
closed = 1;
nodes = (
"351 -87 OFFCURVE",
"581 99 OFFCURVE",
"581 304 CURVE SMOOTH",
"581 343 OFFCURVE",
"569 373 OFFCURVE",
"556 396 CURVE",
"506 386 LINE",
"511 359 OFFCURVE",
"514 337 OFFCURVE",
"514 314 CURVE SMOOTH",
"514 64 OFFCURVE",
"245 -46 OFFCURVE",
"11 -46 CURVE",
"11 -87 LINE"
);
}
);
width = 621;
}
);
unicode = 11940;
script = divesakuru;
category = Mark;
subCategory = Spacing;
},
{
glyphname = u11926;
lastChange = "2022-02-03 13:25:39 +0000";
layers = (
{
anchors = (
{
name = Anchor11;
position = "{714, 350}";
},
{
name = Anchor2;
position = "{436, 590}";
},
{
name = Anchor4;
position = "{432, 316}";
},
{
name = Anchor6;
position = "{415, -38}";
},
{
name = bottom;
position = "{415, -38}";
},
{
name = halant;
position = "{714, 350}";
},
{
name = top;
position = "{436, 590}";
},
{
name = topleft;
position = "{432, 316}";
}
);
layerId = UUID0;
paths = (
{
closed = 1;
nodes = (
"428 -10 OFFCURVE",
"525 141 OFFCURVE",
"525 243 CURVE SMOOTH",
"525 312 OFFCURVE",
"482 364 OFFCURVE",
"405 364 CURVE SMOOTH",
"349 364 OFFCURVE",
"289 324 OFFCURVE",
"289 235 CURVE SMOOTH",
"289 137 OFFCURVE",
"404 -10 OFFCURVE",
"549 -10 CURVE SMOOTH",
"710 -10 OFFCURVE",
"776 105 OFFCURVE",
"776 247 CURVE SMOOTH",
"776 305 OFFCURVE",
"765 354 OFFCURVE",
"747 389 CURVE",
"701 378 LINE",
"713 335 OFFCURVE",
"719 295 OFFCURVE",
"719 254 CURVE SMOOTH",
"719 127 OFFCURVE",
"653 83 OFFCURVE",
"534 83 CURVE SMOOTH",
"430 83 OFFCURVE",
"343 151 OFFCURVE",
"343 233 CURVE SMOOTH",
"343 280 OFFCURVE",
"365 304 OFFCURVE",
"404 304 CURVE SMOOTH",
"439 304 OFFCURVE",
"463 280 OFFCURVE",
"463 239 CURVE SMOOTH",
"463 167 OFFCURVE",
"411 86 OFFCURVE",
"268 86 CURVE SMOOTH",
"161 86 OFFCURVE",
"97 127 OFFCURVE",
"97 254 CURVE SMOOTH",
"97 295 OFFCURVE",
"103 335 OFFCURVE",
"115 378 CURVE",
"69 389 LINE",
"51 354 OFFCURVE",
"40 305 OFFCURVE",
"40 247 CURVE SMOOTH",
"40 105 OFFCURVE",
"104 -10 OFFCURVE",
"257 -10 CURVE SMOOTH"
);
}
);
width = 816;
}
);
unicode = 11926;
},
{
glyphname = u11927;
lastChange = "2022-02-07 14:56:37 +0000";
layers = (
{
anchors = (
{
name = Anchor11;
position = "{312, 373}";
},
{
name = Anchor2;
position = "{250, 590}";
},
{
name = Anchor3;
position = "{182, 383}";
},
{
name = Anchor4;
position = "{182, 467}";
},
{
name = Anchor6;
position = "{229, -38}";
},
{
name = bottom;
position = "{229, -38}";
},
{
name = halant;
position = "{312, 373}";
},
{
name = top;
position = "{250, 590}";
},
{
name = topleft;
position = "{182, 467}";
},
{
name = topright;
position = "{185, 383}";
}
);
layerId = UUID0;
paths = (
{
closed = 1;
nodes = (
"324 -11 OFFCURVE",
"365 42 OFFCURVE",
"365 156 CURVE SMOOTH",
"365 318 LINE SMOOTH",
"365 411 OFFCURVE",
"350 428 OFFCURVE",
"270 454 CURVE SMOOTH",
"19 535 LINE",
"3 474 LINE",
"251 395 LINE SMOOTH",
"297 380 OFFCURVE",
"303 370 OFFCURVE",
"303 316 CURVE SMOOTH",
"303 171 LINE SMOOTH",
"303 96 OFFCURVE",
"300 48 OFFCURVE",
"230 48 CURVE SMOOTH",
"168 48 OFFCURVE",
"159 96 OFFCURVE",
"159 171 CURVE SMOOTH",
"159 455 LINE",
"103 455 LINE",
"103 156 LINE SMOOTH",
"103 42 OFFCURVE",
"144 -11 OFFCURVE",
"230 -11 CURVE SMOOTH"
);
}
);
width = 455;
}
);
unicode = 11927;
},
{
glyphname = u11942;
lastChange = "2022-02-07 13:13:40 +0000";
layers = (
{
anchors = (
{
name = Anchor2;
position = "{-58, 653}";
},
{
name = Anchor3;
position = "{-52, 422}";
},
{
name = Anchor4;
position = "{-52, 467}";
},
{
name = Anchor6;
position = "{-235, -328}";
},
{
name = Anchor9;
position = "{199, 300}";
},
{
name = bottom;
position = "{-235, -328}";
},
{
name = right;
position = "{199, 300}";
},
{
name = top;
position = "{-58, 653}";
},
{
name = topleft;
position = "{-52, 467}";
},
{
name = topright;
position = "{-52, 422}";
}
);
layerId = UUID0;
paths = (
{
closed = 1;
nodes = (
"-77 -401 OFFCURVE",
"149 -82 OFFCURVE",
"149 195 CURVE SMOOTH",
"149 386 OFFCURVE",
"53 506 OFFCURVE",
"-133 506 CURVE",
"-129 452 LINE",
"26 452 OFFCURVE",
"89 347 OFFCURVE",
"89 203 CURVE SMOOTH",
"89 -47 OFFCURVE",
"-124 -307 OFFCURVE",
"-464 -307 CURVE SMOOTH",
"-581 -307 OFFCURVE",
"-683 -290 OFFCURVE",
"-738 -275 CURVE",
"-752 -322 LINE",
"-695 -365 OFFCURVE",
"-577 -401 OFFCURVE",
"-452 -401 CURVE SMOOTH"
);
}
);
width = 199;
}
);
unicode = 11942;
script = divesakuru;
category = Mark;
subCategory = Spacing;
},
{
glyphname = u11928;
lastChange = "2022-02-07 14:40:26 +0000";
layers = (
{
anchors = (
{
name = Anchor10;
position = "{690, 318}";
},
{
name = Anchor11;
position = "{585, 372}";
},
{
name = Anchor2;
position = "{396, 590}";
},
{
name = Anchor4;
position = "{228, 390}";
},
{
name = Anchor6;
position = "{375, -38}";
},
{
name = bottom;
position = "{375, -38}";
},
{
name = halant;
position = "{585, 372}";
},
{
name = right2;
position = "{690, 318}";
},
{
name = top;
position = "{396, 590}";
},
{
name = topleft;
position = "{228, 390}";
}
);
layerId = UUID0;
paths = (
{
closed = 1;
nodes = (
"574 -11 OFFCURVE",
"667 101 OFFCURVE",
"667 249 CURVE SMOOTH",
"667 319 OFFCURVE",
"645 379 OFFCURVE",
"611 425 CURVE",
"572 399 LINE",
"593 368 OFFCURVE",
"609 309 OFFCURVE",
"609 268 CURVE SMOOTH",
"609 122 OFFCURVE",
"477 82 OFFCURVE",
"356 82 CURVE SMOOTH",
"207 82 OFFCURVE",
"117 136 OFFCURVE",
"117 266 CURVE SMOOTH",
"117 307 OFFCURVE",
"127 333 OFFCURVE",
"143 351 CURVE",
"136 379 LINE",
"121 368 OFFCURVE",
"107 344 OFFCURVE",
"107 315 CURVE SMOOTH",
"107 249 OFFCURVE",
"150 208 OFFCURVE",
"218 208 CURVE SMOOTH",
"283 208 OFFCURVE",
"342 244 OFFCURVE",
"342 329 CURVE SMOOTH",
"342 405 OFFCURVE",
"291 443 OFFCURVE",
"219 443 CURVE SMOOTH",
"136 443 OFFCURVE",
"60 384 OFFCURVE",
"60 248 CURVE SMOOTH",
"60 73 OFFCURVE",
"170 -11 OFFCURVE",
"357 -11 CURVE SMOOTH"
);
},
{
closed = 1;
nodes = (
"174 262 OFFCURVE",
"146 286 OFFCURVE",
"146 325 CURVE SMOOTH",
"146 365 OFFCURVE",
"170 390 OFFCURVE",
"218 390 CURVE SMOOTH",
"256 390 OFFCURVE",
"285 370 OFFCURVE",
"285 327 CURVE SMOOTH",
"285 285 OFFCURVE",
"258 262 OFFCURVE",
"218 262 CURVE SMOOTH"
);
}
);
width = 727;
}
);
unicode = 11928;
},
{
glyphname = u11929;
lastChange = "2022-02-07 14:40:46 +0000";
layers = (
{
anchors = (
{
name = Anchor10;
position = "{626, 207}";
},
{
name = Anchor11;
position = "{437, 257}";
},
{
name = Anchor2;
position = "{456, 590}";
},
{
name = Anchor3;
position = "{336, 485}";
},
{
name = Anchor4;
position = "{348, 543}";
},
{
name = Anchor6;
position = "{436, -38}";
},
{
name = bottom;
position = "{435, -38}";
},
{
name = halant;
position = "{437, 257}";
},
{
name = right2;
position = "{626, 207}";
},
{
name = top;
position = "{456, 590}";
},
{
name = topleft;
position = "{348, 543}";
},
{
name = topright;
position = "{336, 485}";
}
);
layerId = UUID0;
paths = (
{
closed = 1;
nodes = (
"569 -10 OFFCURVE",
"643 99 OFFCURVE",
"643 194 CURVE SMOOTH",
"643 250 OFFCURVE",
"612 315 OFFCURVE",
"527 315 CURVE SMOOTH",
"492 315 OFFCURVE",
"455 301 OFFCURVE",
"425 283 CURVE",
"450 239 LINE",
"479 254 OFFCURVE",
"500 261 OFFCURVE",
"525 261 CURVE SMOOTH",
"563 261 OFFCURVE",
"590 238 OFFCURVE",
"590 202 CURVE SMOOTH",
"590 141 OFFCURVE",
"533 92 OFFCURVE",
"401 92 CURVE SMOOTH",
"282 92 OFFCURVE",
"221 135 OFFCURVE",
"221 191 CURVE SMOOTH",
"221 222 OFFCURVE",
"230 250 OFFCURVE",
"286 289 CURVE SMOOTH",
"367 346 OFFCURVE",
"422 404 OFFCURVE",
"422 470 CURVE SMOOTH",
"422 545 OFFCURVE",
"364 581 OFFCURVE",
"281 581 CURVE SMOOTH",
"271 581 LINE",
"260 490 OFFCURVE",
"228 450 OFFCURVE",
"169 450 CURVE SMOOTH",
"122 450 OFFCURVE",
"105 471 OFFCURVE",
"105 520 CURVE SMOOTH",
"105 539 OFFCURVE",
"109 556 OFFCURVE",
"115 575 CURVE",
"48 575 LINE",
"41 560 OFFCURVE",
"37 540 OFFCURVE",
"37 516 CURVE SMOOTH",
"37 432 OFFCURVE",
"88 393 OFFCURVE",
"161 393 CURVE SMOOTH",
"271 393 OFFCURVE",
"310 488 OFFCURVE",
"315 539 CURVE",
"304 527 LINE",
"332 526 OFFCURVE",
"367 510 OFFCURVE",
"367 463 CURVE SMOOTH",
"367 420 OFFCURVE",
"334 379 OFFCURVE",
"270 336 CURVE SMOOTH",
"178 274 OFFCURVE",
"155 218 OFFCURVE",
"155 169 CURVE SMOOTH",
"155 58 OFFCURVE",
"250 -10 OFFCURVE",
"389 -10 CURVE SMOOTH"
);
}
);
width = 693;
}
);
unicode = 11929;
},
{
glyphname = u1192A;
lastChange = "2022-02-07 14:40:58 +0000";
layers = (
{
anchors = (
{
name = Anchor10;
position = "{815, 203}";
},
{
name = Anchor11;
position = "{688, 267}";
},
{
name = Anchor2;
position = "{556, 590}";
},
{
name = Anchor3;
position = "{716, 219}";
},
{
name = Anchor4;
position = "{292, 543}";
},
{
name = Anchor6;
position = "{535, -38}";
},
{
name = bottom;
position = "{535, -38}";
},
{
name = halant;
position = "{688, 267}";
},
{
name = right2;
position = "{815, 203}";
},
{
name = top;
position = "{556, 590}";
},
{
name = topleft;
position = "{292, 543}";
},
{
name = topright;
position = "{716, 219}";
}
);
layerId = UUID0;
paths = (
{
closed = 1;
nodes = (
"394 -10 OFFCURVE",
"474 17 OFFCURVE",
"509 45 CURVE",
"484 89 OFFCURVE",
"470 118 OFFCURVE",
"470 158 CURVE SMOOTH",
"470 235 OFFCURVE",
"522 282 OFFCURVE",
"616 282 CURVE SMOOTH",
"712 282 OFFCURVE",
"780 233 OFFCURVE",
"780 137 CURVE SMOOTH",
"780 125 OFFCURVE",
"779 115 OFFCURVE",
"777 107 CURVE",
"786 97 LINE",
"788 105 OFFCURVE",
"789 121 OFFCURVE",
"789 131 CURVE SMOOTH",
"789 186 OFFCURVE",
"748 211 OFFCURVE",
"696 211 CURVE SMOOTH",
"629 211 OFFCURVE",
"588 159 OFFCURVE",
"588 102 CURVE SMOOTH",
"588 42 OFFCURVE",
"628 -8 OFFCURVE",
"701 -8 CURVE SMOOTH",
"775 -8 OFFCURVE",
"830 42 OFFCURVE",
"830 135 CURVE SMOOTH",
"830 270 OFFCURVE",
"734 342 OFFCURVE",
"618 342 CURVE SMOOTH",
"509 342 OFFCURVE",
"416 273 OFFCURVE",
"416 169 CURVE SMOOTH",
"416 138 OFFCURVE",
"424 104 OFFCURVE",
"444 68 CURVE",
"463 121 LINE",
"431 96 OFFCURVE",
"389 81 OFFCURVE",
"343 81 CURVE SMOOTH",
"264 81 OFFCURVE",
"225 108 OFFCURVE",
"225 161 CURVE SMOOTH",
"225 210 OFFCURVE",
"264 249 OFFCURVE",
"308 290 CURVE SMOOTH",
"360 338 OFFCURVE",
"413 392 OFFCURVE",
"413 470 CURVE SMOOTH",
"413 544 OFFCURVE",
"367 591 OFFCURVE",
"271 591 CURVE SMOOTH",
"190 591 OFFCURVE",
"113 539 OFFCURVE",
"66 473 CURVE",
"90 450 LINE",
"151 494 OFFCURVE",
"202 517 OFFCURVE",
"266 517 CURVE SMOOTH",
"323 517 OFFCURVE",
"358 495 OFFCURVE",
"358 459 CURVE SMOOTH",
"358 400 OFFCURVE",
"312 356 OFFCURVE",
"262 310 CURVE SMOOTH",
"209 262 OFFCURVE",
"156 210 OFFCURVE",
"156 139 CURVE SMOOTH",
"156 37 OFFCURVE",
"226 -10 OFFCURVE",
"334 -10 CURVE SMOOTH"
);
},
{
closed = 1;
nodes = (
"90 450 LINE",
"97 483 LINE",
"92 490 LINE",
"95 497 OFFCURVE",
"97 514 OFFCURVE",
"97 531 CURVE SMOOTH",
"97 591 LINE",
"40 591 LINE",
"40 450 LINE"
);
},
{
closed = 1;
nodes = (
"665 43 OFFCURVE",
"644 65 OFFCURVE",
"644 102 CURVE SMOOTH",
"644 134 OFFCURVE",
"666 160 OFFCURVE",
"699 160 CURVE SMOOTH",
"726 160 OFFCURVE",
"758 145 OFFCURVE",
"758 101 CURVE SMOOTH",
"758 67 OFFCURVE",
"736 43 OFFCURVE",
"701 43 CURVE SMOOTH"
);
}
);
width = 900;
}
);
unicode = 1192A;
},
{
glyphname = u1192B;
lastChange = "2022-02-07 14:41:09 +0000";
layers = (
{
anchors = (
{
name = Anchor10;
position = "{778, 183}";
},
{
name = Anchor11;
position = "{724, 206}";
},
{
name = Anchor2;
position = "{442, 590}";
},
{
name = Anchor3;
position = "{663, 503}";
},
{
name = Anchor4;
position = "{292, 543}";
},
{
name = Anchor6;
position = "{421, -38}";
},
{
name = bottom;
position = "{421, -38}";
},
{
name = halant;
position = "{724, 206}";
},
{
name = right2;
position = "{778, 183}";
},
{
name = top;
position = "{442, 590}";
},
{
name = topleft;
position = "{292, 543}";
},
{
name = topright;
position = "{663, 503}";
}
);
layerId = UUID0;
paths = (
{
closed = 1;
nodes = (
"608 -10 OFFCURVE",
"761 119 OFFCURVE",
"761 244 CURVE SMOOTH",
"761 316 OFFCURVE",
"711 372 OFFCURVE",
"635 432 CURVE SMOOTH",
"586 471 OFFCURVE",
"571 501 OFFCURVE",
"571 538 CURVE SMOOTH",
"571 575 OFFCURVE",
"589 601 OFFCURVE",
"625 601 CURVE SMOOTH",
"660 601 OFFCURVE",
"680 580 OFFCURVE",
"680 542 CURVE SMOOTH",
"680 502 OFFCURVE",
"657 474 OFFCURVE",
"608 433 CURVE SMOOTH",
"549 383 OFFCURVE",
"488 321 OFFCURVE",
"488 249 CURVE SMOOTH",
"488 162 OFFCURVE",
"554 130 OFFCURVE",
"618 130 CURVE SMOOTH",
"651 130 OFFCURVE",
"683 147 OFFCURVE",
"697 170 CURVE",
"703 231 LINE",
"689 196 OFFCURVE",
"654 190 OFFCURVE",
"620 190 CURVE SMOOTH",
"581 190 OFFCURVE",
"550 207 OFFCURVE",
"550 256 CURVE SMOOTH",
"550 318 OFFCURVE",
"600 362 OFFCURVE",
"650 406 CURVE SMOOTH",
"703 453 OFFCURVE",
"730 500 OFFCURVE",
"730 549 CURVE SMOOTH",
"730 614 OFFCURVE",
"677 649 OFFCURVE",
"627 649 CURVE SMOOTH",
"563 649 OFFCURVE",
"518 604 OFFCURVE",
"518 540 CURVE SMOOTH",
"518 481 OFFCURVE",
"550 441 OFFCURVE",
"603 396 CURVE SMOOTH",
"664 344 OFFCURVE",
"697 298 OFFCURVE",
"697 241 CURVE SMOOTH",
"697 190 OFFCURVE",
"665 92 OFFCURVE",
"406 92 CURVE SMOOTH",
"277 92 OFFCURVE",
"225 133 OFFCURVE",
"225 193 CURVE SMOOTH",
"225 240 OFFCURVE",
"265 273 OFFCURVE",
"307 306 CURVE SMOOTH",
"359 347 OFFCURVE",
"413 391 OFFCURVE",
"413 470 CURVE SMOOTH",
"413 544 OFFCURVE",
"367 591 OFFCURVE",
"271 591 CURVE SMOOTH",
"190 591 OFFCURVE",
"113 539 OFFCURVE",
"66 473 CURVE",
"90 450 LINE",
"151 494 OFFCURVE",
"202 517 OFFCURVE",
"266 517 CURVE SMOOTH",
"323 517 OFFCURVE",
"358 495 OFFCURVE",
"358 459 CURVE SMOOTH",
"358 408 OFFCURVE",
"317 375 OFFCURVE",
"270 339 CURVE SMOOTH",
"215 297 OFFCURVE",
"156 250 OFFCURVE",
"156 163 CURVE SMOOTH",
"156 61 OFFCURVE",
"238 -10 OFFCURVE",
"394 -10 CURVE SMOOTH"
);
},
{
closed = 1;
nodes = (
"90 450 LINE",
"97 483 LINE",
"92 490 LINE",
"95 497 OFFCURVE",
"97 514 OFFCURVE",
"97 531 CURVE SMOOTH",
"97 591 LINE",
"40 591 LINE",
"40 450 LINE"
);
}
);
width = 831;
}
);
unicode = 1192B;
},
{
glyphname = u1192C;
lastChange = "2022-02-03 13:27:11 +0000";
layers = (
{
anchors = (
{
name = Anchor2;
position = "{466, 590}";
},
{
name = Anchor4;
position = "{260, 541}";
},
{
name = Anchor6;
position = "{445, -38}";
},
{
name = bottom;
position = "{445, -38}";
},
{
name = top;
position = "{466, 590}";
},
{
name = topleft;
position = "{260, 541}";
}
);
layerId = UUID0;
paths = (
{
closed = 1;
nodes = (
"376 -11 OFFCURVE",
"440 15 OFFCURVE",
"440 83 CURVE SMOOTH",
"440 110 OFFCURVE",
"433 129 OFFCURVE",
"426 146 CURVE SMOOTH",
"421 159 OFFCURVE",
"417 172 OFFCURVE",
"417 186 CURVE SMOOTH",
"417 203 OFFCURVE",
"424 210 OFFCURVE",
"457 210 CURVE SMOOTH",
"667 210 OFFCURVE",
"725 269 OFFCURVE",
"725 433 CURVE",
"669 433 LINE",
"669 294 OFFCURVE",
"615 260 OFFCURVE",
"464 260 CURVE SMOOTH",
"378 260 OFFCURVE",
"355 232 OFFCURVE",
"355 197 CURVE SMOOTH",
"355 173 OFFCURVE",
"362 157 OFFCURVE",
"370 141 CURVE SMOOTH",
"378 124 OFFCURVE",
"386 107 OFFCURVE",
"386 83 CURVE SMOOTH",
"386 53 OFFCURVE",
"363 38 OFFCURVE",
"321 38 CURVE SMOOTH",
"240 38 OFFCURVE",
"183 110 OFFCURVE",
"183 197 CURVE SMOOTH",
"183 281 OFFCURVE",
"251 319 OFFCURVE",
"387 325 CURVE",
"387 370 LINE",
"263 374 OFFCURVE",
"135 381 OFFCURVE",
"135 462 CURVE SMOOTH",
"135 516 OFFCURVE",
"185 537 OFFCURVE",
"263 537 CURVE SMOOTH",
"313 537 OFFCURVE",
"352 530 OFFCURVE",
"400 520 CURVE",
"419 567 LINE",
"358 584 OFFCURVE",
"305 589 OFFCURVE",
"250 589 CURVE SMOOTH",
"119 589 OFFCURVE",
"44 544 OFFCURVE",
"44 463 CURVE SMOOTH",
"44 376 OFFCURVE",
"158 341 OFFCURVE",
"257 332 CURVE",
"257 341 LINE",
"184 337 OFFCURVE",
"89 286 OFFCURVE",
"89 193 CURVE SMOOTH",
"89 73 OFFCURVE",
"194 -11 OFFCURVE",
"314 -11 CURVE SMOOTH"
);
}
);
width = 740;
}
);
unicode = 1192C;
},
{
glyphname = u1192D;
lastChange = "2022-02-03 13:27:22 +0000";
layers = (
{
anchors = (
{
name = Anchor11;
position = "{783, 379}";
},
{
name = Anchor2;
position = "{466, 590}";
},
{
name = Anchor3;
position = "{581, 495}";
},
{
name = Anchor4;
position = "{382, 543}";
},
{
name = Anchor6;
position = "{445, -38}";
},
{
name = bottom;
position = "{445, -38}";
},
{
name = halant;
position = "{783, 379}";
},
{
name = top;
position = "{466, 590}";
},
{
name = topleft;
position = "{382, 543}";
},
{
name = topright;
position = "{581, 495}";
}
);
layerId = UUID0;
paths = (
{
closed = 1;
nodes = (
"666 -10 OFFCURVE",
"829 179 OFFCURVE",
"829 395 CURVE SMOOTH",
"829 503 OFFCURVE",
"781 589 OFFCURVE",
"670 589 CURVE SMOOTH",
"605 589 OFFCURVE",
"559 549 OFFCURVE",
"559 488 CURVE SMOOTH",
"559 456 OFFCURVE",
"570 446 OFFCURVE",
"570 426 CURVE SMOOTH",
"570 411 OFFCURVE",
"559 398 OFFCURVE",
"511 398 CURVE SMOOTH",
"472 398 OFFCURVE",
"459 415 OFFCURVE",
"459 450 CURVE SMOOTH",
"459 536 OFFCURVE",
"416 589 OFFCURVE",
"336 589 CURVE SMOOTH",
"250 589 OFFCURVE",
"207 500 OFFCURVE",
"195 417 CURVE",
"201 413 LINE",
"176 499 OFFCURVE",
"115 563 OFFCURVE",
"30 594 CURVE",
"5 545 LINE",
"88 515 OFFCURVE",
"154 427 OFFCURVE",
"173 346 CURVE",
"226 346 LINE",
"236 427 OFFCURVE",
"268 493 OFFCURVE",
"332 493 CURVE SMOOTH",
"401 493 OFFCURVE",
"407 456 OFFCURVE",
"413 418 CURVE SMOOTH",
"419 378 OFFCURVE",
"427 336 OFFCURVE",
"512 336 CURVE SMOOTH",
"596 336 OFFCURVE",
"613 381 OFFCURVE",
"613 409 CURVE SMOOTH",
"613 427 OFFCURVE",
"607 436 OFFCURVE",
"607 452 CURVE SMOOTH",
"607 480 OFFCURVE",
"624 509 OFFCURVE",
"671 509 CURVE SMOOTH",
"735 509 OFFCURVE",
"769 460 OFFCURVE",
"769 376 CURVE SMOOTH",
"769 202 OFFCURVE",
"615 78 OFFCURVE",
"391 78 CURVE SMOOTH",
"309 78 OFFCURVE",
"252 90 OFFCURVE",
"199 104 CURVE",
"180 54 LINE",
"233 18 OFFCURVE",
"307 -10 OFFCURVE",
"406 -10 CURVE SMOOTH"
);
}
);
width = 869;
}
);
unicode = 1192D;
},
{
glyphname = u1192E;
lastChange = "2022-02-03 13:28:16 +0000";
layers = (
{
anchors = (
{
name = Anchor11;
position = "{454, 374}";
},
{
name = Anchor2;
position = "{326, 590}";
},
{
name = Anchor4;
position = "{259, 547}";
},
{
name = Anchor6;
position = "{305, -248}";
},
{
name = bottom;
position = "{305, -248}";
},
{
name = halant;
position = "{454, 374}";
},
{
name = top;
position = "{326, 590}";
},
{
name = topleft;
position = "{259, 547}";
}
);
layerId = UUID0;
paths = (
{
closed = 1;
nodes = (
"438 -220 OFFCURVE",
"550 -142 OFFCURVE",
"557 -13 CURVE",
"508 -13 LINE",
"498 -83 OFFCURVE",
"441 -138 OFFCURVE",
"295 -138 CURVE SMOOTH",
"133 -138 OFFCURVE",
"88 -54 OFFCURVE",
"93 10 CURVE",
"78 -4 LINE",
"111 -9 OFFCURVE",
"142 -11 OFFCURVE",
"207 -11 CURVE SMOOTH",
"391 -11 OFFCURVE",
"513 57 OFFCURVE",
"513 159 CURVE SMOOTH",
"513 250 OFFCURVE",
"406 304 OFFCURVE",
"334 308 CURVE",
"335 299 LINE",
"405 306 OFFCURVE",
"509 358 OFFCURVE",
"509 446 CURVE SMOOTH",
"509 540 OFFCURVE",
"413 589 OFFCURVE",
"260 589 CURVE SMOOTH",
"107 589 OFFCURVE",
"25 545 OFFCURVE",
"25 459 CURVE SMOOTH",
"25 392 OFFCURVE",
"69 367 OFFCURVE",
"127 367 CURVE SMOOTH",
"180 367 OFFCURVE",
"226 392 OFFCURVE",
"226 458 CURVE SMOOTH",
"226 503 OFFCURVE",
"194 534 OFFCURVE",
"149 534 CURVE SMOOTH",
"140 534 OFFCURVE",
"127 533 OFFCURVE",
"120 532 CURVE",
"144 517 LINE",
"165 526 OFFCURVE",
"196 537 OFFCURVE",
"256 537 CURVE SMOOTH",
"351 537 OFFCURVE",
"412 513 OFFCURVE",
"412 448 CURVE SMOOTH",
"412 367 OFFCURVE",
"323 325 OFFCURVE",
"208 321 CURVE",
"208 276 LINE",
"317 271 OFFCURVE",
"414 243 OFFCURVE",
"414 160 CURVE SMOOTH",
"414 79 OFFCURVE",
"325 45 OFFCURVE",
"176 45 CURVE SMOOTH",
"122 45 OFFCURVE",
"92 46 OFFCURVE",
"39 51 CURVE",
"39 33 LINE SMOOTH",
"39 -126 OFFCURVE",
"127 -220 OFFCURVE",
"289 -220 CURVE SMOOTH"
);
},
{
closed = 1;
nodes = (
"91 408 OFFCURVE",
"75 429 OFFCURVE",
"75 459 CURVE SMOOTH",
"75 494 OFFCURVE",
"91 507 OFFCURVE",
"126 507 CURVE SMOOTH",
"162 507 OFFCURVE",
"177 483 OFFCURVE",
"177 459 CURVE SMOOTH",
"177 425 OFFCURVE",
"157 408 OFFCURVE",
"127 408 CURVE SMOOTH"
);
}
);
width = 607;
}
);
unicode = 1192E;
},
{
glyphname = u1192F;
lastChange = "2022-02-07 14:41:20 +0000";
layers = (
{
anchors = (
{
name = Anchor10;
position = "{751, 279}";
},
{
name = Anchor11;
position = "{714, 333}";
},
{
name = Anchor2;
position = "{546, 590}";
},
{
name = Anchor4;
position = "{335, 535}";
},
{
name = Anchor6;
position = "{525, -38}";
},
{
name = bottom;
position = "{525, -38}";
},
{
name = halant;
position = "{714, 333}";
},
{
name = right2;
position = "{751, 279}";
},
{
name = top;
position = "{546, 590}";
},
{
name = topleft;
position = "{335, 535}";
}
);
layerId = UUID0;
paths = (
{
closed = 1;
nodes = (
"389 -10 OFFCURVE",
"446 59 OFFCURVE",
"469 129 CURVE",
"498 44 OFFCURVE",
"550 -10 OFFCURVE",
"648 -10 CURVE SMOOTH",
"761 -10 OFFCURVE",
"832 58 OFFCURVE",
"832 178 CURVE SMOOTH",
"832 270 OFFCURVE",
"779 338 OFFCURVE",
"709 373 CURVE",
"682 329 LINE",
"752 289 OFFCURVE",
"769 240 OFFCURVE",
"769 192 CURVE SMOOTH",
"769 129 OFFCURVE",
"724 95 OFFCURVE",
"634 95 CURVE SMOOTH",
"563 95 OFFCURVE",
"503 131 OFFCURVE",
"496 204 CURVE",
"443 204 LINE",
"428 147 OFFCURVE",
"396 95 OFFCURVE",
"256 95 CURVE SMOOTH",
"149 95 OFFCURVE",
"87 140 OFFCURVE",
"87 202 CURVE",
"73 187 LINE",
"365 198 OFFCURVE",
"468 302 OFFCURVE",
"468 431 CURVE SMOOTH",
"468 512 OFFCURVE",
"418 589 OFFCURVE",
"326 589 CURVE SMOOTH",
"251 589 OFFCURVE",
"205 544 OFFCURVE",
"205 476 CURVE SMOOTH",
"205 403 OFFCURVE",
"253 363 OFFCURVE",
"321 363 CURVE SMOOTH",
"381 363 OFFCURVE",
"424 393 OFFCURVE",
"424 466 CURVE SMOOTH",
"424 518 OFFCURVE",
"393 564 OFFCURVE",
"348 564 CURVE SMOOTH",
"338 564 OFFCURVE",
"322 563 OFFCURVE",
"310 549 CURVE",
"326 537 LINE",
"374 537 OFFCURVE",
"413 501 OFFCURVE",
"413 430 CURVE SMOOTH",
"413 348 OFFCURVE",
"362 247 OFFCURVE",
"32 234 CURVE",
"32 222 LINE SMOOTH",
"32 77 OFFCURVE",
"129 -10 OFFCURVE",
"258 -10 CURVE SMOOTH"
);
},
{
closed = 1;
nodes = (
"281 414 OFFCURVE",
"262 439 OFFCURVE",
"262 475 CURVE SMOOTH",
"262 510 OFFCURVE",
"288 532 OFFCURVE",
"323 532 CURVE SMOOTH",
"367 532 OFFCURVE",
"384 504 OFFCURVE",
"384 475 CURVE SMOOTH",
"384 434 OFFCURVE",
"361 414 OFFCURVE",
"324 414 CURVE SMOOTH"
);
}
);
width = 872;
}
);
unicode = 1192F;
},
{
glyphname = "ka_tha-divesakuru";
lastChange = "2022-02-03 18:10:45 +0000";
layers = (
{
anchors = (
{
name = Anchor11;
position = "{941, -21}";
},
{
name = Anchor2;
position = "{835, 590}";
},
{
name = Anchor6;
position = "{829, -293}";
},
{
name = Anchor9;
position = "{1088, 300}";
},
{
name = bottom;
position = "{829, -293}";
},
{
name = halant;
position = "{941, -21}";
},
{
name = right;
position = "{1088, 300}";
},
{
name = top;
position = "{835, 590}";
}
);
layerId = UUID0;
paths = (
{
closed = 1;
nodes = (
"954 -270 OFFCURVE",
"1042 -167 OFFCURVE",
"1042 -72 CURVE SMOOTH",
"1042 -23 OFFCURVE",
"1018 34 OFFCURVE",
"941 34 CURVE SMOOTH",
"881 34 OFFCURVE",
"823 -6 OFFCURVE",
"823 -122 CURVE",
"877 -122 LINE",
"877 -38 OFFCURVE",
"907 -16 OFFCURVE",
"942 -16 CURVE SMOOTH",
"971 -16 OFFCURVE",
"989 -37 OFFCURVE",
"989 -70 CURVE SMOOTH",
"989 -109 OFFCURVE",
"958 -170 OFFCURVE",
"846 -170 CURVE SMOOTH",
"777 -170 OFFCURVE",
"741 -125 OFFCURVE",
"741 -69 CURVE SMOOTH",
"741 -9 OFFCURVE",
"768 36 OFFCURVE",
"798 85 CURVE SMOOTH",
"835 146 OFFCURVE",
"875 213 OFFCURVE",
"875 322 CURVE SMOOTH",
"875 448 OFFCURVE",
"793 600 OFFCURVE",
"554 600 CURVE SMOOTH",
"387 600 OFFCURVE",
"176 522 OFFCURVE",
"176 297 CURVE SMOOTH",
"176 123 OFFCURVE",
"285 0 OFFCURVE",
"440 0 CURVE SMOOTH",
"532 0 OFFCURVE",
"631 66 OFFCURVE",
"631 171 CURVE SMOOTH",
"631 249 OFFCURVE",
"582 292 OFFCURVE",
"471 307 CURVE",
"473 296 LINE",
"566 309 OFFCURVE",
"619 359 OFFCURVE",
"619 430 CURVE SMOOTH",
"619 495 OFFCURVE",
"561 564 OFFCURVE",
"390 564 CURVE",
"380 521 LINE",
"479 521 OFFCURVE",
"529 488 OFFCURVE",
"529 429 CURVE SMOOTH",
"529 381 OFFCURVE",
"509 323 OFFCURVE",
"352 319 CURVE",
"352 274 LINE",
"518 265 OFFCURVE",
"535 210 OFFCURVE",
"535 166 CURVE SMOOTH",
"535 109 OFFCURVE",
"496 66 OFFCURVE",
"423 66 CURVE SMOOTH",
"325 66 OFFCURVE",
"237 150 OFFCURVE",
"237 299 CURVE SMOOTH",
"237 495 OFFCURVE",
"420 549 OFFCURVE",
"548 549 CURVE SMOOTH",
"750 549 OFFCURVE",
"809 421 OFFCURVE",
"809 305 CURVE SMOOTH",
"809 214 OFFCURVE",
"777 157 OFFCURVE",
"743 100 CURVE SMOOTH",
"710 45 OFFCURVE",
"678 -12 OFFCURVE",
"678 -101 CURVE SMOOTH",
"678 -202 OFFCURVE",
"745 -270 OFFCURVE",
"834 -270 CURVE SMOOTH"
);
},
{
closed = 1;
nodes = (
"125 457 LINE",
"106 465 OFFCURVE",
"87 477 OFFCURVE",
"87 504 CURVE SMOOTH",
"87 543 OFFCURVE",
"136 573 OFFCURVE",
"200 573 CURVE SMOOTH",
"278 573 OFFCURVE",
"331 553 OFFCURVE",
"385 528 CURVE",
"406 569 LINE",
"349 596 OFFCURVE",
"263 617 OFFCURVE",
"192 617 CURVE SMOOTH",
"68 617 OFFCURVE",
"10 552 OFFCURVE",
"10 488 CURVE SMOOTH",
"10 427 OFFCURVE",
"60 408 OFFCURVE",
"94 397 CURVE"
);
}
);
width = 985;
}
);
},
{
glyphname = "ka_ra_vowelI-divesakuru";
lastChange = "2022-02-03 16:00:38 +0000";
layers = (
{
anchors = (
{
name = Anchor2;
position = "{1121, 714}";
},
{
name = Anchor4;
position = "{1025, 633}";
},
{
name = Anchor6;
position = "{1169, -171}";
},
{
name = bottom;
position = "{1169, -171}";
},
{
name = top;
position = "{1121, 714}";
},
{
name = topleft;
position = "{1025, 633}";
}
);
components = (
{
name = "ka_medra-divesakuru";
}
);
layerId = UUID0;
paths = (
{
closed = 1;
nodes = (
"1263 22 OFFCURVE",
"1339 208 OFFCURVE",
"1339 385 CURVE SMOOTH",
"1339 571 OFFCURVE",
"1234 689 OFFCURVE",
"1059 689 CURVE SMOOTH",
"949 689 OFFCURVE",
"868 640 OFFCURVE",
"836 610 CURVE",
"874 575 LINE",
"928 615 OFFCURVE",
"984 637 OFFCURVE",
"1064 637 CURVE SMOOTH",
"1206 637 OFFCURVE",
"1279 534 OFFCURVE",
"1279 377 CURVE SMOOTH",
"1279 219 OFFCURVE",
"1216 52 OFFCURVE",
"1152 -63 CURVE",
"1189 -85 LINE"
);
}
);
width = 1399;
}
);
},
{
glyphname = "ka_ssa-divesakuru";
lastChange = "2022-02-03 18:07:47 +0000";
layers = (
{
anchors = (
{
name = Anchor11;
position = "{1200, -14}";
},
{
name = Anchor2;
position = "{925, 590}";
},
{
name = Anchor6;
position = "{929, -293}";
},
{
name = bottom;
position = "{929, -293}";
},
{
name = halant;
position = "{1200, -14}";
},
{
name = top;
position = "{925, 590}";
}
);
layerId = UUID0;
paths = (
{
closed = 1;
nodes = (
"1138 -224 OFFCURVE",
"1234 -103 OFFCURVE",
"1234 18 CURVE SMOOTH",
"1234 102 OFFCURVE",
"1184 158 OFFCURVE",
"1108 218 CURVE SMOOTH",
"1059 257 OFFCURVE",
"1044 287 OFFCURVE",
"1044 324 CURVE SMOOTH",
"1044 361 OFFCURVE",
"1062 387 OFFCURVE",
"1098 387 CURVE SMOOTH",
"1133 387 OFFCURVE",
"1153 366 OFFCURVE",
"1153 328 CURVE SMOOTH",
"1153 288 OFFCURVE",
"1130 260 OFFCURVE",
"1081 219 CURVE SMOOTH",
"1022 169 OFFCURVE",
"961 107 OFFCURVE",
"961 35 CURVE SMOOTH",
"961 -52 OFFCURVE",
"1027 -84 OFFCURVE",
"1091 -84 CURVE SMOOTH",
"1124 -84 OFFCURVE",
"1156 -67 OFFCURVE",
"1170 -44 CURVE",
"1176 17 LINE",
"1162 -18 OFFCURVE",
"1127 -24 OFFCURVE",
"1093 -24 CURVE SMOOTH",
"1054 -24 OFFCURVE",
"1023 -7 OFFCURVE",
"1023 42 CURVE SMOOTH",
"1023 104 OFFCURVE",
"1073 148 OFFCURVE",
"1123 192 CURVE SMOOTH",
"1176 239 OFFCURVE",
"1203 286 OFFCURVE",
"1203 335 CURVE SMOOTH",
"1203 400 OFFCURVE",
"1150 435 OFFCURVE",
"1100 435 CURVE SMOOTH",
"1036 435 OFFCURVE",
"991 390 OFFCURVE",
"991 326 CURVE SMOOTH",
"991 267 OFFCURVE",
"1023 227 OFFCURVE",
"1076 182 CURVE SMOOTH",
"1137 130 OFFCURVE",
"1170 84 OFFCURVE",
"1170 27 CURVE SMOOTH",
"1170 -44 OFFCURVE",
"1122 -132 OFFCURVE",
"962 -132 CURVE SMOOTH",
"833 -132 OFFCURVE",
"765 -82 OFFCURVE",
"765 18 CURVE SMOOTH",
"765 72 OFFCURVE",
"784 121 OFFCURVE",
"805 172 CURVE SMOOTH",
"827 225 OFFCURVE",
"848 280 OFFCURVE",
"848 345 CURVE SMOOTH",
"848 493 OFFCURVE",
"754 600 OFFCURVE",
"534 600 CURVE SMOOTH",
"387 600 OFFCURVE",
"176 522 OFFCURVE",
"176 297 CURVE SMOOTH",
"176 123 OFFCURVE",
"285 0 OFFCURVE",
"440 0 CURVE SMOOTH",
"532 0 OFFCURVE",
"631 66 OFFCURVE",
"631 171 CURVE SMOOTH",
"631 249 OFFCURVE",
"582 292 OFFCURVE",
"471 307 CURVE",
"473 296 LINE",
"566 309 OFFCURVE",
"619 359 OFFCURVE",
"619 430 CURVE SMOOTH",
"619 495 OFFCURVE",
"561 564 OFFCURVE",
"390 564 CURVE",
"380 521 LINE",
"479 521 OFFCURVE",
"529 488 OFFCURVE",
"529 429 CURVE SMOOTH",
"529 381 OFFCURVE",
"509 323 OFFCURVE",
"352 319 CURVE",
"352 274 LINE",
"518 265 OFFCURVE",
"535 210 OFFCURVE",
"535 166 CURVE SMOOTH",
"535 109 OFFCURVE",
"496 66 OFFCURVE",
"423 66 CURVE SMOOTH",
"325 66 OFFCURVE",
"237 150 OFFCURVE",
"237 299 CURVE SMOOTH",
"237 495 OFFCURVE",
"420 549 OFFCURVE",
"528 549 CURVE SMOOTH",
"711 549 OFFCURVE",
"791 463 OFFCURVE",
"791 343 CURVE SMOOTH",
"791 275 OFFCURVE",
"771 225 OFFCURVE",
"748 174 CURVE SMOOTH",
"723 119 OFFCURVE",
"699 63 OFFCURVE",
"699 -20 CURVE SMOOTH",
"699 -153 OFFCURVE",
"794 -224 OFFCURVE",
"940 -224 CURVE SMOOTH"
);
},
{
closed = 1;
nodes = (
"125 457 LINE",
"106 465 OFFCURVE",
"87 477 OFFCURVE",
"87 504 CURVE SMOOTH",
"87 543 OFFCURVE",
"136 573 OFFCURVE",
"200 573 CURVE SMOOTH",
"278 573 OFFCURVE",
"331 553 OFFCURVE",
"385 528 CURVE",
"406 569 LINE",
"349 596 OFFCURVE",
"263 617 OFFCURVE",
"192 617 CURVE SMOOTH",
"68 617 OFFCURVE",
"10 552 OFFCURVE",
"10 488 CURVE SMOOTH",
"10 427 OFFCURVE",
"60 408 OFFCURVE",
"94 397 CURVE"
);
}
);
width = 1304;
}
);
},
{
glyphname = "ka_medra-divesakuru";
lastChange = "2022-02-03 16:01:04 +0000";
layers = (
{
anchors = (
{
name = Anchor2;
position = "{842, 653}";
},
{
name = Anchor4;
position = "{805, 564}";
},
{
name = Anchor6;
position = "{815, -308}";
},
{
name = bottom;
position = "{815, -308}";
},
{
name = right;
position = "{1151, 300}";
},
{
name = top;
position = "{842, 653}";
},
{
name = topleft;
position = "{805, 564}";
},
{
name = topright;
position = "{887, 495}";
}
);
components = (
{
name = u1190C;
}
);
layerId = UUID0;
paths = (
{
closed = 1;
nodes = (
"894 -422 OFFCURVE",
"1102 -121 OFFCURVE",
"1102 212 CURVE SMOOTH",
"1102 452 OFFCURVE",
"978 619 OFFCURVE",
"805 619 CURVE SMOOTH",
"747 619 OFFCURVE",
"708 602 OFFCURVE",
"675 570 CURVE",
"712 539 LINE",
"731 555 OFFCURVE",
"763 568 OFFCURVE",
"801 568 CURVE SMOOTH",
"935 568 OFFCURVE",
"1040 425 OFFCURVE",
"1040 218 CURVE SMOOTH",
"1040 -135 OFFCURVE",
"804 -335 OFFCURVE",
"461 -335 CURVE SMOOTH",
"371 -335 OFFCURVE",
"299 -322 OFFCURVE",
"243 -304 CURVE",
"219 -355 LINE",
"275 -393 OFFCURVE",
"366 -422 OFFCURVE",
"471 -422 CURVE SMOOTH"
);
}
);
width = 1152;
}
);
},
{
glyphname = "ka_vowelU-divesakuru";
lastChange = "2022-02-03 17:09:40 +0000";
layers = (
{
anchors = (
{
name = Anchor2;
position = "{691, 714}";
},
{
name = Anchor4;
position = "{534, 551}";
},
{
name = Anchor6;
position = "{739, -15}";
},
{
name = bottom;
position = "{739, -15}";
},
{
name = top;
position = "{691, 714}";
},
{
name = topleft;
position = "{534, 551}";
}
);
layerId = UUID0;
paths = (
{
closed = 1;
nodes = (
"602 -245 LINE",
"540 -238 OFFCURVE",
"467 -218 OFFCURVE",
"467 -168 CURVE SMOOTH",
"467 -118 OFFCURVE",
"516 -92 OFFCURVE",
"627 -38 CURVE SMOOTH",
"781 37 OFFCURVE",
"875 150 OFFCURVE",
"875 320 CURVE SMOOTH",
"875 472 OFFCURVE",
"763 600 OFFCURVE",
"554 600 CURVE SMOOTH",
"387 600 OFFCURVE",
"176 522 OFFCURVE",
"176 297 CURVE SMOOTH",
"176 123 OFFCURVE",
"285 0 OFFCURVE",
"440 0 CURVE SMOOTH",
"532 0 OFFCURVE",
"631 66 OFFCURVE",
"631 171 CURVE SMOOTH",
"631 249 OFFCURVE",
"582 292 OFFCURVE",
"471 307 CURVE",
"473 296 LINE",
"566 309 OFFCURVE",
"619 359 OFFCURVE",
"619 430 CURVE SMOOTH",
"619 495 OFFCURVE",
"561 564 OFFCURVE",
"390 564 CURVE",
"380 521 LINE",
"479 521 OFFCURVE",
"529 488 OFFCURVE",
"529 429 CURVE SMOOTH",
"529 381 OFFCURVE",
"509 323 OFFCURVE",
"352 319 CURVE",
"352 274 LINE",
"518 265 OFFCURVE",
"535 210 OFFCURVE",
"535 166 CURVE SMOOTH",
"535 109 OFFCURVE",
"496 66 OFFCURVE",
"423 66 CURVE SMOOTH",
"325 66 OFFCURVE",
"237 150 OFFCURVE",
"237 299 CURVE SMOOTH",
"237 495 OFFCURVE",
"420 549 OFFCURVE",
"548 549 CURVE SMOOTH",
"720 549 OFFCURVE",
"805 445 OFFCURVE",
"805 323 CURVE SMOOTH",
"805 176 OFFCURVE",
"746 81 OFFCURVE",
"567 -4 CURVE SMOOTH",
"468 -51 OFFCURVE",
"411 -101 OFFCURVE",
"411 -174 CURVE SMOOTH",
"411 -272 OFFCURVE",
"512 -301 OFFCURVE",
"591 -304 CURVE"
);
},
{
closed = 1;
nodes = (
"125 457 LINE",
"106 465 OFFCURVE",
"87 477 OFFCURVE",
"87 504 CURVE SMOOTH",
"87 543 OFFCURVE",
"136 573 OFFCURVE",
"200 573 CURVE SMOOTH",
"278 573 OFFCURVE",
"331 553 OFFCURVE",
"385 528 CURVE",
"406 569 LINE",
"349 596 OFFCURVE",
"263 617 OFFCURVE",
"192 617 CURVE SMOOTH",
"68 617 OFFCURVE",
"10 552 OFFCURVE",
"10 488 CURVE SMOOTH",
"10 427 OFFCURVE",
"60 408 OFFCURVE",
"94 397 CURVE"
);
}
);
width = 925;
}
);
},
{
glyphname = "ka_vowelUU-divesakuru";
lastChange = "2022-02-03 17:10:25 +0000";
layers = (
{
anchors = (
{
name = Anchor2;
position = "{962, 536}";
},
{
name = Anchor4;
position = "{534, 551}";
},
{
name = Anchor6;
position = "{966, -353}";
},
{
name = bottom;
position = "{966, -353}";
},
{
name = top;
position = "{962, 536}";
},
{
name = topleft;
position = "{534, 551}";
}
);
components = (
{
name = "ka_vowelU-divesakuru";
}
);
layerId = UUID0;
paths = (
{
closed = 1;
nodes = (
"1051 -305 OFFCURVE",
"1092 -247 OFFCURVE",
"1092 -113 CURVE SMOOTH",
"1092 18 LINE SMOOTH",
"1092 178 OFFCURVE",
"1060 207 OFFCURVE",
"906 207 CURVE SMOOTH",
"806 207 LINE",
"806 150 LINE",
"929 150 LINE SMOOTH",
"1025 150 OFFCURVE",
"1032 123 OFFCURVE",
"1032 -6 CURVE SMOOTH",
"1032 -98 LINE SMOOTH",
"1032 -193 OFFCURVE",
"1027 -246 OFFCURVE",
"966 -246 CURVE SMOOTH",
"905 -246 OFFCURVE",
"896 -193 OFFCURVE",
"896 -98 CURVE SMOOTH",
"896 25 LINE",
"840 25 LINE",
"840 -113 LINE SMOOTH",
"840 -247 OFFCURVE",
"881 -305 OFFCURVE",
"966 -305 CURVE SMOOTH"
);
}
);
width = 1182;
}
);
},
{
glyphname = "nga_ga-divesakuru";
lastChange = "2022-02-03 18:09:34 +0000";
layers = (
{
anchors = (
{
name = Anchor11;
position = "{615, 187}";
},
{
name = Anchor2;
position = "{565, 590}";
},
{
name = Anchor6;
position = "{539, -293}";
},
{
name = bottom;
position = "{539, -293}";
},
{
name = halant;
position = "{615, 187}";
},
{
name = top;
position = "{565, 590}";
}
);
layerId = UUID0;
paths = (
{
closed = 1;
nodes = (
"582 -273 OFFCURVE",
"746 -173 OFFCURVE",
"746 26 CURVE SMOOTH",
"746 147 OFFCURVE",
"672 218 OFFCURVE",
"565 218 CURVE SMOOTH",
"472 218 OFFCURVE",
"421 156 OFFCURVE",
"421 97 CURVE SMOOTH",
"421 74 OFFCURVE",
"425 52 OFFCURVE",
"432 40 CURVE",
"460 57 LINE",
"361 57 LINE SMOOTH",
"300 57 OFFCURVE",
"277 74 OFFCURVE",
"277 108 CURVE SMOOTH",
"277 150 OFFCURVE",
"312 172 OFFCURVE",
"369 197 CURVE SMOOTH",
"408 214 OFFCURVE",
"461 238 OFFCURVE",
"461 272 CURVE SMOOTH",
"461 323 OFFCURVE",
"379 340 OFFCURVE",
"307 344 CURVE",
"308 335 LINE",
"378 342 OFFCURVE",
"482 390 OFFCURVE",
"482 462 CURVE SMOOTH",
"482 540 OFFCURVE",
"396 589 OFFCURVE",
"253 589 CURVE SMOOTH",
"110 589 OFFCURVE",
"28 545 OFFCURVE",
"28 459 CURVE SMOOTH",
"28 392 OFFCURVE",
"72 367 OFFCURVE",
"130 367 CURVE SMOOTH",
"183 367 OFFCURVE",
"229 392 OFFCURVE",
"229 458 CURVE SMOOTH",
"229 503 OFFCURVE",
"197 534 OFFCURVE",
"152 534 CURVE SMOOTH",
"143 534 OFFCURVE",
"130 533 OFFCURVE",
"123 532 CURVE",
"147 517 LINE",
"168 526 OFFCURVE",
"199 537 OFFCURVE",
"249 537 CURVE SMOOTH",
"334 537 OFFCURVE",
"392 513 OFFCURVE",
"392 464 CURVE SMOOTH",
"392 396 OFFCURVE",
"304 361 OFFCURVE",
"211 357 CURVE",
"211 315 LINE",
"304 312 OFFCURVE",
"369 301 OFFCURVE",
"369 268 CURVE SMOOTH",
"369 250 OFFCURVE",
"347 238 OFFCURVE",
"317 224 CURVE SMOOTH",
"242 188 OFFCURVE",
"199 152 OFFCURVE",
"199 95 CURVE SMOOTH",
"199 25 OFFCURVE",
"251 0 OFFCURVE",
"360 0 CURVE SMOOTH",
"511 0 LINE",
"496 28 OFFCURVE",
"482 61 OFFCURVE",
"482 95 CURVE SMOOTH",
"482 138 OFFCURVE",
"514 164 OFFCURVE",
"563 164 CURVE SMOOTH",
"645 164 OFFCURVE",
"685 108 OFFCURVE",
"685 24 CURVE SMOOTH",
"685 -146 OFFCURVE",
"534 -182 OFFCURVE",
"435 -182 CURVE SMOOTH",
"344 -182 OFFCURVE",
"279 -168 OFFCURVE",
"214 -147 CURVE",
"195 -189 LINE",
"243 -242 OFFCURVE",
"335 -273 OFFCURVE",
"430 -273 CURVE SMOOTH"
);
},
{
closed = 1;
nodes = (
"94 408 OFFCURVE",
"78 429 OFFCURVE",
"78 459 CURVE SMOOTH",
"78 494 OFFCURVE",
"94 507 OFFCURVE",
"129 507 CURVE SMOOTH",
"165 507 OFFCURVE",
"180 483 OFFCURVE",
"180 459 CURVE SMOOTH",
"180 425 OFFCURVE",
"160 408 OFFCURVE",
"130 408 CURVE SMOOTH"
);
}
);
width = 786;
}
);
},
{
glyphname = "tta_tta-divesakuru";
lastChange = "2022-01-28 16:15:27 +0000";
layers = (
{
anchors = (
{
name = Anchor2;
position = "{671, 590}";
},
{
name = Anchor6;
position = "{670, -38}";
},
{
name = bottom;
position = "{670, -38}";
},
{
name = top;
position = "{671, 590}";
}
);
layerId = UUID0;
paths = (
{
closed = 1;
nodes = (
"80 450 LINE",
"87 483 LINE",
"82 490 LINE",
"85 497 OFFCURVE",
"87 514 OFFCURVE",
"87 531 CURVE SMOOTH",
"87 591 LINE",
"30 591 LINE",
"30 450 LINE"
);
},
{
closed = 1;
nodes = (
"484 -10 OFFCURVE",
"573 170 OFFCURVE",
"573 292 CURVE SMOOTH",
"573 317 OFFCURVE",
"572 336 OFFCURVE",
"568 359 CURVE",
"514 357 LINE",
"517 339 OFFCURVE",
"519 318 OFFCURVE",
"519 294 CURVE SMOOTH",
"519 202 OFFCURVE",
"442 92 OFFCURVE",
"309 92 CURVE SMOOTH",
"216 92 OFFCURVE",
"166 125 OFFCURVE",
"156 187 CURVE",
"142 172 LINE",
"269 240 OFFCURVE",
"382 334 OFFCURVE",
"382 471 CURVE SMOOTH",
"382 544 OFFCURVE",
"335 591 OFFCURVE",
"257 591 CURVE SMOOTH",
"178 591 OFFCURVE",
"103 539 OFFCURVE",
"56 473 CURVE",
"80 450 LINE",
"141 494 OFFCURVE",
"190 517 OFFCURVE",
"244 517 CURVE SMOOTH",
"291 517 OFFCURVE",
"321 495 OFFCURVE",
"321 449 CURVE SMOOTH",
"321 375 OFFCURVE",
"256 285 OFFCURVE",
"101 216 CURVE",
"102 204 LINE SMOOTH",
"114 58 OFFCURVE",
"181 -10 OFFCURVE",
"300 -10 CURVE SMOOTH"
);
},
{
closed = 1;
nodes = (
"511 84 OFFCURVE",
"578 -10 OFFCURVE",
"688 -10 CURVE SMOOTH",
"819 -10 OFFCURVE",
"917 105 OFFCURVE",
"917 283 CURVE SMOOTH",
"917 299 OFFCURVE",
"915 316 OFFCURVE",
"912 330 CURVE",
"859 327 LINE",
"862 306 OFFCURVE",
"863 295 OFFCURVE",
"863 282 CURVE SMOOTH",
"863 142 OFFCURVE",
"795 92 OFFCURVE",
"700 92 CURVE SMOOTH",
"598 92 OFFCURVE",
"561 147 OFFCURVE",
"561 219 CURVE",
"511 219 LINE"
);
}
);
width = 957;
}
);
},
{
glyphname = "tta_va-divesakuru";
lastChange = "2022-02-03 18:09:49 +0000";
layers = (
{
anchors = (
{
name = Anchor11;
position = "{907, -4}";
},
{
name = Anchor2;
position = "{915, 590}";
},
{
name = Anchor6;
position = "{889, -293}";
},
{
name = Anchor9;
position = "{1148, 300}";
},
{
name = bottom;
position = "{889, -293}";
},
{
name = halant;
position = "{907, -4}";
},
{
name = right;
position = "{1148, 300}";
},
{
name = top;
position = "{915, 590}";
}
);
layerId = UUID0;
paths = (
{
closed = 1;
nodes = (
"1038 -270 OFFCURVE",
"1112 -161 OFFCURVE",
"1112 -66 CURVE SMOOTH",
"1112 -10 OFFCURVE",
"1081 55 OFFCURVE",
"996 55 CURVE SMOOTH",
"961 55 OFFCURVE",
"924 41 OFFCURVE",
"894 23 CURVE",
"919 -21 LINE",
"948 -6 OFFCURVE",
"969 1 OFFCURVE",
"994 1 CURVE SMOOTH",
"1032 1 OFFCURVE",
"1059 -22 OFFCURVE",
"1059 -58 CURVE SMOOTH",
"1059 -119 OFFCURVE",
"1002 -168 OFFCURVE",
"890 -168 CURVE SMOOTH",
"781 -168 OFFCURVE",
"720 -121 OFFCURVE",
"720 -51 CURVE SMOOTH",
"720 1 OFFCURVE",
"745 32 OFFCURVE",
"791 70 CURVE SMOOTH",
"864 131 OFFCURVE",
"931 198 OFFCURVE",
"931 293 CURVE SMOOTH",
"931 371 OFFCURVE",
"889 442 OFFCURVE",
"759 442 CURVE SMOOTH",
"674 442 OFFCURVE",
"619 400 OFFCURVE",
"619 343 CURVE SMOOTH",
"619 306 OFFCURVE",
"633 282 OFFCURVE",
"633 242 CURVE SMOOTH",
"633 165 OFFCURVE",
"535 92 OFFCURVE",
"397 92 CURVE SMOOTH",
"224 92 OFFCURVE",
"157 147 OFFCURVE",
"157 209 CURVE",
"143 194 LINE",
"260 252 OFFCURVE",
"407 334 OFFCURVE",
"407 471 CURVE SMOOTH",
"407 544 OFFCURVE",
"355 591 OFFCURVE",
"259 591 CURVE SMOOTH",
"178 591 OFFCURVE",
"101 539 OFFCURVE",
"54 473 CURVE",
"78 450 LINE",
"139 494 OFFCURVE",
"190 517 OFFCURVE",
"254 517 CURVE SMOOTH",
"311 517 OFFCURVE",
"346 495 OFFCURVE",
"346 449 CURVE SMOOTH",
"346 375 OFFCURVE",
"247 300 OFFCURVE",
"102 241 CURVE",
"102 229 LINE SMOOTH",
"102 84 OFFCURVE",
"204 -10 OFFCURVE",
"385 -10 CURVE SMOOTH",
"559 -10 OFFCURVE",
"684 128 OFFCURVE",
"684 230 CURVE SMOOTH",
"684 265 OFFCURVE",
"674 283 OFFCURVE",
"674 322 CURVE SMOOTH",
"674 352 OFFCURVE",
"698 383 OFFCURVE",
"759 383 CURVE SMOOTH",
"836 383 OFFCURVE",
"876 349 OFFCURVE",
"876 285 CURVE SMOOTH",
"876 214 OFFCURVE",
"827 163 OFFCURVE",
"771 117 CURVE SMOOTH",
"690 50 OFFCURVE",
"654 -6 OFFCURVE",
"654 -71 CURVE SMOOTH",
"654 -198 OFFCURVE",
"749 -270 OFFCURVE",
"878 -270 CURVE SMOOTH"
);
},
{
closed = 1;
nodes = (
"78 450 LINE",
"85 483 LINE",
"80 490 LINE",
"83 497 OFFCURVE",
"85 514 OFFCURVE",
"85 531 CURVE SMOOTH",
"85 591 LINE",
"28 591 LINE",
"28 450 LINE"
);
}
);
width = 1077;
}
);
},
{
glyphname = "nna_dda-divesakuru";
lastChange = "2022-01-28 16:15:27 +0000";
layers = (
{
anchors = (
{
name = Anchor2;
position = "{795, 590}";
},
{
name = Anchor6;
position = "{769, -38}";
},
{
name = bottom;
position = "{769, -38}";
},
{
name = top;
position = "{795, 590}";
}
);
layerId = UUID0;
paths = (
{
closed = 1;
nodes = (
"634 -10 OFFCURVE",
"691 59 OFFCURVE",
"714 129 CURVE",
"743 44 OFFCURVE",
"795 -10 OFFCURVE",
"893 -10 CURVE SMOOTH",
"1006 -10 OFFCURVE",
"1077 58 OFFCURVE",
"1077 178 CURVE SMOOTH",
"1077 270 OFFCURVE",
"1024 338 OFFCURVE",
"954 373 CURVE",
"927 329 LINE",
"997 289 OFFCURVE",
"1014 240 OFFCURVE",
"1014 192 CURVE SMOOTH",
"1014 129 OFFCURVE",
"969 95 OFFCURVE",
"879 95 CURVE SMOOTH",
"808 95 OFFCURVE",
"748 131 OFFCURVE",
"741 204 CURVE",
"688 204 LINE",
"673 147 OFFCURVE",
"641 95 OFFCURVE",
"531 95 CURVE SMOOTH",
"473 95 OFFCURVE",
"437 119 OFFCURVE",
"437 163 CURVE SMOOTH",
"437 189 OFFCURVE",
"448 219 OFFCURVE",
"513 261 CURVE SMOOTH",
"587 309 OFFCURVE",
"650 360 OFFCURVE",
"650 455 CURVE SMOOTH",
"650 526 OFFCURVE",
"600 586 OFFCURVE",
"513 586 CURVE SMOOTH",
"411 586 OFFCURVE",
"375 513 OFFCURVE",
"356 456 CURVE",
"337 513 OFFCURVE",
"297 586 OFFCURVE",
"200 586 CURVE SMOOTH",
"111 586 OFFCURVE",
"34 510 OFFCURVE",
"34 400 CURVE SMOOTH",
"34 300 OFFCURVE",
"81 247 OFFCURVE",
"148 247 CURVE SMOOTH",
"210 247 OFFCURVE",
"248 287 OFFCURVE",
"248 346 CURVE SMOOTH",
"248 396 OFFCURVE",
"221 440 OFFCURVE",
"154 440 CURVE SMOOTH",
"104 440 OFFCURVE",
"77 406 OFFCURVE",
"77 368 CURVE SMOOTH",
"77 358 OFFCURVE",
"78 342 OFFCURVE",
"80 334 CURVE",
"91 361 LINE",
"85 380 OFFCURVE",
"84 390 OFFCURVE",
"84 402 CURVE SMOOTH",
"84 452 OFFCURVE",
"127 500 OFFCURVE",
"200 500 CURVE SMOOTH",
"282 500 OFFCURVE",
"319 452 OFFCURVE",
"330 376 CURVE",
"383 376 LINE",
"394 452 OFFCURVE",
"428 500 OFFCURVE",
"506 500 CURVE SMOOTH",
"555 500 OFFCURVE",
"584 471 OFFCURVE",
"584 430 CURVE SMOOTH",
"584 379 OFFCURVE",
"541 336 OFFCURVE",
"484 301 CURVE SMOOTH",
"413 258 OFFCURVE",
"371 204 OFFCURVE",
"371 141 CURVE SMOOTH",
"371 42 OFFCURVE",
"441 -10 OFFCURVE",
"533 -10 CURVE SMOOTH"
);
},
{
closed = 1;
nodes = (
"115 295 OFFCURVE",
"98 307 OFFCURVE",
"98 343 CURVE SMOOTH",
"98 374 OFFCURVE",
"115 393 OFFCURVE",
"150 393 CURVE SMOOTH",
"186 393 OFFCURVE",
"202 375 OFFCURVE",
"202 345 CURVE SMOOTH",
"202 310 OFFCURVE",
"182 295 OFFCURVE",
"150 295 CURVE SMOOTH"
);
}
);
width = 1117;
}
);
},
{
glyphname = "ta_tha-divesakuru";
lastChange = "2022-02-03 18:10:33 +0000";
layers = (
{
anchors = (
{
name = Anchor11;
position = "{774, -9}";
},
{
name = Anchor2;
position = "{695, 590}";
},
{
name = Anchor6;
position = "{689, -293}";
},
{
name = Anchor9;
position = "{938, 300}";
},
{
name = bottom;
position = "{689, -293}";
},
{
name = halant;
position = "{774, -9}";
},
{
name = right;
position = "{938, 300}";
},
{
name = top;
position = "{695, 590}";
}
);
layerId = UUID0;
paths = (
{
closed = 1;
nodes = (
"785 -270 OFFCURVE",
"873 -160 OFFCURVE",
"873 -59 CURVE SMOOTH",
"873 -10 OFFCURVE",
"849 47 OFFCURVE",
"772 47 CURVE SMOOTH",
"712 47 OFFCURVE",
"654 7 OFFCURVE",
"654 -109 CURVE",
"708 -109 LINE",
"708 -25 OFFCURVE",
"738 -3 OFFCURVE",
"773 -3 CURVE SMOOTH",
"802 -3 OFFCURVE",
"820 -24 OFFCURVE",
"820 -57 CURVE SMOOTH",
"820 -102 OFFCURVE",
"789 -170 OFFCURVE",
"657 -170 CURVE SMOOTH",
"568 -170 OFFCURVE",
"532 -125 OFFCURVE",
"532 -69 CURVE SMOOTH",
"532 -11 OFFCURVE",
"550 31 OFFCURVE",
"568 72 CURVE SMOOTH",
"586 113 OFFCURVE",
"603 155 OFFCURVE",
"603 213 CURVE SMOOTH",
"603 286 OFFCURVE",
"555 369 OFFCURVE",
"422 369 CURVE SMOOTH",
"216 369 OFFCURVE",
"63 273 OFFCURVE",
"63 130 CURVE SMOOTH",
"63 36 OFFCURVE",
"123 -10 OFFCURVE",
"214 -10 CURVE SMOOTH",
"352 -10 OFFCURVE",
"452 119 OFFCURVE",
"452 319 CURVE SMOOTH",
"452 496 OFFCURVE",
"362 589 OFFCURVE",
"239 589 CURVE SMOOTH",
"122 589 OFFCURVE",
"50 507 OFFCURVE",
"40 403 CURVE",
"91 395 LINE",
"105 436 OFFCURVE",
"149 502 OFFCURVE",
"236 502 CURVE SMOOTH",
"313 502 OFFCURVE",
"392 450 OFFCURVE",
"392 304 CURVE SMOOTH",
"392 147 OFFCURVE",
"316 46 OFFCURVE",
"216 46 CURVE SMOOTH",
"160 46 OFFCURVE",
"134 77 OFFCURVE",
"134 136 CURVE SMOOTH",
"134 246 OFFCURVE",
"250 313 OFFCURVE",
"426 313 CURVE SMOOTH",
"508 313 OFFCURVE",
"547 273 OFFCURVE",
"547 205 CURVE SMOOTH",
"547 151 OFFCURVE",
"530 109 OFFCURVE",
"511 66 CURVE SMOOTH",
"490 18 OFFCURVE",
"469 -31 OFFCURVE",
"469 -101 CURVE SMOOTH",
"469 -202 OFFCURVE",
"536 -270 OFFCURVE",
"645 -270 CURVE SMOOTH"
);
}
);
width = 838;
}
);
},
{
glyphname = "ta_medya-divesakuru";
lastChange = "2022-02-03 16:39:14 +0000";
layers = (
{
anchors = (
{
name = Anchor2;
position = "{846, 536}";
},
{
name = Anchor3;
position = "{1016, 495}";
},
{
name = Anchor4;
position = "{815, 292}";
},
{
name = Anchor6;
position = "{995, -208}";
},
{
name = bottom;
position = "{995, -208}";
},
{
name = right;
position = "{1281, 300}";
},
{
name = top;
position = "{846, 536}";
},
{
name = topleft;
position = "{815, 292}";
},
{
name = topright;
position = "{1016, 495}";
}
);
layerId = UUID0;
paths = (
{
closed = 1;
nodes = (
"487 -271 OFFCURVE",
"727 -145 OFFCURVE",
"727 122 CURVE SMOOTH",
"727 269 OFFCURVE",
"628 369 OFFCURVE",
"465 369 CURVE SMOOTH",
"259 369 OFFCURVE",
"106 273 OFFCURVE",
"106 130 CURVE SMOOTH",
"106 36 OFFCURVE",
"166 -10 OFFCURVE",
"257 -10 CURVE SMOOTH",
"395 -10 OFFCURVE",
"495 119 OFFCURVE",
"495 319 CURVE SMOOTH",
"495 496 OFFCURVE",
"405 589 OFFCURVE",
"282 589 CURVE SMOOTH",
"165 589 OFFCURVE",
"93 507 OFFCURVE",
"83 403 CURVE",
"134 395 LINE",
"148 436 OFFCURVE",
"192 502 OFFCURVE",
"279 502 CURVE SMOOTH",
"356 502 OFFCURVE",
"435 450 OFFCURVE",
"435 304 CURVE SMOOTH",
"435 147 OFFCURVE",
"359 46 OFFCURVE",
"259 46 CURVE SMOOTH",
"203 46 OFFCURVE",
"176 77 OFFCURVE",
"176 136 CURVE SMOOTH",
"176 246 OFFCURVE",
"293 315 OFFCURVE",
"469 315 CURVE SMOOTH",
"601 315 OFFCURVE",
"667 230 OFFCURVE",
"667 120 CURVE SMOOTH",
"667 -118 OFFCURVE",
"439 -180 OFFCURVE",
"281 -180 CURVE SMOOTH",
"180 -180 OFFCURVE",
"109 -166 OFFCURVE",
"54 -145 CURVE",
"40 -192 LINE",
"87 -235 OFFCURVE",
"181 -271 OFFCURVE",
"286 -271 CURVE SMOOTH"
);
},
{
closed = 1;
nodes = (
"903 -103 OFFCURVE",
"1015 18 OFFCURVE",
"1015 148 CURVE SMOOTH",
"1015 311 OFFCURVE",
"885 334 OFFCURVE",
"797 334 CURVE SMOOTH",
"738 334 OFFCURVE",
"697 326 OFFCURVE",
"633 312 CURVE",
"650 273 LINE",
"705 282 OFFCURVE",
"748 286 OFFCURVE",
"782 286 CURVE SMOOTH",
"864 286 OFFCURVE",
"945 265 OFFCURVE",
"945 140 CURVE SMOOTH",
"945 29 OFFCURVE",
"856 -73 OFFCURVE",
"724 -196 CURVE",
"764 -223 LINE"
);
},
{
closed = 1;
nodes = (
"1014 -237 OFFCURVE",
"1244 -71 OFFCURVE",
"1244 181 CURVE SMOOTH",
"1244 229 OFFCURVE",
"1232 276 OFFCURVE",
"1216 296 CURVE",
"1169 288 LINE",
"1176 262 OFFCURVE",
"1180 228 OFFCURVE",
"1180 206 CURVE SMOOTH",
"1180 -107 OFFCURVE",
"915 -196 OFFCURVE",
"724 -196 CURVE",
"724 -237 LINE"
);
}
);
width = 1284;
}
);
},
{
glyphname = "da_medya-divesakuru";
lastChange = "2022-02-03 16:39:36 +0000";
layers = (
{
anchors = (
{
name = Anchor2;
position = "{627, 536}";
},
{
name = Anchor3;
position = "{766, 495}";
},
{
name = Anchor4;
position = "{625, 252}";
},
{
name = Anchor6;
position = "{775, -208}";
},
{
name = bottom;
position = "{775, -208}";
},
{
name = right;
position = "{1031, 300}";
},
{
name = top;
position = "{627, 536}";
},
{
name = topleft;
position = "{625, 252}";
},
{
name = topright;
position = "{766, 495}";
}
);
layerId = UUID0;
paths = (
{
closed = 1;
nodes = (
"410 -11 OFFCURVE",
"506 74 OFFCURVE",
"506 161 CURVE SMOOTH",
"506 265 OFFCURVE",
"425 286 OFFCURVE",
"267 291 CURVE SMOOTH",
"210 293 OFFCURVE",
"185 302 OFFCURVE",
"185 327 CURVE SMOOTH",
"185 360 OFFCURVE",
"227 365 OFFCURVE",
"310 368 CURVE SMOOTH",
"415 372 OFFCURVE",
"502 394 OFFCURVE",
"502 479 CURVE SMOOTH",
"502 550 OFFCURVE",
"422 589 OFFCURVE",
"252 589 CURVE SMOOTH",
"177 589 OFFCURVE",
"106 580 OFFCURVE",
"67 568 CURVE",
"83 520 LINE",
"127 529 OFFCURVE",
"178 537 OFFCURVE",
"259 537 CURVE SMOOTH",
"344 537 OFFCURVE",
"412 527 OFFCURVE",
"412 476 CURVE SMOOTH",
"412 430 OFFCURVE",
"374 423 OFFCURVE",
"274 416 CURVE SMOOTH",
"210 412 OFFCURVE",
"128 398 OFFCURVE",
"128 321 CURVE SMOOTH",
"128 247 OFFCURVE",
"206 242 OFFCURVE",
"278 240 CURVE SMOOTH",
"347 238 OFFCURVE",
"414 226 OFFCURVE",
"414 162 CURVE SMOOTH",
"414 86 OFFCURVE",
"344 45 OFFCURVE",
"205 45 CURVE SMOOTH",
"153 45 OFFCURVE",
"113 51 OFFCURVE",
"47 63 CURVE",
"36 11 LINE",
"94 -5 OFFCURVE",
"150 -11 OFFCURVE",
"218 -11 CURVE SMOOTH"
);
},
{
closed = 1;
nodes = (
"653 -143 OFFCURVE",
"765 -22 OFFCURVE",
"765 118 CURVE SMOOTH",
"765 261 OFFCURVE",
"653 294 OFFCURVE",
"567 294 CURVE SMOOTH",
"508 294 OFFCURVE",
"467 286 OFFCURVE",
"403 272 CURVE",
"420 233 LINE",
"475 242 OFFCURVE",
"518 246 OFFCURVE",
"552 246 CURVE SMOOTH",
"631 246 OFFCURVE",
"695 216 OFFCURVE",
"695 110 CURVE SMOOTH",
"695 -11 OFFCURVE",
"606 -113 OFFCURVE",
"474 -236 CURVE",
"514 -263 LINE"
);
},
{
closed = 1;
nodes = (
"784 -277 OFFCURVE",
"994 -71 OFFCURVE",
"994 161 CURVE SMOOTH",
"994 209 OFFCURVE",
"982 256 OFFCURVE",
"966 276 CURVE",
"919 268 LINE",
"926 242 OFFCURVE",
"930 208 OFFCURVE",
"930 186 CURVE SMOOTH",
"930 -107 OFFCURVE",
"685 -236 OFFCURVE",
"474 -236 CURVE",
"474 -277 LINE"
);
}
);
width = 1034;
}
);
},
{
glyphname = "da_vowelU-divesakuru";
lastChange = "2022-02-03 17:10:57 +0000";
layers = (
{
anchors = (
{
name = Anchor2;
position = "{672, 536}";
},
{
name = Anchor4;
position = "{635, 199}";
},
{
name = Anchor6;
position = "{676, -353}";
},
{
name = bottom;
position = "{676, -353}";
},
{
name = top;
position = "{672, 536}";
},
{
name = topleft;
position = "{635, 199}";
}
);
layerId = UUID0;
paths = (
{
closed = 1;
nodes = (
"410 -11 OFFCURVE",
"506 74 OFFCURVE",
"506 161 CURVE SMOOTH",
"506 265 OFFCURVE",
"425 286 OFFCURVE",
"267 291 CURVE SMOOTH",
"210 293 OFFCURVE",
"185 302 OFFCURVE",
"185 327 CURVE SMOOTH",
"185 360 OFFCURVE",
"227 365 OFFCURVE",
"310 368 CURVE SMOOTH",
"415 372 OFFCURVE",
"502 394 OFFCURVE",
"502 479 CURVE SMOOTH",
"502 550 OFFCURVE",
"422 589 OFFCURVE",
"252 589 CURVE SMOOTH",
"177 589 OFFCURVE",
"106 580 OFFCURVE",
"67 568 CURVE",
"83 520 LINE",
"127 529 OFFCURVE",
"178 537 OFFCURVE",
"259 537 CURVE SMOOTH",
"337 537 OFFCURVE",
"402 527 OFFCURVE",
"402 476 CURVE SMOOTH",
"402 432 OFFCURVE",
"369 422 OFFCURVE",
"274 416 CURVE SMOOTH",
"210 412 OFFCURVE",
"128 398 OFFCURVE",
"128 321 CURVE SMOOTH",
"128 247 OFFCURVE",
"206 242 OFFCURVE",
"278 240 CURVE SMOOTH",
"344 238 OFFCURVE",
"404 223 OFFCURVE",
"404 162 CURVE SMOOTH",
"404 89 OFFCURVE",
"340 45 OFFCURVE",
"205 45 CURVE SMOOTH",
"153 45 OFFCURVE",
"113 51 OFFCURVE",
"47 63 CURVE",
"36 11 LINE",
"94 -5 OFFCURVE",
"150 -11 OFFCURVE",
"218 -11 CURVE SMOOTH"
);
},
{
closed = 1;
nodes = (
"761 -305 OFFCURVE",
"802 -247 OFFCURVE",
"802 -113 CURVE SMOOTH",
"802 48 LINE SMOOTH",
"802 208 OFFCURVE",
"770 237 OFFCURVE",
"616 237 CURVE SMOOTH",
"446 237 LINE",
"446 180 LINE",
"639 180 LINE SMOOTH",
"735 180 OFFCURVE",
"742 153 OFFCURVE",
"742 24 CURVE SMOOTH",
"742 -98 LINE SMOOTH",
"742 -193 OFFCURVE",
"737 -246 OFFCURVE",
"676 -246 CURVE SMOOTH",
"615 -246 OFFCURVE",
"606 -193 OFFCURVE",
"606 -98 CURVE SMOOTH",
"606 55 LINE",
"550 55 LINE",
"550 -113 LINE SMOOTH",
"550 -247 OFFCURVE",
"591 -305 OFFCURVE",
"676 -305 CURVE SMOOTH"
);
}
);
width = 892;
}
);
},
{
glyphname = "dha_medya-divesakuru";
lastChange = "2022-02-03 16:43:32 +0000";
layers = (
{
anchors = (
{
name = Anchor2;
position = "{1019, 536}";
},
{
name = Anchor3;
position = "{1138, 495}";
},
{
name = Anchor4;
position = "{953, 401}";
},
{
name = Anchor6;
position = "{1115, -98}";
},
{
name = bottom;
position = "{1115, -98}";
},
{
name = right;
position = "{1403, 300}";
},
{
name = top;
position = "{1019, 536}";
},
{
name = topleft;
position = "{953, 401}";
},
{
name = topright;
position = "{1138, 495}";
}
);
layerId = UUID0;
paths = (
{
closed = 1;
nodes = (
"559 -10 OFFCURVE",
"664 113 OFFCURVE",
"664 214 CURVE SMOOTH",
"664 282 OFFCURVE",
"623 334 OFFCURVE",
"548 334 CURVE SMOOTH",
"494 334 OFFCURVE",
"435 295 OFFCURVE",
"435 207 CURVE SMOOTH",
"435 115 OFFCURVE",
"539 -10 OFFCURVE",
"682 -10 CURVE SMOOTH",
"843 -10 OFFCURVE",
"909 105 OFFCURVE",
"909 247 CURVE SMOOTH",
"909 305 OFFCURVE",
"898 354 OFFCURVE",
"874 400 CURVE",
"828 389 LINE",
"846 335 OFFCURVE",
"852 295 OFFCURVE",
"852 254 CURVE SMOOTH",
"852 127 OFFCURVE",
"786 82 OFFCURVE",
"667 82 CURVE SMOOTH",
"566 82 OFFCURVE",
"488 125 OFFCURVE",
"488 206 CURVE SMOOTH",
"488 251 OFFCURVE",
"509 276 OFFCURVE",
"547 276 CURVE SMOOTH",
"581 276 OFFCURVE",
"605 251 OFFCURVE",
"605 212 CURVE SMOOTH",
"605 137 OFFCURVE",
"544 85 OFFCURVE",
"401 85 CURVE SMOOTH",
"309 85 OFFCURVE",
"259 108 OFFCURVE",
"259 165 CURVE SMOOTH",
"259 217 OFFCURVE",
"295 258 OFFCURVE",
"342 301 CURVE SMOOTH",
"389 344 OFFCURVE",
"435 387 OFFCURVE",
"435 461 CURVE SMOOTH",
"435 534 OFFCURVE",
"376 589 OFFCURVE",
"255 589 CURVE SMOOTH",
"125 589 OFFCURVE",
"40 528 OFFCURVE",
"40 450 CURVE SMOOTH",
"40 377 OFFCURVE",
"89 337 OFFCURVE",
"157 337 CURVE SMOOTH",
"221 337 OFFCURVE",
"276 367 OFFCURVE",
"276 446 CURVE SMOOTH",
"276 501 OFFCURVE",
"238 538 OFFCURVE",
"183 538 CURVE SMOOTH",
"173 538 OFFCURVE",
"157 537 OFFCURVE",
"149 535 CURVE",
"159 517 LINE",
"180 526 OFFCURVE",
"211 537 OFFCURVE",
"261 537 CURVE SMOOTH",
"323 537 OFFCURVE",
"375 512 OFFCURVE",
"375 459 CURVE SMOOTH",
"375 396 OFFCURVE",
"335 359 OFFCURVE",
"293 321 CURVE SMOOTH",
"243 275 OFFCURVE",
"193 228 OFFCURVE",
"193 149 CURVE SMOOTH",
"193 24 OFFCURVE",
"294 -10 OFFCURVE",
"390 -10 CURVE SMOOTH"
);
},
{
closed = 1;
nodes = (
"116 388 OFFCURVE",
"97 413 OFFCURVE",
"97 449 CURVE SMOOTH",
"97 484 OFFCURVE",
"123 506 OFFCURVE",
"158 506 CURVE SMOOTH",
"202 506 OFFCURVE",
"219 478 OFFCURVE",
"219 449 CURVE SMOOTH",
"219 408 OFFCURVE",
"196 388 OFFCURVE",
"159 388 CURVE SMOOTH"
);
},
{
closed = 1;
nodes = (
"1023 7 OFFCURVE",
"1135 128 OFFCURVE",
"1135 268 CURVE SMOOTH",
"1135 411 OFFCURVE",
"1013 444 OFFCURVE",
"947 444 CURVE SMOOTH",
"905 444 OFFCURVE",
"862 439 OFFCURVE",
"814 422 CURVE",
"830 383 LINE",
"869 393 OFFCURVE",
"895 396 OFFCURVE",
"927 396 CURVE SMOOTH",
"989 396 OFFCURVE",
"1065 374 OFFCURVE",
"1065 260 CURVE SMOOTH",
"1065 139 OFFCURVE",
"976 37 OFFCURVE",
"844 -86 CURVE",
"884 -113 LINE"
);
},
{
closed = 1;
nodes = (
"1134 -127 OFFCURVE",
"1364 29 OFFCURVE",
"1364 214 CURVE SMOOTH",
"1364 253 OFFCURVE",
"1352 283 OFFCURVE",
"1339 306 CURVE",
"1292 298 LINE",
"1297 271 OFFCURVE",
"1300 249 OFFCURVE",
"1300 226 CURVE SMOOTH",
"1300 -6 OFFCURVE",
"1029 -86 OFFCURVE",
"844 -86 CURVE",
"844 -127 LINE"
);
}
);
width = 1404;
}
);
},
{
glyphname = "dha_vowelI-divesakuru";
lastChange = "2022-02-03 17:11:15 +0000";
layers = (
{
anchors = (
{
name = Anchor2;
position = "{971, 714}";
},
{
name = Anchor4;
position = "{932, 622}";
},
{
name = Anchor6;
position = "{1019, -38}";
},
{
name = bottom;
position = "{1019, -38}";
},
{
name = top;
position = "{971, 714}";
},
{
name = topleft;
position = "{932, 622}";
}
);
layerId = UUID0;
paths = (
{
closed = 1;
nodes = (
"1132 82 OFFCURVE",
"1211 238 OFFCURVE",
"1211 395 CURVE SMOOTH",
"1211 571 OFFCURVE",
"1116 689 OFFCURVE",
"967 689 CURVE SMOOTH",
"838 689 OFFCURVE",
"790 611 OFFCURVE",
"790 535 CURVE SMOOTH",
"790 482 OFFCURVE",
"803 442 OFFCURVE",
"819 401 CURVE SMOOTH",
"836 357 OFFCURVE",
"852 311 OFFCURVE",
"852 245 CURVE SMOOTH",
"852 128 OFFCURVE",
"786 82 OFFCURVE",
"667 82 CURVE SMOOTH",
"566 82 OFFCURVE",
"488 125 OFFCURVE",
"488 206 CURVE SMOOTH",
"488 251 OFFCURVE",
"509 276 OFFCURVE",
"547 276 CURVE SMOOTH",
"581 276 OFFCURVE",
"605 251 OFFCURVE",
"605 212 CURVE SMOOTH",
"605 137 OFFCURVE",
"544 85 OFFCURVE",
"401 85 CURVE SMOOTH",
"309 85 OFFCURVE",
"259 108 OFFCURVE",
"259 165 CURVE SMOOTH",
"259 217 OFFCURVE",
"295 258 OFFCURVE",
"342 301 CURVE SMOOTH",
"389 344 OFFCURVE",
"435 387 OFFCURVE",
"435 461 CURVE SMOOTH",
"435 534 OFFCURVE",
"376 589 OFFCURVE",
"255 589 CURVE SMOOTH",
"125 589 OFFCURVE",
"40 528 OFFCURVE",
"40 450 CURVE SMOOTH",
"40 377 OFFCURVE",
"89 337 OFFCURVE",
"157 337 CURVE SMOOTH",
"221 337 OFFCURVE",
"276 367 OFFCURVE",
"276 446 CURVE SMOOTH",
"276 501 OFFCURVE",
"238 538 OFFCURVE",
"183 538 CURVE SMOOTH",
"173 538 OFFCURVE",
"157 537 OFFCURVE",
"149 535 CURVE",
"159 517 LINE",
"180 526 OFFCURVE",
"211 537 OFFCURVE",
"261 537 CURVE SMOOTH",
"323 537 OFFCURVE",
"375 512 OFFCURVE",
"375 459 CURVE SMOOTH",
"375 396 OFFCURVE",
"335 359 OFFCURVE",
"293 321 CURVE SMOOTH",
"243 275 OFFCURVE",
"193 228 OFFCURVE",
"193 149 CURVE SMOOTH",
"193 24 OFFCURVE",
"294 -10 OFFCURVE",
"390 -10 CURVE SMOOTH",
"559 -10 OFFCURVE",
"664 113 OFFCURVE",
"664 214 CURVE SMOOTH",
"664 282 OFFCURVE",
"623 334 OFFCURVE",
"548 334 CURVE SMOOTH",
"494 334 OFFCURVE",
"435 295 OFFCURVE",
"435 207 CURVE SMOOTH",
"435 115 OFFCURVE",
"539 -10 OFFCURVE",
"682 -10 CURVE SMOOTH",
"843 -10 OFFCURVE",
"909 105 OFFCURVE",
"909 237 CURVE SMOOTH",
"909 306 OFFCURVE",
"891 357 OFFCURVE",
"873 406 CURVE SMOOTH",
"857 449 OFFCURVE",
"844 490 OFFCURVE",
"844 540 CURVE SMOOTH",
"844 592 OFFCURVE",
"876 637 OFFCURVE",
"968 637 CURVE SMOOTH",
"1084 637 OFFCURVE",
"1151 534 OFFCURVE",
"1151 387 CURVE SMOOTH",
"1151 249 OFFCURVE",
"1085 112 OFFCURVE",
"1004 19 CURVE",
"1036 -12 LINE"
);
},
{
closed = 1;
nodes = (
"116 388 OFFCURVE",
"97 413 OFFCURVE",
"97 449 CURVE SMOOTH",
"97 484 OFFCURVE",
"123 506 OFFCURVE",
"158 506 CURVE SMOOTH",
"202 506 OFFCURVE",
"219 478 OFFCURVE",
"219 449 CURVE SMOOTH",
"219 408 OFFCURVE",
"196 388 OFFCURVE",
"159 388 CURVE SMOOTH"
);
}
);
width = 1286;
}
);
},
{
glyphname = "dha_vowelII-divesakuru";
lastChange = "2022-02-03 17:11:22 +0000";
layers = (
{
anchors = (
{
name = Anchor2;
position = "{1071, 714}";
},
{
name = Anchor4;
position = "{1035, 662}";
},
{
name = Anchor6;
position = "{1346, -138}";
},
{
name = bottom;
position = "{1119, -138}";
},
{
name = top;
position = "{1071, 714}";
},
{
name = topleft;
position = "{1035, 662}";
}
);
layerId = UUID0;
paths = (
{
closed = 1;
nodes = (
"1201 -93 OFFCURVE",
"1349 36 OFFCURVE",
"1349 215 CURVE SMOOTH",
"1349 349 OFFCURVE",
"1257 444 OFFCURVE",
"1138 444 CURVE SMOOTH",
"1069 444 OFFCURVE",
"1019 398 OFFCURVE",
"1019 333 CURVE SMOOTH",
"1019 289 OFFCURVE",
"1055 244 OFFCURVE",
"1126 244 CURVE SMOOTH",
"1207 244 OFFCURVE",
"1310 310 OFFCURVE",
"1310 469 CURVE SMOOTH",
"1310 628 OFFCURVE",
"1201 713 OFFCURVE",
"1032 713 CURVE SMOOTH",
"838 713 OFFCURVE",
"790 591 OFFCURVE",
"790 515 CURVE SMOOTH",
"790 468 OFFCURVE",
"802 434 OFFCURVE",
"818 398 CURVE SMOOTH",
"836 358 OFFCURVE",
"852 313 OFFCURVE",
"852 245 CURVE SMOOTH",
"852 128 OFFCURVE",
"786 82 OFFCURVE",
"667 82 CURVE SMOOTH",
"566 82 OFFCURVE",
"488 125 OFFCURVE",
"488 206 CURVE SMOOTH",
"488 251 OFFCURVE",
"509 276 OFFCURVE",
"547 276 CURVE SMOOTH",
"581 276 OFFCURVE",
"605 251 OFFCURVE",
"605 212 CURVE SMOOTH",
"605 137 OFFCURVE",
"544 85 OFFCURVE",
"401 85 CURVE SMOOTH",
"309 85 OFFCURVE",
"259 108 OFFCURVE",
"259 165 CURVE SMOOTH",
"259 217 OFFCURVE",
"295 258 OFFCURVE",
"342 301 CURVE SMOOTH",
"389 344 OFFCURVE",
"435 387 OFFCURVE",
"435 461 CURVE SMOOTH",
"435 534 OFFCURVE",
"376 589 OFFCURVE",
"255 589 CURVE SMOOTH",
"125 589 OFFCURVE",
"40 528 OFFCURVE",
"40 450 CURVE SMOOTH",
"40 377 OFFCURVE",
"89 337 OFFCURVE",
"157 337 CURVE SMOOTH",
"221 337 OFFCURVE",
"276 367 OFFCURVE",
"276 446 CURVE SMOOTH",
"276 501 OFFCURVE",
"238 538 OFFCURVE",
"183 538 CURVE SMOOTH",
"173 538 OFFCURVE",
"157 537 OFFCURVE",
"149 535 CURVE",
"159 517 LINE",
"180 526 OFFCURVE",
"211 537 OFFCURVE",
"261 537 CURVE SMOOTH",
"323 537 OFFCURVE",
"375 512 OFFCURVE",
"375 459 CURVE SMOOTH",
"375 396 OFFCURVE",
"335 359 OFFCURVE",
"293 321 CURVE SMOOTH",
"243 275 OFFCURVE",
"193 228 OFFCURVE",
"193 149 CURVE SMOOTH",
"193 24 OFFCURVE",
"294 -10 OFFCURVE",
"390 -10 CURVE SMOOTH",
"559 -10 OFFCURVE",
"664 113 OFFCURVE",
"664 214 CURVE SMOOTH",
"664 282 OFFCURVE",
"623 334 OFFCURVE",
"548 334 CURVE SMOOTH",
"494 334 OFFCURVE",
"435 295 OFFCURVE",
"435 207 CURVE SMOOTH",
"435 115 OFFCURVE",
"539 -10 OFFCURVE",
"682 -10 CURVE SMOOTH",
"843 -10 OFFCURVE",
"909 105 OFFCURVE",
"909 237 CURVE SMOOTH",
"909 307 OFFCURVE",
"890 356 OFFCURVE",
"872 401 CURVE SMOOTH",
"857 438 OFFCURVE",
"844 475 OFFCURVE",
"844 520 CURVE SMOOTH",
"844 572 OFFCURVE",
"876 661 OFFCURVE",
"1037 661 CURVE SMOOTH",
"1173 661 OFFCURVE",
"1256 591 OFFCURVE",
"1256 467 CURVE SMOOTH",
"1256 342 OFFCURVE",
"1185 295 OFFCURVE",
"1129 295 CURVE SMOOTH",
"1087 295 OFFCURVE",
"1071 319 OFFCURVE",
"1071 343 CURVE SMOOTH",
"1071 368 OFFCURVE",
"1087 401 OFFCURVE",
"1138 401 CURVE SMOOTH",
"1236 401 OFFCURVE",
"1290 318 OFFCURVE",
"1290 227 CURVE SMOOTH",
"1290 78 OFFCURVE",
"1144 -16 OFFCURVE",
"984 -69 CURVE",
"995 -121 LINE"
);
},
{
closed = 1;
nodes = (
"116 388 OFFCURVE",
"97 413 OFFCURVE",
"97 449 CURVE SMOOTH",
"97 484 OFFCURVE",
"123 506 OFFCURVE",
"158 506 CURVE SMOOTH",
"202 506 OFFCURVE",
"219 478 OFFCURVE",
"219 449 CURVE SMOOTH",
"219 408 OFFCURVE",
"196 388 OFFCURVE",
"159 388 CURVE SMOOTH"
);
}
);
width = 1424;
}
);
},
{
glyphname = "dha_vowelU-divesakuru";
lastChange = "2022-02-03 17:11:36 +0000";
layers = (
{
anchors = (
{
name = Anchor2;
position = "{1092, 536}";
},
{
name = Anchor4;
position = "{1046, 367}";
},
{
name = Anchor6;
position = "{1344, -273}";
},
{
name = bottom;
position = "{1117, -273}";
},
{
name = top;
position = "{1092, 536}";
},
{
name = topleft;
position = "{1046, 367}";
}
);
layerId = UUID0;
paths = (
{
closed = 1;
nodes = (
"1204 -235 OFFCURVE",
"1245 -177 OFFCURVE",
"1245 -43 CURVE SMOOTH",
"1245 218 LINE SMOOTH",
"1245 378 OFFCURVE",
"1213 407 OFFCURVE",
"1059 407 CURVE SMOOTH",
"819 407 LINE",
"846 335 OFFCURVE",
"852 295 OFFCURVE",
"852 254 CURVE SMOOTH",
"852 127 OFFCURVE",
"786 82 OFFCURVE",
"667 82 CURVE SMOOTH",
"566 82 OFFCURVE",
"488 125 OFFCURVE",
"488 206 CURVE SMOOTH",
"488 251 OFFCURVE",
"509 276 OFFCURVE",
"547 276 CURVE SMOOTH",
"581 276 OFFCURVE",
"605 251 OFFCURVE",
"605 212 CURVE SMOOTH",
"605 137 OFFCURVE",
"544 85 OFFCURVE",
"401 85 CURVE SMOOTH",
"309 85 OFFCURVE",
"259 108 OFFCURVE",
"259 165 CURVE SMOOTH",
"259 217 OFFCURVE",
"295 258 OFFCURVE",
"342 301 CURVE SMOOTH",
"389 344 OFFCURVE",
"435 387 OFFCURVE",
"435 461 CURVE SMOOTH",
"435 534 OFFCURVE",
"376 589 OFFCURVE",
"255 589 CURVE SMOOTH",
"125 589 OFFCURVE",
"40 528 OFFCURVE",
"40 450 CURVE SMOOTH",
"40 377 OFFCURVE",
"89 337 OFFCURVE",
"157 337 CURVE SMOOTH",
"221 337 OFFCURVE",
"276 367 OFFCURVE",
"276 446 CURVE SMOOTH",
"276 501 OFFCURVE",
"238 538 OFFCURVE",
"183 538 CURVE SMOOTH",
"173 538 OFFCURVE",
"157 537 OFFCURVE",
"149 535 CURVE",
"159 517 LINE",
"180 526 OFFCURVE",
"211 537 OFFCURVE",
"261 537 CURVE SMOOTH",
"323 537 OFFCURVE",
"375 512 OFFCURVE",
"375 459 CURVE SMOOTH",
"375 396 OFFCURVE",
"335 359 OFFCURVE",
"293 321 CURVE SMOOTH",
"243 275 OFFCURVE",
"193 228 OFFCURVE",
"193 149 CURVE SMOOTH",
"193 24 OFFCURVE",
"294 -10 OFFCURVE",
"390 -10 CURVE SMOOTH",
"559 -10 OFFCURVE",
"664 113 OFFCURVE",
"664 214 CURVE SMOOTH",
"664 282 OFFCURVE",
"623 334 OFFCURVE",
"548 334 CURVE SMOOTH",
"494 334 OFFCURVE",
"435 295 OFFCURVE",
"435 207 CURVE SMOOTH",
"435 115 OFFCURVE",
"539 -10 OFFCURVE",
"682 -10 CURVE SMOOTH",
"843 -10 OFFCURVE",
"909 105 OFFCURVE",
"909 247 CURVE SMOOTH",
"909 305 OFFCURVE",
"898 354 OFFCURVE",
"874 400 CURVE",
"847 350 LINE",
"1082 350 LINE SMOOTH",
"1178 350 OFFCURVE",
"1185 323 OFFCURVE",
"1185 194 CURVE SMOOTH",
"1185 -28 LINE SMOOTH",
"1185 -123 OFFCURVE",
"1180 -176 OFFCURVE",
"1119 -176 CURVE SMOOTH",
"1058 -176 OFFCURVE",
"1049 -123 OFFCURVE",
"1049 -28 CURVE SMOOTH",
"1049 225 LINE",
"993 225 LINE",
"993 -43 LINE SMOOTH",
"993 -177 OFFCURVE",
"1034 -235 OFFCURVE",
"1119 -235 CURVE SMOOTH"
);
},
{
closed = 1;
nodes = (
"116 388 OFFCURVE",
"97 413 OFFCURVE",
"97 449 CURVE SMOOTH",
"97 484 OFFCURVE",
"123 506 OFFCURVE",
"158 506 CURVE SMOOTH",
"202 506 OFFCURVE",
"219 478 OFFCURVE",
"219 449 CURVE SMOOTH",
"219 408 OFFCURVE",
"196 388 OFFCURVE",
"159 388 CURVE SMOOTH"
);
}
);
width = 1335;
}
);
},
{
glyphname = "na_ta_medra-divesakuru";
lastChange = "2022-02-03 16:07:02 +0000";
layers = (
{
anchors = (
{
name = Anchor2;
position = "{1445, 590}";
},
{
name = Anchor4;
position = "{1405, 264}";
},
{
name = Anchor6;
position = "{1239, -492}";
},
{
name = bottom;
position = "{1229, -492}";
},
{
name = top;
position = "{1435, 590}";
},
{
name = topleft;
position = "{1405, 264}";
}
);
components = (
{
name = u1191F;
},
{
name = u1191B;
transform = "{1, 0, 0, 1, 636, 0}";
}
);
layerId = UUID0;
paths = (
{
closed = 1;
nodes = (
"1256 -492 OFFCURVE",
"1542 -258 OFFCURVE",
"1542 82 CURVE SMOOTH",
"1542 222 OFFCURVE",
"1465 307 OFFCURVE",
"1370 307 CURVE SMOOTH",
"1331 307 OFFCURVE",
"1306 296 OFFCURVE",
"1274 268 CURVE",
"1311 237 LINE",
"1328 251 OFFCURVE",
"1343 256 OFFCURVE",
"1364 256 CURVE SMOOTH",
"1432 256 OFFCURVE",
"1482 195 OFFCURVE",
"1482 88 CURVE SMOOTH",
"1482 -245 OFFCURVE",
"1133 -407 OFFCURVE",
"774 -407 CURVE SMOOTH",
"557 -407 OFFCURVE",
"370 -363 OFFCURVE",
"223 -291 CURVE",
"199 -339 LINE",
"340 -434 OFFCURVE",
"530 -492 OFFCURVE",
"771 -492 CURVE SMOOTH"
);
}
);
width = 1582;
}
);
},
{
glyphname = "na_tha-divesakuru";
lastChange = "2022-02-03 18:10:59 +0000";
layers = (
{
anchors = (
{
name = Anchor11;
position = "{797, 246}";
},
{
name = Anchor2;
position = "{715, 590}";
},
{
name = Anchor6;
position = "{689, -38}";
},
{
name = bottom;
position = "{689, -38}";
},
{
name = halant;
position = "{797, 246}";
},
{
name = top;
position = "{715, 590}";
}
);
layerId = UUID0;
paths = (
{
closed = 1;
nodes = (
"794 -10 OFFCURVE",
"887 100 OFFCURVE",
"887 201 CURVE SMOOTH",
"887 250 OFFCURVE",
"863 307 OFFCURVE",
"786 307 CURVE SMOOTH",
"726 307 OFFCURVE",
"668 267 OFFCURVE",
"668 151 CURVE",
"722 151 LINE",
"722 235 OFFCURVE",
"752 257 OFFCURVE",
"787 257 CURVE SMOOTH",
"816 257 OFFCURVE",
"834 236 OFFCURVE",
"834 203 CURVE SMOOTH",
"834 158 OFFCURVE",
"803 90 OFFCURVE",
"631 90 CURVE SMOOTH",
"494 90 OFFCURVE",
"438 139 OFFCURVE",
"438 201 CURVE",
"424 176 LINE",
"541 263 OFFCURVE",
"619 328 OFFCURVE",
"619 443 CURVE SMOOTH",
"619 529 OFFCURVE",
"572 586 OFFCURVE",
"480 586 CURVE SMOOTH",
"389 586 OFFCURVE",
"342 514 OFFCURVE",
"323 447 CURVE",
"304 514 OFFCURVE",
"258 586 OFFCURVE",
"177 586 CURVE SMOOTH",
"76 586 OFFCURVE",
"25 510 OFFCURVE",
"25 416 CURVE SMOOTH",
"25 371 OFFCURVE",
"42 323 OFFCURVE",
"60 296 CURVE",
"106 309 LINE",
"95 334 OFFCURVE",
"86 364 OFFCURVE",
"86 396 CURVE SMOOTH",
"86 469 OFFCURVE",
"130 499 OFFCURVE",
"178 499 CURVE SMOOTH",
"248 499 OFFCURVE",
"286 438 OFFCURVE",
"296 367 CURVE",
"349 367 LINE",
"359 438 OFFCURVE",
"397 499 OFFCURVE",
"470 499 CURVE SMOOTH",
"529 499 OFFCURVE",
"557 466 OFFCURVE",
"557 423 CURVE SMOOTH",
"557 369 OFFCURVE",
"532 309 OFFCURVE",
"387 211 CURVE",
"387 199 LINE SMOOTH",
"387 84 OFFCURVE",
"469 -10 OFFCURVE",
"614 -10 CURVE SMOOTH"
);
}
);
width = 927;
}
);
},
{
glyphname = "na_dha-divesakuru";
lastChange = "2022-01-28 16:15:27 +0000";
layers = (
{
anchors = (
{
name = Anchor2;
position = "{825, 590}";
},
{
name = Anchor6;
position = "{799, -38}";
},
{
name = bottom;
position = "{799, -38}";
},
{
name = top;
position = "{825, 590}";
}
);
layerId = UUID0;
paths = (
{
closed = 1;
nodes = (
"783 -10 OFFCURVE",
"889 113 OFFCURVE",
"889 214 CURVE SMOOTH",
"889 282 OFFCURVE",
"848 334 OFFCURVE",
"773 334 CURVE SMOOTH",
"719 334 OFFCURVE",
"660 295 OFFCURVE",
"660 207 CURVE SMOOTH",
"660 115 OFFCURVE",
"764 -10 OFFCURVE",
"907 -10 CURVE SMOOTH",
"1068 -10 OFFCURVE",
"1134 105 OFFCURVE",
"1134 247 CURVE SMOOTH",
"1134 305 OFFCURVE",
"1123 354 OFFCURVE",
"1105 389 CURVE",
"1059 378 LINE",
"1071 335 OFFCURVE",
"1077 295 OFFCURVE",
"1077 254 CURVE SMOOTH",
"1077 127 OFFCURVE",
"1011 82 OFFCURVE",
"892 82 CURVE SMOOTH",
"791 82 OFFCURVE",
"713 125 OFFCURVE",
"713 206 CURVE SMOOTH",
"713 251 OFFCURVE",
"734 276 OFFCURVE",
"772 276 CURVE SMOOTH",
"806 276 OFFCURVE",
"828 251 OFFCURVE",
"828 212 CURVE SMOOTH",
"828 137 OFFCURVE",
"769 85 OFFCURVE",
"626 85 CURVE SMOOTH",
"496 85 OFFCURVE",
"438 139 OFFCURVE",
"438 201 CURVE",
"424 176 LINE",
"541 263 OFFCURVE",
"619 328 OFFCURVE",
"619 443 CURVE SMOOTH",
"619 529 OFFCURVE",
"572 586 OFFCURVE",
"480 586 CURVE SMOOTH",
"389 586 OFFCURVE",
"342 514 OFFCURVE",
"323 447 CURVE",
"304 514 OFFCURVE",
"258 586 OFFCURVE",
"177 586 CURVE SMOOTH",
"76 586 OFFCURVE",
"25 510 OFFCURVE",
"25 416 CURVE SMOOTH",
"25 371 OFFCURVE",
"42 323 OFFCURVE",
"60 296 CURVE",
"106 309 LINE",
"95 334 OFFCURVE",
"86 364 OFFCURVE",
"86 396 CURVE SMOOTH",
"86 469 OFFCURVE",
"130 499 OFFCURVE",
"178 499 CURVE SMOOTH",
"248 499 OFFCURVE",
"286 438 OFFCURVE",
"296 367 CURVE",
"349 367 LINE",
"359 438 OFFCURVE",
"397 499 OFFCURVE",
"470 499 CURVE SMOOTH",
"529 499 OFFCURVE",
"557 466 OFFCURVE",
"557 423 CURVE SMOOTH",
"557 369 OFFCURVE",
"532 309 OFFCURVE",
"387 211 CURVE",
"387 199 LINE SMOOTH",
"387 84 OFFCURVE",
"471 -10 OFFCURVE",
"614 -10 CURVE SMOOTH"
);
}
);
width = 1174;
}
);
},
{
glyphname = "na_dha_vowelI-divesakuru";
lastChange = "2022-02-03 17:11:49 +0000";
layers = (
{
anchors = (
{
name = Anchor2;
position = "{1192, 714}";
},
{
name = Anchor4;
position = "{1157, 622}";
},
{
name = Anchor6;
position = "{1240, -38}";
},
{
name = bottom;
position = "{1240, -38}";
},
{
name = top;
position = "{1192, 714}";
},
{
name = topleft;
position = "{1157, 622}";
}
);
layerId = UUID0;
paths = (
{
closed = 1;
nodes = (
"1357 82 OFFCURVE",
"1436 238 OFFCURVE",
"1436 395 CURVE SMOOTH",
"1436 571 OFFCURVE",
"1341 689 OFFCURVE",
"1192 689 CURVE SMOOTH",
"1063 689 OFFCURVE",
"1015 611 OFFCURVE",
"1015 535 CURVE SMOOTH",
"1015 482 OFFCURVE",
"1028 442 OFFCURVE",
"1044 401 CURVE SMOOTH",
"1061 357 OFFCURVE",
"1077 311 OFFCURVE",
"1077 245 CURVE SMOOTH",
"1077 128 OFFCURVE",
"1011 82 OFFCURVE",
"892 82 CURVE SMOOTH",
"791 82 OFFCURVE",
"713 125 OFFCURVE",
"713 206 CURVE SMOOTH",
"713 251 OFFCURVE",
"734 276 OFFCURVE",
"772 276 CURVE SMOOTH",
"806 276 OFFCURVE",
"828 251 OFFCURVE",
"828 212 CURVE SMOOTH",
"828 137 OFFCURVE",
"769 85 OFFCURVE",
"626 85 CURVE SMOOTH",
"496 85 OFFCURVE",
"438 139 OFFCURVE",
"438 201 CURVE",
"424 176 LINE",
"541 263 OFFCURVE",
"619 328 OFFCURVE",
"619 443 CURVE SMOOTH",
"619 529 OFFCURVE",
"572 586 OFFCURVE",
"480 586 CURVE SMOOTH",
"389 586 OFFCURVE",
"342 514 OFFCURVE",
"323 447 CURVE",
"304 514 OFFCURVE",
"258 586 OFFCURVE",
"177 586 CURVE SMOOTH",
"76 586 OFFCURVE",
"25 510 OFFCURVE",
"25 416 CURVE SMOOTH",
"25 371 OFFCURVE",
"42 323 OFFCURVE",
"60 296 CURVE",
"106 309 LINE",
"95 334 OFFCURVE",
"86 364 OFFCURVE",
"86 396 CURVE SMOOTH",
"86 469 OFFCURVE",
"130 499 OFFCURVE",
"178 499 CURVE SMOOTH",
"248 499 OFFCURVE",
"286 438 OFFCURVE",
"296 367 CURVE",
"349 367 LINE",
"359 438 OFFCURVE",
"397 499 OFFCURVE",
"470 499 CURVE SMOOTH",
"529 499 OFFCURVE",
"557 466 OFFCURVE",
"557 423 CURVE SMOOTH",
"557 369 OFFCURVE",
"532 309 OFFCURVE",
"387 211 CURVE",
"387 199 LINE SMOOTH",
"387 84 OFFCURVE",
"471 -10 OFFCURVE",
"614 -10 CURVE SMOOTH",
"783 -10 OFFCURVE",
"889 113 OFFCURVE",
"889 214 CURVE SMOOTH",
"889 282 OFFCURVE",
"848 334 OFFCURVE",
"773 334 CURVE SMOOTH",
"719 334 OFFCURVE",
"660 295 OFFCURVE",
"660 207 CURVE SMOOTH",
"660 115 OFFCURVE",
"764 -10 OFFCURVE",
"907 -10 CURVE SMOOTH",
"1068 -10 OFFCURVE",
"1134 105 OFFCURVE",
"1134 237 CURVE SMOOTH",
"1134 306 OFFCURVE",
"1116 357 OFFCURVE",
"1098 406 CURVE SMOOTH",
"1082 449 OFFCURVE",
"1069 490 OFFCURVE",
"1069 540 CURVE SMOOTH",
"1069 592 OFFCURVE",
"1101 637 OFFCURVE",
"1193 637 CURVE SMOOTH",
"1309 637 OFFCURVE",
"1376 534 OFFCURVE",
"1376 387 CURVE SMOOTH",
"1376 249 OFFCURVE",
"1310 112 OFFCURVE",
"1229 19 CURVE",
"1261 -12 LINE"
);
}
);
width = 1511;
}
);
},
{
glyphname = "na_dha_vowelII-divesakuru";
lastChange = "2022-02-03 17:11:58 +0000";
layers = (
{
anchors = (
{
name = Anchor2;
position = "{1298, 714}";
},
{
name = Anchor4;
position = "{1225, 655}";
},
{
name = bottom;
position = "{1346, -138}";
},
{
name = top;
position = "{1298, 714}";
},
{
name = topleft;
position = "{1225, 655}";
}
);
layerId = UUID0;
paths = (
{
closed = 1;
nodes = (
"1426 -93 OFFCURVE",
"1574 36 OFFCURVE",
"1574 215 CURVE SMOOTH",
"1574 349 OFFCURVE",
"1482 444 OFFCURVE",
"1363 444 CURVE SMOOTH",
"1294 444 OFFCURVE",
"1244 398 OFFCURVE",
"1244 333 CURVE SMOOTH",
"1244 289 OFFCURVE",
"1280 244 OFFCURVE",
"1351 244 CURVE SMOOTH",
"1432 244 OFFCURVE",
"1535 310 OFFCURVE",
"1535 469 CURVE SMOOTH",
"1535 628 OFFCURVE",
"1426 713 OFFCURVE",
"1257 713 CURVE SMOOTH",
"1063 713 OFFCURVE",
"1015 591 OFFCURVE",
"1015 515 CURVE SMOOTH",
"1015 468 OFFCURVE",
"1027 434 OFFCURVE",
"1043 398 CURVE SMOOTH",
"1061 358 OFFCURVE",
"1077 313 OFFCURVE",
"1077 245 CURVE SMOOTH",
"1077 128 OFFCURVE",
"1011 82 OFFCURVE",
"892 82 CURVE SMOOTH",
"791 82 OFFCURVE",
"713 125 OFFCURVE",
"713 206 CURVE SMOOTH",
"713 251 OFFCURVE",
"734 276 OFFCURVE",
"772 276 CURVE SMOOTH",
"806 276 OFFCURVE",
"828 251 OFFCURVE",
"828 212 CURVE SMOOTH",
"828 137 OFFCURVE",
"769 85 OFFCURVE",
"626 85 CURVE SMOOTH",
"496 85 OFFCURVE",
"438 139 OFFCURVE",
"438 201 CURVE",
"424 176 LINE",
"541 263 OFFCURVE",
"619 328 OFFCURVE",
"619 443 CURVE SMOOTH",
"619 529 OFFCURVE",
"572 586 OFFCURVE",
"480 586 CURVE SMOOTH",
"389 586 OFFCURVE",
"342 514 OFFCURVE",
"323 447 CURVE",
"304 514 OFFCURVE",
"258 586 OFFCURVE",
"177 586 CURVE SMOOTH",
"76 586 OFFCURVE",
"25 510 OFFCURVE",
"25 416 CURVE SMOOTH",
"25 371 OFFCURVE",
"42 323 OFFCURVE",
"60 296 CURVE",
"106 309 LINE",
"95 334 OFFCURVE",
"86 364 OFFCURVE",
"86 396 CURVE SMOOTH",
"86 469 OFFCURVE",
"130 499 OFFCURVE",
"178 499 CURVE SMOOTH",
"248 499 OFFCURVE",
"286 438 OFFCURVE",
"296 367 CURVE",
"349 367 LINE",
"359 438 OFFCURVE",
"397 499 OFFCURVE",
"470 499 CURVE SMOOTH",
"529 499 OFFCURVE",
"557 466 OFFCURVE",
"557 423 CURVE SMOOTH",
"557 369 OFFCURVE",
"532 309 OFFCURVE",
"387 211 CURVE",
"387 199 LINE SMOOTH",
"387 84 OFFCURVE",
"471 -10 OFFCURVE",
"614 -10 CURVE SMOOTH",
"783 -10 OFFCURVE",
"889 113 OFFCURVE",
"889 214 CURVE SMOOTH",
"889 282 OFFCURVE",
"848 334 OFFCURVE",
"773 334 CURVE SMOOTH",
"719 334 OFFCURVE",
"660 295 OFFCURVE",
"660 207 CURVE SMOOTH",
"660 115 OFFCURVE",
"764 -10 OFFCURVE",
"907 -10 CURVE SMOOTH",
"1068 -10 OFFCURVE",
"1134 105 OFFCURVE",
"1134 237 CURVE SMOOTH",
"1134 307 OFFCURVE",
"1115 356 OFFCURVE",
"1097 401 CURVE SMOOTH",
"1082 438 OFFCURVE",
"1069 475 OFFCURVE",
"1069 520 CURVE SMOOTH",
"1069 572 OFFCURVE",
"1101 661 OFFCURVE",
"1262 661 CURVE SMOOTH",
"1398 661 OFFCURVE",
"1481 591 OFFCURVE",
"1481 467 CURVE SMOOTH",
"1481 342 OFFCURVE",
"1410 295 OFFCURVE",
"1354 295 CURVE SMOOTH",
"1312 295 OFFCURVE",
"1296 319 OFFCURVE",
"1296 343 CURVE SMOOTH",
"1296 368 OFFCURVE",
"1312 401 OFFCURVE",
"1363 401 CURVE SMOOTH",
"1461 401 OFFCURVE",
"1515 318 OFFCURVE",
"1515 227 CURVE SMOOTH",
"1515 78 OFFCURVE",
"1369 -16 OFFCURVE",
"1209 -69 CURVE",
"1220 -121 LINE"
);
}
);
width = 1649;
}
);
},
{
glyphname = "na_dha_vowelU-divesakuru";
lastChange = "2022-02-03 17:12:09 +0000";
layers = (
{
anchors = (
{
name = Anchor2;
position = "{1319, 536}";
},
{
name = Anchor4;
position = "{1264, 363}";
},
{
name = bottom;
position = "{1344, -273}";
},
{
name = top;
position = "{1319, 536}";
},
{
name = topleft;
position = "{1264, 363}";
}
);
layerId = UUID0;
paths = (
{
closed = 1;
nodes = (
"1429 -235 OFFCURVE",
"1470 -177 OFFCURVE",
"1470 -43 CURVE SMOOTH",
"1470 218 LINE SMOOTH",
"1470 378 OFFCURVE",
"1438 407 OFFCURVE",
"1284 407 CURVE SMOOTH",
"1044 407 LINE",
"1071 335 OFFCURVE",
"1077 295 OFFCURVE",
"1077 254 CURVE SMOOTH",
"1077 127 OFFCURVE",
"1011 82 OFFCURVE",
"892 82 CURVE SMOOTH",
"791 82 OFFCURVE",
"713 125 OFFCURVE",
"713 206 CURVE SMOOTH",
"713 251 OFFCURVE",
"734 276 OFFCURVE",
"772 276 CURVE SMOOTH",
"806 276 OFFCURVE",
"828 251 OFFCURVE",
"828 212 CURVE SMOOTH",
"828 137 OFFCURVE",
"769 85 OFFCURVE",
"626 85 CURVE SMOOTH",
"496 85 OFFCURVE",
"438 139 OFFCURVE",
"438 201 CURVE",
"424 176 LINE",
"541 263 OFFCURVE",
"619 328 OFFCURVE",
"619 443 CURVE SMOOTH",
"619 529 OFFCURVE",
"572 586 OFFCURVE",
"480 586 CURVE SMOOTH",
"389 586 OFFCURVE",
"342 514 OFFCURVE",
"323 447 CURVE",
"304 514 OFFCURVE",
"258 586 OFFCURVE",
"177 586 CURVE SMOOTH",
"76 586 OFFCURVE",
"25 510 OFFCURVE",
"25 416 CURVE SMOOTH",
"25 371 OFFCURVE",
"42 323 OFFCURVE",
"60 296 CURVE",
"106 309 LINE",
"95 334 OFFCURVE",
"86 364 OFFCURVE",
"86 396 CURVE SMOOTH",
"86 469 OFFCURVE",
"130 499 OFFCURVE",
"178 499 CURVE SMOOTH",
"248 499 OFFCURVE",
"286 438 OFFCURVE",
"296 367 CURVE",
"349 367 LINE",
"359 438 OFFCURVE",
"397 499 OFFCURVE",
"470 499 CURVE SMOOTH",
"529 499 OFFCURVE",
"557 466 OFFCURVE",
"557 423 CURVE SMOOTH",
"557 369 OFFCURVE",
"532 309 OFFCURVE",
"387 211 CURVE",
"387 199 LINE SMOOTH",
"387 84 OFFCURVE",
"471 -10 OFFCURVE",
"614 -10 CURVE SMOOTH",
"783 -10 OFFCURVE",
"889 113 OFFCURVE",
"889 214 CURVE SMOOTH",
"889 282 OFFCURVE",
"848 334 OFFCURVE",
"773 334 CURVE SMOOTH",
"719 334 OFFCURVE",
"660 295 OFFCURVE",
"660 207 CURVE SMOOTH",
"660 115 OFFCURVE",
"764 -10 OFFCURVE",
"907 -10 CURVE SMOOTH",
"1068 -10 OFFCURVE",
"1134 105 OFFCURVE",
"1134 247 CURVE SMOOTH",
"1134 305 OFFCURVE",
"1123 354 OFFCURVE",
"1099 400 CURVE",
"1072 350 LINE",
"1307 350 LINE SMOOTH",
"1403 350 OFFCURVE",
"1410 323 OFFCURVE",
"1410 194 CURVE SMOOTH",
"1410 -28 LINE SMOOTH",
"1410 -123 OFFCURVE",
"1405 -176 OFFCURVE",
"1344 -176 CURVE SMOOTH",
"1283 -176 OFFCURVE",
"1274 -123 OFFCURVE",
"1274 -28 CURVE SMOOTH",
"1274 225 LINE",
"1218 225 LINE",
"1218 -43 LINE SMOOTH",
"1218 -177 OFFCURVE",
"1259 -235 OFFCURVE",
"1344 -235 CURVE SMOOTH"
);
}
);
width = 1560;
}
);
},
{
glyphname = "na_vowelU-divesakuru";
lastChange = "2022-02-03 17:12:21 +0000";
layers = (
{
anchors = (
{
name = Anchor2;
position = "{752, 653}";
},
{
name = Anchor4;
position = "{652, 542}";
},
{
name = Anchor6;
position = "{819, -148}";
},
{
name = bottom;
position = "{819, -148}";
},
{
name = top;
position = "{752, 653}";
},
{
name = topleft;
position = "{652, 542}";
}
);
layerId = UUID0;
paths = (
{
closed = 1;
nodes = (
"880 -105 OFFCURVE",
"911 -95 OFFCURVE",
"930 -85 CURVE",
"915 -30 LINE",
"891 -38 OFFCURVE",
"869 -42 OFFCURVE",
"847 -42 CURVE SMOOTH",
"770 -42 OFFCURVE",
"758 7 OFFCURVE",
"758 102 CURVE SMOOTH",
"758 334 LINE SMOOTH",
"758 483 OFFCURVE",
"721 589 OFFCURVE",
"577 589 CURVE SMOOTH",
"471 589 OFFCURVE",
"424 513 OFFCURVE",
"405 436 CURVE",
"386 513 OFFCURVE",
"336 589 OFFCURVE",
"240 589 CURVE SMOOTH",
"111 589 OFFCURVE",
"35 493 OFFCURVE",
"35 369 CURVE SMOOTH",
"35 316 OFFCURVE",
"53 277 OFFCURVE",
"70 251 CURVE",
"116 264 LINE",
"105 289 OFFCURVE",
"96 319 OFFCURVE",
"96 351 CURVE SMOOTH",
"96 454 OFFCURVE",
"165 493 OFFCURVE",
"241 493 CURVE SMOOTH",
"326 493 OFFCURVE",
"369 427 OFFCURVE",
"379 346 CURVE",
"432 346 LINE",
"442 427 OFFCURVE",
"482 493 OFFCURVE",
"577 493 CURVE SMOOTH",
"669 493 OFFCURVE",
"698 447 OFFCURVE",
"698 290 CURVE SMOOTH",
"698 74 LINE SMOOTH",
"698 -47 OFFCURVE",
"743 -105 OFFCURVE",
"840 -105 CURVE SMOOTH"
);
}
);
width = 935;
}
);
},
{
glyphname = "pa_medra-divesakuru";
lastChange = "2022-02-03 16:07:25 +0000";
layers = (
{
anchors = (
{
name = Anchor2;
position = "{885, 590}";
},
{
name = Anchor4;
position = "{845, 370}";
},
{
name = Anchor6;
position = "{769, -276}";
},
{
name = bottom;
position = "{769, -276}";
},
{
name = halant_1;
position = "{773, 380}";
},
{
name = top;
position = "{885, 590}";
},
{
name = topleft;
position = "{845, 370}";
}
);
background = {
paths = (
{
closed = 0;
nodes = (
"810 388 LINE",
"810 371 LINE",
"927 355 OFFCURVE",
"962 255 OFFCURVE",
"962 163 CURVE SMOOTH",
"962 -80 OFFCURVE",
"713 -187 OFFCURVE",
"454 -187 CURVE SMOOTH",
"317 -187 OFFCURVE",
"216 -168 OFFCURVE",
"75 -114 CURVE",
"50 -164 LINE",
"145 -228 OFFCURVE",
"278 -272 OFFCURVE",
"451 -272 CURVE SMOOTH",
"806 -272 OFFCURVE",
"1022 -93 OFFCURVE",
"1022 157 CURVE SMOOTH",
"1022 282 OFFCURVE",
"942 400 OFFCURVE",
"810 410 CURVE"
);
},
{
closed = 0;
nodes = (
"760 407 LINE",
"763 386 OFFCURVE",
"764 361 OFFCURVE",
"764 345 CURVE SMOOTH",
"764 179 OFFCURVE",
"633 92 OFFCURVE",
"442 92 CURVE SMOOTH",
"285 92 OFFCURVE",
"198 142 OFFCURVE",
"198 207 CURVE",
"184 192 LINE",
"353 233 OFFCURVE",
"434 337 OFFCURVE",
"434 434 CURVE SMOOTH",
"434 514 OFFCURVE",
"381 589 OFFCURVE",
"255 589 CURVE SMOOTH",
"125 589 OFFCURVE",
"40 528 OFFCURVE",
"40 450 CURVE SMOOTH",
"40 377 OFFCURVE",
"89 337 OFFCURVE",
"157 337 CURVE SMOOTH",
"221 337 OFFCURVE",
"276 367 OFFCURVE",
"276 446 CURVE SMOOTH",
"276 501 OFFCURVE",
"238 538 OFFCURVE",
"183 538 CURVE SMOOTH",
"173 538 OFFCURVE",
"157 537 OFFCURVE",
"149 535 CURVE",
"159 517 LINE",
"180 526 OFFCURVE",
"211 537 OFFCURVE",
"253 537 CURVE SMOOTH",
"328 537 OFFCURVE",
"374 492 OFFCURVE",
"374 432 CURVE SMOOTH",
"374 377 OFFCURVE",
"342 279 OFFCURVE",
"143 239 CURVE",
"143 227 LINE SMOOTH",
"143 79 OFFCURVE",
"265 -10 OFFCURVE",
"430 -10 CURVE SMOOTH",
"657 -10 OFFCURVE",
"818 142 OFFCURVE",
"818 336 CURVE SMOOTH",
"818 363 OFFCURVE",
"816 390 OFFCURVE",
"813 410 CURVE"
);
},
{
closed = 1;
nodes = (
"116 388 OFFCURVE",
"97 413 OFFCURVE",
"97 449 CURVE SMOOTH",
"97 484 OFFCURVE",
"123 506 OFFCURVE",
"158 506 CURVE SMOOTH",
"202 506 OFFCURVE",
"219 478 OFFCURVE",
"219 449 CURVE SMOOTH",
"219 408 OFFCURVE",
"196 388 OFFCURVE",
"159 388 CURVE SMOOTH"
);
}
);
};
layerId = UUID0;
paths = (
{
closed = 1;
nodes = (
"806 -272 OFFCURVE",
"1022 -93 OFFCURVE",
"1022 157 CURVE SMOOTH",
"1022 282 OFFCURVE",
"943 409 OFFCURVE",
"760 409 CURVE",
"763 388 OFFCURVE",
"764 361 OFFCURVE",
"764 345 CURVE SMOOTH",
"764 179 OFFCURVE",
"633 92 OFFCURVE",
"442 92 CURVE SMOOTH",
"285 92 OFFCURVE",
"198 142 OFFCURVE",
"198 207 CURVE",
"184 192 LINE",
"353 233 OFFCURVE",
"434 337 OFFCURVE",
"434 434 CURVE SMOOTH",
"434 514 OFFCURVE",
"381 589 OFFCURVE",
"255 589 CURVE SMOOTH",
"125 589 OFFCURVE",
"40 528 OFFCURVE",
"40 450 CURVE SMOOTH",
"40 377 OFFCURVE",
"89 337 OFFCURVE",
"157 337 CURVE SMOOTH",
"221 337 OFFCURVE",
"276 367 OFFCURVE",
"276 446 CURVE SMOOTH",
"276 501 OFFCURVE",
"238 538 OFFCURVE",
"183 538 CURVE SMOOTH",
"173 538 OFFCURVE",
"157 537 OFFCURVE",
"149 535 CURVE",
"159 517 LINE",
"180 526 OFFCURVE",
"211 537 OFFCURVE",
"253 537 CURVE SMOOTH",
"328 537 OFFCURVE",
"374 492 OFFCURVE",
"374 432 CURVE SMOOTH",
"374 377 OFFCURVE",
"342 279 OFFCURVE",
"143 239 CURVE",
"143 227 LINE SMOOTH",
"143 79 OFFCURVE",
"265 -10 OFFCURVE",
"430 -10 CURVE SMOOTH",
"657 -10 OFFCURVE",
"818 142 OFFCURVE",
"818 336 CURVE SMOOTH",
"818 363 OFFCURVE",
"816 390 OFFCURVE",
"811 401 CURVE",
"810 361 LINE",
"927 345 OFFCURVE",
"962 255 OFFCURVE",
"962 163 CURVE SMOOTH",
"962 -80 OFFCURVE",
"713 -187 OFFCURVE",
"454 -187 CURVE SMOOTH",
"317 -187 OFFCURVE",
"216 -168 OFFCURVE",
"75 -114 CURVE",
"50 -164 LINE",
"145 -228 OFFCURVE",
"278 -272 OFFCURVE",
"451 -272 CURVE SMOOTH"
);
},
{
closed = 1;
nodes = (
"116 388 OFFCURVE",
"97 413 OFFCURVE",
"97 449 CURVE SMOOTH",
"97 484 OFFCURVE",
"123 506 OFFCURVE",
"158 506 CURVE SMOOTH",
"202 506 OFFCURVE",
"219 478 OFFCURVE",
"219 449 CURVE SMOOTH",
"219 408 OFFCURVE",
"196 388 OFFCURVE",
"159 388 CURVE SMOOTH"
);
}
);
width = 1052;
}
);
},
{
glyphname = "pa_vowelI-divesakuru";
lastChange = "2022-02-03 17:12:31 +0000";
layers = (
{
anchors = (
{
name = Anchor2;
position = "{792, 714}";
},
{
name = Anchor4;
position = "{755, 622}";
},
{
name = Anchor6;
position = "{840, -38}";
},
{
name = bottom;
position = "{840, -38}";
},
{
name = top;
position = "{792, 714}";
},
{
name = topleft;
position = "{755, 622}";
}
);
layerId = UUID0;
paths = (
{
closed = 1;
nodes = (
"962 82 OFFCURVE",
"1041 238 OFFCURVE",
"1041 395 CURVE SMOOTH",
"1041 571 OFFCURVE",
"946 689 OFFCURVE",
"790 689 CURVE SMOOTH",
"663 689 OFFCURVE",
"612 611 OFFCURVE",
"612 535 CURVE SMOOTH",
"612 483 OFFCURVE",
"628 443 OFFCURVE",
"645 402 CURVE SMOOTH",
"663 358 OFFCURVE",
"682 311 OFFCURVE",
"682 245 CURVE SMOOTH",
"682 128 OFFCURVE",
"616 92 OFFCURVE",
"452 92 CURVE SMOOTH",
"285 92 OFFCURVE",
"198 142 OFFCURVE",
"198 207 CURVE",
"184 192 LINE",
"353 233 OFFCURVE",
"434 337 OFFCURVE",
"434 434 CURVE SMOOTH",
"434 514 OFFCURVE",
"381 589 OFFCURVE",
"255 589 CURVE SMOOTH",
"125 589 OFFCURVE",
"40 528 OFFCURVE",
"40 450 CURVE SMOOTH",
"40 377 OFFCURVE",
"89 337 OFFCURVE",
"157 337 CURVE SMOOTH",
"221 337 OFFCURVE",
"276 367 OFFCURVE",
"276 446 CURVE SMOOTH",
"276 501 OFFCURVE",
"238 538 OFFCURVE",
"183 538 CURVE SMOOTH",
"173 538 OFFCURVE",
"157 537 OFFCURVE",
"149 535 CURVE",
"159 517 LINE",
"180 526 OFFCURVE",
"211 537 OFFCURVE",
"253 537 CURVE SMOOTH",
"328 537 OFFCURVE",
"374 492 OFFCURVE",
"374 432 CURVE SMOOTH",
"374 377 OFFCURVE",
"342 279 OFFCURVE",
"143 239 CURVE",
"143 227 LINE SMOOTH",
"143 75 OFFCURVE",
"263 -10 OFFCURVE",
"447 -10 CURVE SMOOTH",
"673 -10 OFFCURVE",
"739 105 OFFCURVE",
"739 237 CURVE SMOOTH",
"739 304 OFFCURVE",
"720 355 OFFCURVE",
"700 403 CURVE SMOOTH",
"682 447 OFFCURVE",
"666 489 OFFCURVE",
"666 540 CURVE SMOOTH",
"666 592 OFFCURVE",
"701 637 OFFCURVE",
"791 637 CURVE SMOOTH",
"914 637 OFFCURVE",
"981 534 OFFCURVE",
"981 387 CURVE SMOOTH",
"981 249 OFFCURVE",
"915 112 OFFCURVE",
"834 19 CURVE",
"866 -12 LINE"
);
},
{
closed = 1;
nodes = (
"116 388 OFFCURVE",
"97 413 OFFCURVE",
"97 449 CURVE SMOOTH",
"97 484 OFFCURVE",
"123 506 OFFCURVE",
"158 506 CURVE SMOOTH",
"202 506 OFFCURVE",
"219 478 OFFCURVE",
"219 449 CURVE SMOOTH",
"219 408 OFFCURVE",
"196 388 OFFCURVE",
"159 388 CURVE SMOOTH"
);
}
);
width = 1116;
}
);
},
{
glyphname = "pa_vowelU-divesakuru";
lastChange = "2022-02-03 17:12:39 +0000";
layers = (
{
anchors = (
{
name = Anchor2;
position = "{977, 536}";
},
{
name = Anchor4;
position = "{932, 370}";
},
{
name = Anchor6;
position = "{1002, -273}";
},
{
name = bottom;
position = "{1002, -273}";
},
{
name = top;
position = "{977, 536}";
},
{
name = topleft;
position = "{932, 370}";
}
);
components = (
{
name = u11920;
}
);
layerId = UUID0;
paths = (
{
closed = 1;
nodes = (
"1087 -232 OFFCURVE",
"1128 -174 OFFCURVE",
"1128 -40 CURVE SMOOTH",
"1128 221 LINE SMOOTH",
"1128 381 OFFCURVE",
"1096 410 OFFCURVE",
"942 410 CURVE SMOOTH",
"760 410 LINE",
"765 353 LINE",
"965 353 LINE SMOOTH",
"1061 353 OFFCURVE",
"1068 326 OFFCURVE",
"1068 197 CURVE SMOOTH",
"1068 -25 LINE SMOOTH",
"1068 -120 OFFCURVE",
"1063 -173 OFFCURVE",
"1002 -173 CURVE SMOOTH",
"941 -173 OFFCURVE",
"932 -120 OFFCURVE",
"932 -25 CURVE SMOOTH",
"932 228 LINE",
"876 228 LINE",
"876 -40 LINE SMOOTH",
"876 -174 OFFCURVE",
"917 -232 OFFCURVE",
"1002 -232 CURVE SMOOTH"
);
}
);
width = 1218;
}
);
},
{
glyphname = "pa_vowelUU-divesakuru";
lastChange = "2022-02-03 17:13:51 +0000";
layers = (
{
anchors = (
{
name = Anchor2;
position = "{1049, 536}";
},
{
name = Anchor4;
position = "{992, 372}";
},
{
name = Anchor6;
position = "{1074, -273}";
},
{
name = bottom;
position = "{1074, -273}";
},
{
name = top;
position = "{1049, 536}";
},
{
name = topleft;
position = "{992, 372}";
}
);
components = (
{
name = u11920;
}
);
layerId = UUID0;
paths = (
{
closed = 1;
nodes = (
"1166 -232 OFFCURVE",
"1207 -174 OFFCURVE",
"1207 -40 CURVE SMOOTH",
"1207 221 LINE SMOOTH",
"1207 381 OFFCURVE",
"1175 410 OFFCURVE",
"1021 410 CURVE SMOOTH",
"759 410 LINE",
"765 353 LINE",
"1044 353 LINE SMOOTH",
"1140 353 OFFCURVE",
"1147 326 OFFCURVE",
"1147 197 CURVE SMOOTH",
"1147 -25 LINE SMOOTH",
"1147 -120 OFFCURVE",
"1142 -173 OFFCURVE",
"1081 -173 CURVE SMOOTH",
"1020 -173 OFFCURVE",
"1011 -120 OFFCURVE",
"1011 -25 CURVE SMOOTH",
"1011 218 LINE",
"955 188 LINE",
"955 -40 LINE SMOOTH",
"955 -174 OFFCURVE",
"996 -232 OFFCURVE",
"1081 -232 CURVE SMOOTH"
);
},
{
closed = 1;
nodes = (
"851 -257 LINE",
"822 -222 OFFCURVE",
"779 -160 OFFCURVE",
"779 -87 CURVE SMOOTH",
"779 47 OFFCURVE",
"882 137 OFFCURVE",
"1011 177 CURVE",
"1011 226 LINE",
"913 200 OFFCURVE",
"715 91 OFFCURVE",
"715 -83 CURVE SMOOTH",
"715 -164 OFFCURVE",
"767 -234 OFFCURVE",
"786 -257 CURVE"
);
}
);
width = 1297;
}
);
},
{
glyphname = "ba_bha-divesakuru";
lastChange = "2022-02-03 18:12:32 +0000";
layers = (
{
anchors = (
{
name = Anchor11;
position = "{1225, 356}";
},
{
name = Anchor2;
position = "{1175, 590}";
},
{
name = Anchor6;
position = "{1115, -276}";
},
{
name = bottom;
position = "{1115, -276}";
},
{
name = halant;
position = "{1225, 356}";
},
{
name = top;
position = "{1175, 590}";
}
);
layerId = UUID0;
paths = (
{
closed = 1;
nodes = (
"1225 -257 OFFCURVE",
"1392 -16 OFFCURVE",
"1392 244 CURVE SMOOTH",
"1392 339 OFFCURVE",
"1355 408 OFFCURVE",
"1273 408 CURVE SMOOTH",
"1216 408 OFFCURVE",
"1191 363 OFFCURVE",
"1160 297 CURVE SMOOTH",
"1094 156 OFFCURVE",
"1009 92 OFFCURVE",
"909 92 CURVE SMOOTH",
"810 92 OFFCURVE",
"773 126 OFFCURVE",
"768 153 CURVE",
"927 229 OFFCURVE",
"1003 348 OFFCURVE",
"1003 442 CURVE SMOOTH",
"1003 522 OFFCURVE",
"964 589 OFFCURVE",
"853 589 CURVE SMOOTH",
"742 589 OFFCURVE",
"687 525 OFFCURVE",
"629 364 CURVE SMOOTH",
"577 221 OFFCURVE",
"482 92 OFFCURVE",
"335 92 CURVE SMOOTH",
"237 92 OFFCURVE",
"204 132 OFFCURVE",
"199 173 CURVE",
"358 235 OFFCURVE",
"434 340 OFFCURVE",
"434 434 CURVE SMOOTH",
"434 514 OFFCURVE",
"381 589 OFFCURVE",
"255 589 CURVE SMOOTH",
"125 589 OFFCURVE",
"40 528 OFFCURVE",
"40 450 CURVE SMOOTH",
"40 377 OFFCURVE",
"89 337 OFFCURVE",
"157 337 CURVE SMOOTH",
"221 337 OFFCURVE",
"276 367 OFFCURVE",
"276 446 CURVE SMOOTH",
"276 501 OFFCURVE",
"238 538 OFFCURVE",
"183 538 CURVE SMOOTH",
"173 538 OFFCURVE",
"157 537 OFFCURVE",
"149 535 CURVE",
"159 517 LINE",
"180 526 OFFCURVE",
"211 537 OFFCURVE",
"253 537 CURVE SMOOTH",
"328 537 OFFCURVE",
"374 492 OFFCURVE",
"374 432 CURVE SMOOTH",
"374 377 OFFCURVE",
"342 275 OFFCURVE",
"143 215 CURVE",
"143 203 LINE SMOOTH",
"143 75 OFFCURVE",
"219 -10 OFFCURVE",
"324 -10 CURVE SMOOTH",
"515 -10 OFFCURVE",
"610 173 OFFCURVE",
"663 322 CURVE SMOOTH",
"715 468 OFFCURVE",
"756 537 OFFCURVE",
"843 537 CURVE SMOOTH",
"911 537 OFFCURVE",
"943 500 OFFCURVE",
"943 440 CURVE SMOOTH",
"943 385 OFFCURVE",
"911 269 OFFCURVE",
"712 195 CURVE",
"712 183 LINE SMOOTH",
"712 69 OFFCURVE",
"782 -10 OFFCURVE",
"897 -10 CURVE SMOOTH",
"1042 -10 OFFCURVE",
"1128 108 OFFCURVE",
"1188 239 CURVE SMOOTH",
"1223 316 OFFCURVE",
"1239 349 OFFCURVE",
"1271 349 CURVE SMOOTH",
"1302 349 OFFCURVE",
"1332 315 OFFCURVE",
"1332 237 CURVE SMOOTH",
"1332 77 OFFCURVE",
"1230 -171 OFFCURVE",
"898 -171 CURVE SMOOTH",
"840 -171 OFFCURVE",
"780 -166 OFFCURVE",
"702 -150 CURVE",
"694 -197 LINE",
"760 -234 OFFCURVE",
"834 -257 OFFCURVE",
"930 -257 CURVE SMOOTH"
);
},
{
closed = 1;
nodes = (
"116 388 OFFCURVE",
"97 413 OFFCURVE",
"97 449 CURVE SMOOTH",
"97 484 OFFCURVE",
"123 506 OFFCURVE",
"158 506 CURVE SMOOTH",
"202 506 OFFCURVE",
"219 478 OFFCURVE",
"219 449 CURVE SMOOTH",
"219 408 OFFCURVE",
"196 388 OFFCURVE",
"159 388 CURVE SMOOTH"
);
}
);
width = 1437;
}
);
},
{
glyphname = "ma_ba-divesakuru";
lastChange = "2022-01-28 16:15:27 +0000";
layers = (
{
anchors = (
{
name = Anchor2;
position = "{805, 590}";
},
{
name = Anchor6;
position = "{789, -116}";
},
{
name = bottom;
position = "{789, -116}";
},
{
name = top;
position = "{805, 590}";
}
);
layerId = UUID0;
paths = (
{
closed = 1;
nodes = (
"443 -10 OFFCURVE",
"499 108 OFFCURVE",
"559 239 CURVE SMOOTH",
"594 316 OFFCURVE",
"610 349 OFFCURVE",
"650 349 CURVE SMOOTH",
"674 349 OFFCURVE",
"690 337 OFFCURVE",
"690 310 CURVE SMOOTH",
"690 278 OFFCURVE",
"669 250 OFFCURVE",
"642 219 CURVE SMOOTH",
"607 179 OFFCURVE",
"570 130 OFFCURVE",
"570 61 CURVE SMOOTH",
"570 -20 OFFCURVE",
"632 -70 OFFCURVE",
"725 -70 CURVE SMOOTH",
"899 -70 OFFCURVE",
"1079 136 OFFCURVE",
"1079 324 CURVE SMOOTH",
"1079 416 OFFCURVE",
"1017 469 OFFCURVE",
"933 483 CURVE",
"923 436 LINE",
"977 421 OFFCURVE",
"1031 394 OFFCURVE",
"1031 327 CURVE SMOOTH",
"1031 190 OFFCURVE",
"882 32 OFFCURVE",
"736 32 CURVE SMOOTH",
"678 32 OFFCURVE",
"634 51 OFFCURVE",
"634 94 CURVE SMOOTH",
"634 130 OFFCURVE",
"657 161 OFFCURVE",
"683 192 CURVE SMOOTH",
"714 229 OFFCURVE",
"745 270 OFFCURVE",
"745 325 CURVE SMOOTH",
"745 367 OFFCURVE",
"716 408 OFFCURVE",
"654 408 CURVE SMOOTH",
"588 408 OFFCURVE",
"562 363 OFFCURVE",
"534 296 CURVE SMOOTH",
"475 156 OFFCURVE",
"410 92 OFFCURVE",
"314 92 CURVE SMOOTH",
"238 92 OFFCURVE",
"211 129 OFFCURVE",
"211 169 CURVE SMOOTH",
"211 207 OFFCURVE",
"236 244 OFFCURVE",
"292 280 CURVE SMOOTH",
"363 326 OFFCURVE",
"436 381 OFFCURVE",
"436 461 CURVE SMOOTH",
"436 534 OFFCURVE",
"376 589 OFFCURVE",
"255 589 CURVE SMOOTH",
"125 589 OFFCURVE",
"40 528 OFFCURVE",
"40 450 CURVE SMOOTH",
"40 377 OFFCURVE",
"89 337 OFFCURVE",
"157 337 CURVE SMOOTH",
"221 337 OFFCURVE",
"276 367 OFFCURVE",
"276 446 CURVE SMOOTH",
"276 501 OFFCURVE",
"238 538 OFFCURVE",
"183 538 CURVE SMOOTH",
"173 538 OFFCURVE",
"157 537 OFFCURVE",
"149 535 CURVE",
"159 517 LINE",
"180 526 OFFCURVE",
"211 537 OFFCURVE",
"261 537 CURVE SMOOTH",
"323 537 OFFCURVE",
"376 512 OFFCURVE",
"376 459 CURVE SMOOTH",
"376 409 OFFCURVE",
"351 377 OFFCURVE",
"286 334 CURVE SMOOTH",
"186 268 OFFCURVE",
"145 221 OFFCURVE",
"145 146 CURVE SMOOTH",
"145 54 OFFCURVE",
"204 -10 OFFCURVE",
"302 -10 CURVE SMOOTH"
);
},
{
closed = 1;
nodes = (
"116 388 OFFCURVE",
"97 413 OFFCURVE",
"97 449 CURVE SMOOTH",
"97 484 OFFCURVE",
"123 506 OFFCURVE",
"158 506 CURVE SMOOTH",
"202 506 OFFCURVE",
"219 478 OFFCURVE",
"219 449 CURVE SMOOTH",
"219 408 OFFCURVE",
"196 388 OFFCURVE",
"159 388 CURVE SMOOTH"
);
}
);
width = 1119;
}
);
},
{
glyphname = "ma_vowelU-divesakuru";
lastChange = "2022-02-03 17:13:43 +0000";
layers = (
{
anchors = (
{
name = Anchor2;
position = "{742, 536}";
},
{
name = Anchor4;
position = "{708, 251}";
},
{
name = Anchor6;
position = "{764, -273}";
},
{
name = bottom;
position = "{764, -273}";
},
{
name = top;
position = "{742, 536}";
},
{
name = topleft;
position = "{708, 251}";
}
);
layerId = UUID0;
paths = (
{
closed = 1;
nodes = (
"844 -254 OFFCURVE",
"885 -196 OFFCURVE",
"885 -62 CURVE SMOOTH",
"885 101 LINE SMOOTH",
"885 261 OFFCURVE",
"853 290 OFFCURVE",
"699 290 CURVE SMOOTH",
"504 290 LINE",
"481 233 LINE",
"497 233 LINE SMOOTH",
"545 233 OFFCURVE",
"559 217 OFFCURVE",
"559 192 CURVE SMOOTH",
"559 140 OFFCURVE",
"506 92 OFFCURVE",
"390 92 CURVE SMOOTH",
"282 92 OFFCURVE",
"221 137 OFFCURVE",
"221 185 CURVE SMOOTH",
"221 215 OFFCURVE",
"236 244 OFFCURVE",
"292 280 CURVE SMOOTH",
"363 326 OFFCURVE",
"436 381 OFFCURVE",
"436 461 CURVE SMOOTH",
"436 534 OFFCURVE",
"376 589 OFFCURVE",
"255 589 CURVE SMOOTH",
"125 589 OFFCURVE",
"40 528 OFFCURVE",
"40 450 CURVE SMOOTH",
"40 377 OFFCURVE",
"89 337 OFFCURVE",
"157 337 CURVE SMOOTH",
"221 337 OFFCURVE",
"276 367 OFFCURVE",
"276 446 CURVE SMOOTH",
"276 490 OFFCURVE",
"252 522 OFFCURVE",
"215 533 CURVE",
"228 536 OFFCURVE",
"243 537 OFFCURVE",
"261 537 CURVE SMOOTH",
"323 537 OFFCURVE",
"376 512 OFFCURVE",
"376 459 CURVE SMOOTH",
"376 409 OFFCURVE",
"351 377 OFFCURVE",
"286 334 CURVE SMOOTH",
"186 268 OFFCURVE",
"155 229 OFFCURVE",
"155 162 CURVE SMOOTH",
"155 62 OFFCURVE",
"248 -10 OFFCURVE",
"378 -10 CURVE SMOOTH",
"542 -10 OFFCURVE",
"612 98 OFFCURVE",
"612 178 CURVE SMOOTH",
"612 208 OFFCURVE",
"603 234 OFFCURVE",
"582 246 CURVE",
"575 233 LINE",
"722 233 LINE SMOOTH",
"818 233 OFFCURVE",
"825 206 OFFCURVE",
"825 77 CURVE SMOOTH",
"825 -47 LINE SMOOTH",
"825 -142 OFFCURVE",
"820 -195 OFFCURVE",
"759 -195 CURVE SMOOTH",
"698 -195 OFFCURVE",
"689 -142 OFFCURVE",
"689 -47 CURVE SMOOTH",
"689 96 LINE",
"633 96 LINE",
"633 -62 LINE SMOOTH",
"633 -196 OFFCURVE",
"674 -254 OFFCURVE",
"759 -254 CURVE SMOOTH"
);
},
{
closed = 1;
nodes = (
"116 388 OFFCURVE",
"97 413 OFFCURVE",
"97 449 CURVE SMOOTH",
"97 484 OFFCURVE",
"123 506 OFFCURVE",
"158 506 CURVE SMOOTH",
"202 506 OFFCURVE",
"219 478 OFFCURVE",
"219 449 CURVE SMOOTH",
"219 408 OFFCURVE",
"196 388 OFFCURVE",
"159 388 CURVE SMOOTH"
);
}
);
width = 945;
}
);
},
{
glyphname = "ya_medya-divesakuru";
lastChange = "2022-02-03 16:07:48 +0000";
layers = (
{
anchors = (
{
name = Anchor2;
position = "{436, 590}";
},
{
name = Anchor3;
position = "{982, 495}";
},
{
name = Anchor4;
position = "{822, 398}";
},
{
name = Anchor6;
position = "{815, -138}";
},
{
name = Anchor9;
position = "{1247, 300}";
},
{
name = bottom;
position = "{915, -128}";
},
{
name = right;
position = "{1247, 300}";
},
{
name = top;
position = "{436, 590}";
},
{
name = topleft;
position = "{822, 398}";
},
{
name = topright;
position = "{982, 495}";
}
);
layerId = UUID0;
paths = (
{
closed = 1;
nodes = (
"879 7 OFFCURVE",
"986 128 OFFCURVE",
"986 268 CURVE SMOOTH",
"986 411 OFFCURVE",
"867 441 OFFCURVE",
"801 441 CURVE SMOOTH",
"751 441 OFFCURVE",
"707 432 OFFCURVE",
"673 422 CURVE",
"686 377 LINE",
"745 393 OFFCURVE",
"771 393 OFFCURVE",
"793 393 CURVE SMOOTH",
"845 393 OFFCURVE",
"916 374 OFFCURVE",
"916 260 CURVE SMOOTH",
"916 139 OFFCURVE",
"832 37 OFFCURVE",
"700 -86 CURVE",
"740 -113 LINE"
);
},
{
closed = 1;
nodes = (
"990 -127 OFFCURVE",
"1210 29 OFFCURVE",
"1210 214 CURVE SMOOTH",
"1210 253 OFFCURVE",
"1198 283 OFFCURVE",
"1185 306 CURVE",
"1138 298 LINE",
"1143 271 OFFCURVE",
"1146 249 OFFCURVE",
"1146 226 CURVE SMOOTH",
"1146 -6 OFFCURVE",
"885 -86 OFFCURVE",
"700 -86 CURVE",
"700 -127 LINE"
);
},
{
closed = 1;
nodes = (
"373 -10 OFFCURVE",
"497 151 OFFCURVE",
"497 355 CURVE SMOOTH",
"497 505 OFFCURVE",
"403 588 OFFCURVE",
"245 588 CURVE SMOOTH",
"178 588 OFFCURVE",
"108 576 OFFCURVE",
"40 553 CURVE",
"56 483 LINE",
"125 505 OFFCURVE",
"175 515 OFFCURVE",
"239 515 CURVE SMOOTH",
"358 515 OFFCURVE",
"434 484 OFFCURVE",
"434 353 CURVE SMOOTH",
"434 175 OFFCURVE",
"341 56 OFFCURVE",
"224 56 CURVE SMOOTH",
"166 56 OFFCURVE",
"131 83 OFFCURVE",
"131 132 CURVE SMOOTH",
"131 186 OFFCURVE",
"161 214 OFFCURVE",
"217 214 CURVE SMOOTH",
"334 214 OFFCURVE",
"403 -7 OFFCURVE",
"564 -7 CURVE SMOOTH",
"689 -7 OFFCURVE",
"777 110 OFFCURVE",
"777 250 CURVE SMOOTH",
"777 308 OFFCURVE",
"766 357 OFFCURVE",
"748 392 CURVE",
"685 381 LINE",
"697 338 OFFCURVE",
"703 298 OFFCURVE",
"703 257 CURVE SMOOTH",
"703 142 OFFCURVE",
"656 68 OFFCURVE",
"570 68 CURVE SMOOTH",
"440 68 OFFCURVE",
"364 268 OFFCURVE",
"215 268 CURVE SMOOTH",
"120 268 OFFCURVE",
"63 210 OFFCURVE",
"63 126 CURVE SMOOTH",
"63 35 OFFCURVE",
"135 -10 OFFCURVE",
"217 -10 CURVE SMOOTH"
);
}
);
width = 1250;
}
);
},
{
glyphname = "ya_vowelI-divesakuru";
lastChange = "2022-02-03 17:33:43 +0000";
layers = (
{
anchors = (
{
name = Anchor2;
position = "{746, 536}";
},
{
name = Anchor6;
position = "{705, -238}";
},
{
name = bottom;
position = "{705, -238}";
},
{
name = top;
position = "{746, 536}";
}
);
layerId = UUID0;
paths = (
{
closed = 1;
nodes = (
"766 -272 OFFCURVE",
"941 -83 OFFCURVE",
"941 157 CURVE SMOOTH",
"941 293 OFFCURVE",
"875 399 OFFCURVE",
"679 399 CURVE",
"692 355 LINE",
"849 349 OFFCURVE",
"881 261 OFFCURVE",
"881 163 CURVE SMOOTH",
"881 -70 OFFCURVE",
"673 -187 OFFCURVE",
"461 -187 CURVE SMOOTH",
"337 -187 OFFCURVE",
"239 -166 OFFCURVE",
"115 -114 CURVE",
"90 -164 LINE",
"170 -224 OFFCURVE",
"298 -272 OFFCURVE",
"458 -272 CURVE SMOOTH"
);
},
{
closed = 1;
nodes = (
"373 -10 OFFCURVE",
"497 151 OFFCURVE",
"497 355 CURVE SMOOTH",
"497 505 OFFCURVE",
"403 588 OFFCURVE",
"245 588 CURVE SMOOTH",
"160 588 OFFCURVE",
"76 569 OFFCURVE",
"8 546 CURVE",
"35 476 LINE",
"109 503 OFFCURVE",
"175 515 OFFCURVE",
"239 515 CURVE SMOOTH",
"358 515 OFFCURVE",
"434 484 OFFCURVE",
"434 352 CURVE SMOOTH",
"434 174 OFFCURVE",
"341 56 OFFCURVE",
"224 56 CURVE SMOOTH",
"166 56 OFFCURVE",
"131 83 OFFCURVE",
"131 132 CURVE SMOOTH",
"131 186 OFFCURVE",
"161 214 OFFCURVE",
"217 214 CURVE SMOOTH",
"334 214 OFFCURVE",
"403 -7 OFFCURVE",
"564 -7 CURVE SMOOTH",
"689 -7 OFFCURVE",
"777 110 OFFCURVE",
"777 250 CURVE SMOOTH",
"777 308 OFFCURVE",
"766 357 OFFCURVE",
"748 392 CURVE",
"685 381 LINE",
"697 338 OFFCURVE",
"703 298 OFFCURVE",
"703 257 CURVE SMOOTH",
"703 142 OFFCURVE",
"656 68 OFFCURVE",
"570 68 CURVE SMOOTH",
"440 68 OFFCURVE",
"364 268 OFFCURVE",
"215 268 CURVE SMOOTH",
"120 268 OFFCURVE",
"63 210 OFFCURVE",
"63 126 CURVE SMOOTH",
"63 35 OFFCURVE",
"135 -10 OFFCURVE",
"217 -10 CURVE SMOOTH"
);
}
);
width = 981;
}
);
},
{
glyphname = "u-divesakuru.00";
lastChange = "2022-02-03 17:13:32 +0000";
layers = (
{
anchors = (
{
name = Anchor2;
position = "{911, 590}";
},
{
name = Anchor4;
position = "{962, 367}";
},
{
name = Anchor6;
position = "{953, -239}";
},
{
name = bottom;
position = "{953, -239}";
},
{
name = top;
position = "{911, 590}";
},
{
name = topleft;
position = "{862, 367}";
}
);
layerId = UUID0;
paths = (
{
closed = 1;
nodes = (
"1064 -235 OFFCURVE",
"1105 -177 OFFCURVE",
"1105 -43 CURVE SMOOTH",
"1105 218 LINE SMOOTH",
"1105 378 OFFCURVE",
"1073 407 OFFCURVE",
"919 407 CURVE SMOOTH",
"671 407 LINE",
"686 368 OFFCURVE",
"703 310 OFFCURVE",
"703 257 CURVE SMOOTH",
"703 142 OFFCURVE",
"656 67 OFFCURVE",
"570 67 CURVE SMOOTH",
"440 67 OFFCURVE",
"364 268 OFFCURVE",
"215 268 CURVE SMOOTH",
"120 268 OFFCURVE",
"63 210 OFFCURVE",
"63 126 CURVE SMOOTH",
"63 35 OFFCURVE",
"135 -10 OFFCURVE",
"217 -10 CURVE SMOOTH",
"373 -10 OFFCURVE",
"497 151 OFFCURVE",
"497 355 CURVE SMOOTH",
"497 505 OFFCURVE",
"403 588 OFFCURVE",
"245 588 CURVE SMOOTH",
"160 588 OFFCURVE",
"76 569 OFFCURVE",
"8 546 CURVE",
"35 476 LINE",
"109 503 OFFCURVE",
"175 515 OFFCURVE",
"239 515 CURVE SMOOTH",
"358 515 OFFCURVE",
"434 484 OFFCURVE",
"434 352 CURVE SMOOTH",
"434 175 OFFCURVE",
"341 56 OFFCURVE",
"224 56 CURVE SMOOTH",
"168 56 OFFCURVE",
"131 80 OFFCURVE",
"131 134 CURVE SMOOTH",
"131 184 OFFCURVE",
"160 214 OFFCURVE",
"217 214 CURVE SMOOTH",
"334 214 OFFCURVE",
"403 -7 OFFCURVE",
"564 -7 CURVE SMOOTH",
"689 -7 OFFCURVE",
"777 110 OFFCURVE",
"777 250 CURVE SMOOTH",
"777 308 OFFCURVE",
"766 357 OFFCURVE",
"748 392 CURVE",
"699 350 LINE",
"942 350 LINE SMOOTH",
"1038 350 OFFCURVE",
"1045 323 OFFCURVE",
"1045 194 CURVE SMOOTH",
"1045 -28 LINE SMOOTH",
"1045 -123 OFFCURVE",
"1040 -176 OFFCURVE",
"979 -176 CURVE SMOOTH",
"918 -176 OFFCURVE",
"909 -123 OFFCURVE",
"909 -28 CURVE SMOOTH",
"909 195 LINE",
"853 195 LINE",
"853 -43 LINE SMOOTH",
"853 -177 OFFCURVE",
"894 -235 OFFCURVE",
"979 -235 CURVE SMOOTH"
);
}
);
width = 1195;
}
);
},
{
glyphname = "uu-divesakuru.00";
lastChange = "2022-02-03 17:13:23 +0000";
layers = (
{
anchors = (
{
name = Anchor2;
position = "{1011, 590}";
},
{
name = Anchor4;
position = "{945, 367}";
},
{
name = Anchor6;
position = "{1083, -239}";
},
{
name = bottom;
position = "{1083, -239}";
},
{
name = top;
position = "{1011, 590}";
},
{
name = topleft;
position = "{945, 368}";
}
);
layerId = UUID0;
paths = (
{
closed = 1;
nodes = (
"1194 -235 OFFCURVE",
"1235 -177 OFFCURVE",
"1235 -43 CURVE SMOOTH",
"1235 218 LINE SMOOTH",
"1235 378 OFFCURVE",
"1203 407 OFFCURVE",
"1049 407 CURVE SMOOTH",
"671 407 LINE",
"686 368 OFFCURVE",
"703 310 OFFCURVE",
"703 257 CURVE SMOOTH",
"703 142 OFFCURVE",
"656 67 OFFCURVE",
"570 67 CURVE SMOOTH",
"440 67 OFFCURVE",
"364 268 OFFCURVE",
"215 268 CURVE SMOOTH",
"120 268 OFFCURVE",
"63 210 OFFCURVE",
"63 126 CURVE SMOOTH",
"63 35 OFFCURVE",
"135 -10 OFFCURVE",
"217 -10 CURVE SMOOTH",
"373 -10 OFFCURVE",
"497 151 OFFCURVE",
"497 355 CURVE SMOOTH",
"497 505 OFFCURVE",
"403 588 OFFCURVE",
"245 588 CURVE SMOOTH",
"160 588 OFFCURVE",
"76 569 OFFCURVE",
"8 546 CURVE",
"35 476 LINE",
"109 503 OFFCURVE",
"175 515 OFFCURVE",
"239 515 CURVE SMOOTH",
"358 515 OFFCURVE",
"434 484 OFFCURVE",
"434 352 CURVE SMOOTH",
"434 175 OFFCURVE",
"341 56 OFFCURVE",
"224 56 CURVE SMOOTH",
"168 56 OFFCURVE",
"131 80 OFFCURVE",
"131 134 CURVE SMOOTH",
"131 184 OFFCURVE",
"160 214 OFFCURVE",
"217 214 CURVE SMOOTH",
"334 214 OFFCURVE",
"403 -7 OFFCURVE",
"564 -7 CURVE SMOOTH",
"689 -7 OFFCURVE",
"777 110 OFFCURVE",
"777 250 CURVE SMOOTH",
"777 308 OFFCURVE",
"766 357 OFFCURVE",
"748 392 CURVE",
"699 350 LINE",
"1072 350 LINE SMOOTH",
"1168 350 OFFCURVE",
"1175 323 OFFCURVE",
"1175 194 CURVE SMOOTH",
"1175 -28 LINE SMOOTH",
"1175 -123 OFFCURVE",
"1170 -176 OFFCURVE",
"1109 -176 CURVE SMOOTH",
"1048 -176 OFFCURVE",
"1039 -123 OFFCURVE",
"1039 -28 CURVE SMOOTH",
"1039 225 LINE",
"983 195 LINE",
"983 -43 LINE SMOOTH",
"983 -177 OFFCURVE",
"1024 -235 OFFCURVE",
"1109 -235 CURVE SMOOTH"
);
},
{
closed = 1;
nodes = (
"899 -257 LINE",
"870 -222 OFFCURVE",
"827 -160 OFFCURVE",
"827 -87 CURVE SMOOTH",
"827 47 OFFCURVE",
"910 137 OFFCURVE",
"1039 177 CURVE",
"1039 226 LINE",
"941 200 OFFCURVE",
"763 91 OFFCURVE",
"763 -83 CURVE SMOOTH",
"763 -164 OFFCURVE",
"815 -234 OFFCURVE",
"834 -257 CURVE"
);
}
);
width = 1325;
}
);
},
{
glyphname = "yya_medya-divesakuru";
lastChange = "2022-02-03 18:31:54 +0000";
layers = (
{
anchors = (
{
name = Anchor2;
position = "{958, 536}";
},
{
name = Anchor4;
position = "{790, 387}";
},
{
name = Anchor6;
position = "{929, -128}";
},
{
name = bottom;
position = "{929, -128}";
},
{
name = right;
position = "{1259, 300}";
},
{
name = top;
position = "{958, 536}";
},
{
name = topleft;
position = "{790, 387}";
}
);
background = {
paths = (
{
closed = 0;
nodes = (
"701 378 LINE",
"713 335 OFFCURVE",
"719 295 OFFCURVE",
"719 254 CURVE SMOOTH",
"719 127 OFFCURVE",
"653 83 OFFCURVE",
"534 83 CURVE SMOOTH",
"430 83 OFFCURVE",
"343 151 OFFCURVE",
"343 233 CURVE SMOOTH",
"343 280 OFFCURVE",
"365 304 OFFCURVE",
"404 304 CURVE SMOOTH",
"439 304 OFFCURVE",
"463 280 OFFCURVE",
"463 239 CURVE SMOOTH",
"463 167 OFFCURVE",
"411 86 OFFCURVE",
"268 86 CURVE SMOOTH",
"161 86 OFFCURVE",
"97 127 OFFCURVE",
"97 254 CURVE SMOOTH",
"97 295 OFFCURVE",
"103 335 OFFCURVE",
"115 378 CURVE",
"69 389 LINE",
"51 354 OFFCURVE",
"40 305 OFFCURVE",
"40 247 CURVE SMOOTH",
"40 105 OFFCURVE",
"104 -10 OFFCURVE",
"257 -10 CURVE SMOOTH",
"428 -10 OFFCURVE",
"525 141 OFFCURVE",
"525 243 CURVE SMOOTH",
"525 312 OFFCURVE",
"482 364 OFFCURVE",
"405 364 CURVE SMOOTH",
"349 364 OFFCURVE",
"289 324 OFFCURVE",
"289 235 CURVE SMOOTH",
"289 137 OFFCURVE",
"404 -10 OFFCURVE",
"549 -10 CURVE SMOOTH",
"710 -10 OFFCURVE",
"776 105 OFFCURVE",
"776 247 CURVE SMOOTH",
"776 305 OFFCURVE",
"765 354 OFFCURVE",
"747 389 CURVE"
);
},
{
closed = 0;
nodes = (
"701 377 LINE",
"760 393 OFFCURVE",
"786 393 OFFCURVE",
"808 393 CURVE SMOOTH",
"860 393 OFFCURVE",
"931 374 OFFCURVE",
"931 260 CURVE SMOOTH",
"931 139 OFFCURVE",
"847 37 OFFCURVE",
"715 -86 CURVE",
"755 -113 LINE",
"894 7 OFFCURVE",
"1001 128 OFFCURVE",
"1001 268 CURVE SMOOTH",
"1001 411 OFFCURVE",
"882 441 OFFCURVE",
"816 441 CURVE SMOOTH",
"766 441 OFFCURVE",
"722 432 OFFCURVE",
"688 422 CURVE"
);
},
{
closed = 1;
nodes = (
"1005 -127 OFFCURVE",
"1225 29 OFFCURVE",
"1225 214 CURVE SMOOTH",
"1225 253 OFFCURVE",
"1213 283 OFFCURVE",
"1200 306 CURVE",
"1153 298 LINE",
"1158 271 OFFCURVE",
"1161 249 OFFCURVE",
"1161 226 CURVE SMOOTH",
"1161 -6 OFFCURVE",
"900 -86 OFFCURVE",
"715 -86 CURVE",
"715 -127 LINE"
);
}
);
};
layerId = UUID0;
paths = (
{
closed = 1;
nodes = (
"894 7 OFFCURVE",
"1001 128 OFFCURVE",
"1001 268 CURVE SMOOTH",
"1001 411 OFFCURVE",
"882 441 OFFCURVE",
"816 441 CURVE SMOOTH",
"766 441 OFFCURVE",
"722 432 OFFCURVE",
"687 422 CURVE",
"714 340 OFFCURVE",
"719 295 OFFCURVE",
"719 254 CURVE SMOOTH",
"719 127 OFFCURVE",
"653 83 OFFCURVE",
"534 83 CURVE SMOOTH",
"430 83 OFFCURVE",
"343 151 OFFCURVE",
"343 233 CURVE SMOOTH",
"343 280 OFFCURVE",
"365 304 OFFCURVE",
"404 304 CURVE SMOOTH",
"439 304 OFFCURVE",
"463 280 OFFCURVE",
"463 239 CURVE SMOOTH",
"463 167 OFFCURVE",
"411 86 OFFCURVE",
"268 86 CURVE SMOOTH",
"161 86 OFFCURVE",
"97 127 OFFCURVE",
"97 254 CURVE SMOOTH",
"97 295 OFFCURVE",
"103 335 OFFCURVE",
"115 378 CURVE",
"69 389 LINE",
"51 354 OFFCURVE",
"40 305 OFFCURVE",
"40 247 CURVE SMOOTH",
"40 105 OFFCURVE",
"104 -10 OFFCURVE",
"257 -10 CURVE SMOOTH",
"428 -10 OFFCURVE",
"525 141 OFFCURVE",
"525 243 CURVE SMOOTH",
"525 312 OFFCURVE",
"482 364 OFFCURVE",
"405 364 CURVE SMOOTH",
"349 364 OFFCURVE",
"289 324 OFFCURVE",
"289 235 CURVE SMOOTH",
"289 137 OFFCURVE",
"404 -10 OFFCURVE",
"549 -10 CURVE SMOOTH",
"710 -10 OFFCURVE",
"776 105 OFFCURVE",
"776 247 CURVE SMOOTH",
"776 305 OFFCURVE",
"767 356 OFFCURVE",
"737 409 CURVE",
"711 379 LINE",
"760 393 OFFCURVE",
"786 393 OFFCURVE",
"808 393 CURVE SMOOTH",
"860 393 OFFCURVE",
"931 374 OFFCURVE",
"931 260 CURVE SMOOTH",
"931 139 OFFCURVE",
"847 37 OFFCURVE",
"715 -86 CURVE",
"755 -113 LINE"
);
},
{
closed = 1;
nodes = (
"1005 -127 OFFCURVE",
"1225 29 OFFCURVE",
"1225 214 CURVE SMOOTH",
"1225 253 OFFCURVE",
"1213 283 OFFCURVE",
"1200 306 CURVE",
"1153 298 LINE",
"1158 271 OFFCURVE",
"1161 249 OFFCURVE",
"1161 226 CURVE SMOOTH",
"1161 -6 OFFCURVE",
"900 -86 OFFCURVE",
"715 -86 CURVE",
"715 -127 LINE"
);
}
);
width = 1265;
}
);
},
{
glyphname = "yya_vowelI-divesakuru";
lastChange = "2022-02-03 18:29:28 +0000";
layers = (
{
anchors = (
{
name = Anchor2;
position = "{746, 536}";
},
{
name = Anchor4;
position = "{780, 360}";
},
{
name = Anchor6;
position = "{705, -238}";
},
{
name = bottom;
position = "{705, -238}";
},
{
name = top;
position = "{746, 536}";
},
{
name = topleft;
position = "{780, 360}";
}
);
layerId = UUID0;
paths = (
{
closed = 1;
nodes = (
"428 -10 OFFCURVE",
"525 141 OFFCURVE",
"525 243 CURVE SMOOTH",
"525 312 OFFCURVE",
"482 364 OFFCURVE",
"405 364 CURVE SMOOTH",
"349 364 OFFCURVE",
"289 324 OFFCURVE",
"289 235 CURVE SMOOTH",
"289 137 OFFCURVE",
"404 -10 OFFCURVE",
"549 -10 CURVE SMOOTH",
"710 -10 OFFCURVE",
"776 105 OFFCURVE",
"776 247 CURVE SMOOTH",
"776 305 OFFCURVE",
"765 354 OFFCURVE",
"747 389 CURVE",
"701 378 LINE",
"713 335 OFFCURVE",
"719 295 OFFCURVE",
"719 254 CURVE SMOOTH",
"719 127 OFFCURVE",
"653 83 OFFCURVE",
"534 83 CURVE SMOOTH",
"430 83 OFFCURVE",
"343 151 OFFCURVE",
"343 233 CURVE SMOOTH",
"343 280 OFFCURVE",
"365 304 OFFCURVE",
"404 304 CURVE SMOOTH",
"439 304 OFFCURVE",
"463 280 OFFCURVE",
"463 239 CURVE SMOOTH",
"463 167 OFFCURVE",
"411 86 OFFCURVE",
"268 86 CURVE SMOOTH",
"161 86 OFFCURVE",
"97 127 OFFCURVE",
"97 254 CURVE SMOOTH",
"97 295 OFFCURVE",
"103 335 OFFCURVE",
"115 378 CURVE",
"69 389 LINE",
"51 354 OFFCURVE",
"40 305 OFFCURVE",
"40 247 CURVE SMOOTH",
"40 105 OFFCURVE",
"104 -10 OFFCURVE",
"257 -10 CURVE SMOOTH"
);
},
{
closed = 1;
nodes = (
"782 -272 OFFCURVE",
"957 -83 OFFCURVE",
"957 157 CURVE SMOOTH",
"957 293 OFFCURVE",
"891 399 OFFCURVE",
"695 399 CURVE",
"708 355 LINE",
"865 349 OFFCURVE",
"897 261 OFFCURVE",
"897 163 CURVE SMOOTH",
"897 -70 OFFCURVE",
"689 -187 OFFCURVE",
"477 -187 CURVE SMOOTH",
"353 -187 OFFCURVE",
"255 -166 OFFCURVE",
"131 -114 CURVE",
"106 -164 LINE",
"186 -224 OFFCURVE",
"314 -272 OFFCURVE",
"474 -272 CURVE SMOOTH"
);
}
);
width = 997;
}
);
},
{
glyphname = "ra_vowelU-divesakuru";
lastChange = "2022-02-03 17:13:13 +0000";
layers = (
{
anchors = (
{
name = Anchor2;
position = "{552, 653}";
},
{
name = Anchor4;
position = "{440, 510}";
},
{
name = Anchor6;
position = "{619, -148}";
},
{
name = bottom;
position = "{619, -148}";
},
{
name = top;
position = "{552, 653}";
},
{
name = topleft;
position = "{440, 510}";
}
);
layerId = UUID0;
paths = (
{
closed = 1;
nodes = (
"680 -105 OFFCURVE",
"711 -95 OFFCURVE",
"730 -85 CURVE",
"715 -30 LINE",
"691 -38 OFFCURVE",
"669 -42 OFFCURVE",
"647 -42 CURVE SMOOTH",
"570 -42 OFFCURVE",
"558 7 OFFCURVE",
"558 102 CURVE SMOOTH",
"558 295 LINE SMOOTH",
"558 443 OFFCURVE",
"509 551 OFFCURVE",
"356 551 CURVE SMOOTH",
"197 551 OFFCURVE",
"106 427 OFFCURVE",
"106 227 CURVE SMOOTH",
"106 156 LINE SMOOTH",
"106 42 OFFCURVE",
"147 -11 OFFCURVE",
"233 -11 CURVE SMOOTH",
"327 -11 OFFCURVE",
"368 42 OFFCURVE",
"368 156 CURVE SMOOTH",
"368 315 LINE SMOOTH",
"368 408 OFFCURVE",
"353 424 OFFCURVE",
"273 451 CURVE SMOOTH",
"24 535 LINE",
"5 476 LINE",
"254 392 LINE SMOOTH",
"300 376 OFFCURVE",
"306 367 OFFCURVE",
"306 313 CURVE SMOOTH",
"306 171 LINE SMOOTH",
"306 96 OFFCURVE",
"303 48 OFFCURVE",
"233 48 CURVE SMOOTH",
"171 48 OFFCURVE",
"162 96 OFFCURVE",
"162 171 CURVE SMOOTH",
"162 212 LINE SMOOTH",
"162 431 OFFCURVE",
"246 495 OFFCURVE",
"348 495 CURVE SMOOTH",
"453 495 OFFCURVE",
"498 424 OFFCURVE",
"498 291 CURVE SMOOTH",
"498 74 LINE SMOOTH",
"498 -47 OFFCURVE",
"543 -105 OFFCURVE",
"640 -105 CURVE SMOOTH"
);
}
);
width = 735;
}
);
},
{
glyphname = "va_va-divesakuru";
lastChange = "2022-02-03 15:46:22 +0000";
layers = (
{
anchors = (
{
name = Anchor11;
position = "{831, -4}";
},
{
name = Anchor2;
position = "{837, 590}";
},
{
name = Anchor6;
position = "{811, -293}";
},
{
name = Anchor9;
position = "{1070, 300}";
},
{
name = bottom;
position = "{811, -293}";
},
{
name = halant;
position = "{831, -4}";
},
{
name = right;
position = "{1070, 300}";
},
{
name = top;
position = "{837, 590}";
}
);
layerId = UUID0;
paths = (
{
closed = 1;
nodes = (
"962 -270 OFFCURVE",
"1036 -161 OFFCURVE",
"1036 -66 CURVE SMOOTH",
"1036 -10 OFFCURVE",
"1005 55 OFFCURVE",
"920 55 CURVE SMOOTH",
"885 55 OFFCURVE",
"848 41 OFFCURVE",
"818 23 CURVE",
"843 -21 LINE",
"872 -6 OFFCURVE",
"893 1 OFFCURVE",
"918 1 CURVE SMOOTH",
"956 1 OFFCURVE",
"983 -22 OFFCURVE",
"983 -58 CURVE SMOOTH",
"983 -119 OFFCURVE",
"926 -168 OFFCURVE",
"814 -168 CURVE SMOOTH",
"705 -168 OFFCURVE",
"644 -121 OFFCURVE",
"644 -51 CURVE SMOOTH",
"644 1 OFFCURVE",
"669 32 OFFCURVE",
"715 70 CURVE SMOOTH",
"788 131 OFFCURVE",
"855 198 OFFCURVE",
"855 293 CURVE SMOOTH",
"855 371 OFFCURVE",
"813 442 OFFCURVE",
"683 442 CURVE SMOOTH",
"598 442 OFFCURVE",
"543 400 OFFCURVE",
"543 343 CURVE SMOOTH",
"543 306 OFFCURVE",
"557 282 OFFCURVE",
"557 242 CURVE SMOOTH",
"557 165 OFFCURVE",
"509 92 OFFCURVE",
"384 92 CURVE SMOOTH",
"282 92 OFFCURVE",
"221 135 OFFCURVE",
"221 191 CURVE SMOOTH",
"221 222 OFFCURVE",
"230 250 OFFCURVE",
"286 289 CURVE SMOOTH",
"367 346 OFFCURVE",
"422 404 OFFCURVE",
"422 470 CURVE SMOOTH",
"422 545 OFFCURVE",
"364 581 OFFCURVE",
"281 581 CURVE SMOOTH",
"271 581 LINE",
"260 490 OFFCURVE",
"228 450 OFFCURVE",
"169 450 CURVE SMOOTH",
"122 450 OFFCURVE",
"105 471 OFFCURVE",
"105 520 CURVE SMOOTH",
"105 539 OFFCURVE",
"109 556 OFFCURVE",
"115 575 CURVE",
"48 575 LINE",
"41 560 OFFCURVE",
"37 540 OFFCURVE",
"37 516 CURVE SMOOTH",
"37 432 OFFCURVE",
"88 393 OFFCURVE",
"161 393 CURVE SMOOTH",
"271 393 OFFCURVE",
"310 488 OFFCURVE",
"315 539 CURVE",
"304 527 LINE",
"332 526 OFFCURVE",
"367 510 OFFCURVE",
"367 463 CURVE SMOOTH",
"367 420 OFFCURVE",
"334 379 OFFCURVE",
"270 336 CURVE SMOOTH",
"178 274 OFFCURVE",
"155 218 OFFCURVE",
"155 169 CURVE SMOOTH",
"155 58 OFFCURVE",
"250 -10 OFFCURVE",
"372 -10 CURVE SMOOTH",
"533 -10 OFFCURVE",
"608 128 OFFCURVE",
"608 230 CURVE SMOOTH",
"608 265 OFFCURVE",
"598 283 OFFCURVE",
"598 322 CURVE SMOOTH",
"598 352 OFFCURVE",
"622 383 OFFCURVE",
"683 383 CURVE SMOOTH",
"760 383 OFFCURVE",
"800 349 OFFCURVE",
"800 285 CURVE SMOOTH",
"800 214 OFFCURVE",
"751 163 OFFCURVE",
"695 117 CURVE SMOOTH",
"614 50 OFFCURVE",
"578 -6 OFFCURVE",
"578 -71 CURVE SMOOTH",
"578 -198 OFFCURVE",
"673 -270 OFFCURVE",
"802 -270 CURVE SMOOTH"
);
}
);
width = 1001;
}
);
},
{
glyphname = "sha_ra_vowelI-divesakuru";
lastChange = "2022-02-03 17:12:57 +0000";
layers = (
{
anchors = (
{
name = Anchor2;
position = "{1072, 536}";
},
{
name = Anchor4;
position = "{1031, 340}";
},
{
name = Anchor6;
position = "{1104, -323}";
},
{
name = bottom;
position = "{1104, -323}";
},
{
name = top;
position = "{1072, 536}";
},
{
name = topleft;
position = "{1031, 340}";
}
);
layerId = UUID0;
paths = (
{
closed = 1;
nodes = (
"806 -272 OFFCURVE",
"1039 -104 OFFCURVE",
"1039 95 CURVE SMOOTH",
"1039 219 OFFCURVE",
"952 305 OFFCURVE",
"840 305 CURVE SMOOTH",
"700 305 OFFCURVE",
"589 199 OFFCURVE",
"589 103 CURVE SMOOTH",
"589 42 OFFCURVE",
"628 -8 OFFCURVE",
"701 -8 CURVE SMOOTH",
"775 -8 OFFCURVE",
"830 42 OFFCURVE",
"830 135 CURVE SMOOTH",
"830 270 OFFCURVE",
"734 342 OFFCURVE",
"618 342 CURVE SMOOTH",
"509 342 OFFCURVE",
"416 273 OFFCURVE",
"416 169 CURVE SMOOTH",
"416 138 OFFCURVE",
"424 104 OFFCURVE",
"444 68 CURVE",
"463 121 LINE",
"431 96 OFFCURVE",
"389 81 OFFCURVE",
"343 81 CURVE SMOOTH",
"264 81 OFFCURVE",
"225 108 OFFCURVE",
"225 161 CURVE SMOOTH",
"225 209 OFFCURVE",
"264 247 OFFCURVE",
"307 288 CURVE SMOOTH",
"358 337 OFFCURVE",
"413 391 OFFCURVE",
"413 470 CURVE SMOOTH",
"413 544 OFFCURVE",
"367 591 OFFCURVE",
"271 591 CURVE SMOOTH",
"190 591 OFFCURVE",
"113 539 OFFCURVE",
"66 473 CURVE",
"90 450 LINE",
"151 494 OFFCURVE",
"202 517 OFFCURVE",
"266 517 CURVE SMOOTH",
"323 517 OFFCURVE",
"358 495 OFFCURVE",
"358 459 CURVE SMOOTH",
"358 401 OFFCURVE",
"311 356 OFFCURVE",
"262 310 CURVE SMOOTH",
"210 261 OFFCURVE",
"156 210 OFFCURVE",
"156 139 CURVE SMOOTH",
"156 37 OFFCURVE",
"226 -10 OFFCURVE",
"334 -10 CURVE SMOOTH",
"394 -10 OFFCURVE",
"474 17 OFFCURVE",
"509 45 CURVE",
"484 89 OFFCURVE",
"470 118 OFFCURVE",
"470 158 CURVE SMOOTH",
"470 235 OFFCURVE",
"522 282 OFFCURVE",
"616 282 CURVE SMOOTH",
"712 282 OFFCURVE",
"779 233 OFFCURVE",
"779 137 CURVE SMOOTH",
"779 82 OFFCURVE",
"754 43 OFFCURVE",
"701 43 CURVE SMOOTH",
"665 43 OFFCURVE",
"644 65 OFFCURVE",
"644 102 CURVE SMOOTH",
"644 178 OFFCURVE",
"734 253 OFFCURVE",
"841 253 CURVE SMOOTH",
"917 253 OFFCURVE",
"980 197 OFFCURVE",
"980 99 CURVE SMOOTH",
"980 -91 OFFCURVE",
"713 -187 OFFCURVE",
"454 -187 CURVE SMOOTH",
"317 -187 OFFCURVE",
"216 -168 OFFCURVE",
"75 -114 CURVE",
"50 -164 LINE",
"145 -228 OFFCURVE",
"278 -272 OFFCURVE",
"451 -272 CURVE SMOOTH"
);
},
{
closed = 1;
nodes = (
"90 450 LINE",
"97 483 LINE",
"92 490 LINE",
"95 497 OFFCURVE",
"97 514 OFFCURVE",
"97 531 CURVE SMOOTH",
"97 591 LINE",
"40 591 LINE",
"40 450 LINE"
);
},
{
closed = 1;
nodes = (
"1202 -198 OFFCURVE",
"1281 -42 OFFCURVE",
"1281 115 CURVE SMOOTH",
"1281 291 OFFCURVE",
"1185 409 OFFCURVE",
"1057 409 CURVE SMOOTH",
"963 409 OFFCURVE",
"903 350 OFFCURVE",
"866 280 CURVE",
"904 245 LINE",
"943 310 OFFCURVE",
"987 357 OFFCURVE",
"1056 357 CURVE SMOOTH",
"1157 357 OFFCURVE",
"1221 254 OFFCURVE",
"1221 107 CURVE SMOOTH",
"1221 -31 OFFCURVE",
"1155 -168 OFFCURVE",
"1074 -261 CURVE",
"1106 -292 LINE"
);
}
);
width = 1321;
}
);
},
{
glyphname = "sha_medra-divesakuru";
lastChange = "2022-02-03 16:08:05 +0000";
layers = (
{
anchors = (
{
name = Anchor2;
position = "{865, 590}";
},
{
name = Anchor3;
position = "{814, 229}";
},
{
name = Anchor4;
position = "{896, 265}";
},
{
name = Anchor6;
position = "{749, -276}";
},
{
name = bottom;
position = "{749, -276}";
},
{
name = top;
position = "{865, 590}";
},
{
name = topleft;
position = "{896, 265}";
},
{
name = topright;
position = "{814, 229}";
}
);
layerId = UUID0;
paths = (
{
closed = 1;
nodes = (
"806 -272 OFFCURVE",
"1039 -104 OFFCURVE",
"1039 95 CURVE SMOOTH",
"1039 219 OFFCURVE",
"952 305 OFFCURVE",
"840 305 CURVE SMOOTH",
"700 305 OFFCURVE",
"589 199 OFFCURVE",
"589 103 CURVE SMOOTH",
"589 42 OFFCURVE",
"628 -8 OFFCURVE",
"701 -8 CURVE SMOOTH",
"775 -8 OFFCURVE",
"830 42 OFFCURVE",
"830 135 CURVE SMOOTH",
"830 270 OFFCURVE",
"734 342 OFFCURVE",
"618 342 CURVE SMOOTH",
"509 342 OFFCURVE",
"416 273 OFFCURVE",
"416 169 CURVE SMOOTH",
"416 138 OFFCURVE",
"424 104 OFFCURVE",
"444 68 CURVE",
"463 121 LINE",
"431 96 OFFCURVE",
"389 81 OFFCURVE",
"343 81 CURVE SMOOTH",
"264 81 OFFCURVE",
"225 108 OFFCURVE",
"225 161 CURVE SMOOTH",
"225 209 OFFCURVE",
"265 248 OFFCURVE",
"308 289 CURVE SMOOTH",
"359 338 OFFCURVE",
"413 391 OFFCURVE",
"413 470 CURVE SMOOTH",
"413 544 OFFCURVE",
"367 591 OFFCURVE",
"271 591 CURVE SMOOTH",
"190 591 OFFCURVE",
"113 539 OFFCURVE",
"66 473 CURVE",
"90 450 LINE",
"151 494 OFFCURVE",
"202 517 OFFCURVE",
"266 517 CURVE SMOOTH",
"323 517 OFFCURVE",
"358 495 OFFCURVE",
"358 459 CURVE SMOOTH",
"358 400 OFFCURVE",
"312 356 OFFCURVE",
"262 310 CURVE SMOOTH",
"209 262 OFFCURVE",
"156 210 OFFCURVE",
"156 139 CURVE SMOOTH",
"156 37 OFFCURVE",
"226 -10 OFFCURVE",
"334 -10 CURVE SMOOTH",
"394 -10 OFFCURVE",
"474 17 OFFCURVE",
"509 45 CURVE",
"484 89 OFFCURVE",
"470 118 OFFCURVE",
"470 158 CURVE SMOOTH",
"470 235 OFFCURVE",
"522 282 OFFCURVE",
"616 282 CURVE SMOOTH",
"712 282 OFFCURVE",
"779 233 OFFCURVE",
"779 137 CURVE SMOOTH",
"779 82 OFFCURVE",
"754 43 OFFCURVE",
"701 43 CURVE SMOOTH",
"665 43 OFFCURVE",
"644 65 OFFCURVE",
"644 102 CURVE SMOOTH",
"644 178 OFFCURVE",
"734 253 OFFCURVE",
"841 253 CURVE SMOOTH",
"917 253 OFFCURVE",
"980 197 OFFCURVE",
"980 99 CURVE SMOOTH",
"980 -91 OFFCURVE",
"713 -187 OFFCURVE",
"454 -187 CURVE SMOOTH",
"317 -187 OFFCURVE",
"216 -168 OFFCURVE",
"75 -114 CURVE",
"50 -164 LINE",
"145 -228 OFFCURVE",
"278 -272 OFFCURVE",
"451 -272 CURVE SMOOTH"
);
},
{
closed = 1;
nodes = (
"90 450 LINE",
"97 483 LINE",
"92 490 LINE",
"95 497 OFFCURVE",
"97 514 OFFCURVE",
"97 531 CURVE SMOOTH",
"97 591 LINE",
"40 591 LINE",
"40 450 LINE"
);
}
);
width = 1079;
}
);
},
{
glyphname = "ssa_tta-divesakuru";
lastChange = "2022-01-28 16:15:27 +0000";
layers = (
{
anchors = (
{
name = Anchor2;
position = "{822, 590}";
},
{
name = Anchor6;
position = "{801, -38}";
},
{
name = bottom;
position = "{801, -38}";
},
{
name = top;
position = "{822, 590}";
}
);
layerId = UUID0;
paths = (
{
closed = 1;
nodes = (
"589 -10 OFFCURVE",
"742 114 OFFCURVE",
"742 255 CURVE SMOOTH",
"742 327 OFFCURVE",
"694 372 OFFCURVE",
"618 432 CURVE SMOOTH",
"569 471 OFFCURVE",
"554 501 OFFCURVE",
"554 538 CURVE SMOOTH",
"554 575 OFFCURVE",
"572 601 OFFCURVE",
"608 601 CURVE SMOOTH",
"643 601 OFFCURVE",
"663 580 OFFCURVE",
"663 542 CURVE SMOOTH",
"663 502 OFFCURVE",
"640 474 OFFCURVE",
"591 433 CURVE SMOOTH",
"532 383 OFFCURVE",
"470 319 OFFCURVE",
"470 247 CURVE SMOOTH",
"470 86 OFFCURVE",
"632 -10 OFFCURVE",
"755 -10 CURVE SMOOTH",
"882 -10 OFFCURVE",
"989 66 OFFCURVE",
"989 211 CURVE SMOOTH",
"989 295 OFFCURVE",
"936 357 OFFCURVE",
"866 392 CURVE",
"839 348 LINE",
"909 308 OFFCURVE",
"926 265 OFFCURVE",
"926 220 CURVE SMOOTH",
"926 137 OFFCURVE",
"862 93 OFFCURVE",
"763 93 CURVE SMOOTH",
"683 93 OFFCURVE",
"532 129 OFFCURVE",
"532 254 CURVE SMOOTH",
"532 316 OFFCURVE",
"583 362 OFFCURVE",
"633 406 CURVE SMOOTH",
"686 453 OFFCURVE",
"713 500 OFFCURVE",
"713 549 CURVE SMOOTH",
"713 614 OFFCURVE",
"660 649 OFFCURVE",
"610 649 CURVE SMOOTH",
"546 649 OFFCURVE",
"501 604 OFFCURVE",
"501 540 CURVE SMOOTH",
"501 481 OFFCURVE",
"533 441 OFFCURVE",
"586 396 CURVE SMOOTH",
"647 344 OFFCURVE",
"676 304 OFFCURVE",
"676 252 CURVE SMOOTH",
"676 201 OFFCURVE",
"646 92 OFFCURVE",
"396 92 CURVE SMOOTH",
"263 92 OFFCURVE",
"211 133 OFFCURVE",
"211 193 CURVE SMOOTH",
"211 241 OFFCURVE",
"250 273 OFFCURVE",
"294 307 CURVE SMOOTH",
"346 347 OFFCURVE",
"399 392 OFFCURVE",
"399 470 CURVE SMOOTH",
"399 544 OFFCURVE",
"353 591 OFFCURVE",
"257 591 CURVE SMOOTH",
"176 591 OFFCURVE",
"99 539 OFFCURVE",
"52 473 CURVE",
"76 450 LINE",
"137 494 OFFCURVE",
"188 517 OFFCURVE",
"252 517 CURVE SMOOTH",
"309 517 OFFCURVE",
"344 495 OFFCURVE",
"344 459 CURVE SMOOTH",
"344 408 OFFCURVE",
"304 375 OFFCURVE",
"257 339 CURVE SMOOTH",
"202 297 OFFCURVE",
"142 250 OFFCURVE",
"142 163 CURVE SMOOTH",
"142 61 OFFCURVE",
"224 -10 OFFCURVE",
"384 -10 CURVE SMOOTH"
);
},
{
closed = 1;
nodes = (
"76 450 LINE",
"83 483 LINE",
"78 490 LINE",
"81 497 OFFCURVE",
"83 514 OFFCURVE",
"83 531 CURVE SMOOTH",
"83 591 LINE",
"26 591 LINE",
"26 450 LINE"
);
}
);
width = 1029;
}
);
},
{
glyphname = "sa_ta-divesakuru";
lastChange = "2022-01-28 16:15:27 +0000";
layers = (
{
anchors = (
{
name = Anchor2;
position = "{990, 590}";
},
{
name = Anchor6;
position = "{969, -276}";
},
{
name = bottom;
position = "{969, -276}";
},
{
name = top;
position = "{990, 590}";
}
);
layerId = UUID0;
paths = (
{
closed = 1;
nodes = (
"917 -271 OFFCURVE",
"1157 -145 OFFCURVE",
"1157 108 CURVE SMOOTH",
"1157 249 OFFCURVE",
"1062 337 OFFCURVE",
"924 348 CURVE",
"915 506 OFFCURVE",
"828 589 OFFCURVE",
"712 589 CURVE SMOOTH",
"595 589 OFFCURVE",
"523 507 OFFCURVE",
"513 403 CURVE",
"564 395 LINE",
"578 436 OFFCURVE",
"622 502 OFFCURVE",
"709 502 CURVE SMOOTH",
"778 502 OFFCURVE",
"848 461 OFFCURVE",
"862 349 CURVE",
"811 346 OFFCURVE",
"775 343 OFFCURVE",
"741 336 CURVE SMOOTH",
"712 330 OFFCURVE",
"683 324 OFFCURVE",
"652 317 CURVE SMOOTH",
"602 306 OFFCURVE",
"542 293 OFFCURVE",
"464 281 CURVE SMOOTH",
"372 267 OFFCURVE",
"351 244 OFFCURVE",
"351 210 CURVE SMOOTH",
"351 186 OFFCURVE",
"359 167 OFFCURVE",
"368 148 CURVE SMOOTH",
"377 128 OFFCURVE",
"386 108 OFFCURVE",
"386 83 CURVE SMOOTH",
"386 53 OFFCURVE",
"363 38 OFFCURVE",
"321 38 CURVE SMOOTH",
"240 38 OFFCURVE",
"183 110 OFFCURVE",
"183 197 CURVE SMOOTH",
"183 281 OFFCURVE",
"251 319 OFFCURVE",
"387 325 CURVE",
"387 370 LINE",
"263 374 OFFCURVE",
"135 381 OFFCURVE",
"135 462 CURVE SMOOTH",
"135 516 OFFCURVE",
"185 537 OFFCURVE",
"263 537 CURVE SMOOTH",
"313 537 OFFCURVE",
"352 530 OFFCURVE",
"400 520 CURVE",
"419 567 LINE",
"358 584 OFFCURVE",
"305 589 OFFCURVE",
"250 589 CURVE SMOOTH",
"119 589 OFFCURVE",
"44 544 OFFCURVE",
"44 463 CURVE SMOOTH",
"44 386 OFFCURVE",
"134 350 OFFCURVE",
"223 336 CURVE",
"158 321 OFFCURVE",
"89 272 OFFCURVE",
"89 193 CURVE SMOOTH",
"89 73 OFFCURVE",
"194 -11 OFFCURVE",
"314 -11 CURVE SMOOTH",
"376 -11 OFFCURVE",
"440 15 OFFCURVE",
"440 83 CURVE SMOOTH",
"440 110 OFFCURVE",
"434 133 OFFCURVE",
"427 153 CURVE SMOOTH",
"421 170 OFFCURVE",
"417 185 OFFCURVE",
"417 199 CURVE SMOOTH",
"417 216 OFFCURVE",
"424 225 OFFCURVE",
"457 231 CURVE SMOOTH",
"507 240 OFFCURVE",
"547 248 OFFCURVE",
"579 255 CURVE",
"552 223 OFFCURVE",
"536 182 OFFCURVE",
"536 130 CURVE SMOOTH",
"536 36 OFFCURVE",
"596 -10 OFFCURVE",
"687 -10 CURVE SMOOTH",
"819 -10 OFFCURVE",
"916 108 OFFCURVE",
"924 294 CURVE",
"1031 284 OFFCURVE",
"1097 212 OFFCURVE",
"1097 106 CURVE SMOOTH",
"1097 -118 OFFCURVE",
"869 -180 OFFCURVE",
"711 -180 CURVE SMOOTH",
"610 -180 OFFCURVE",
"539 -166 OFFCURVE",
"484 -145 CURVE",
"470 -192 LINE",
"517 -235 OFFCURVE",
"611 -271 OFFCURVE",
"716 -271 CURVE SMOOTH"
);
},
{
closed = 1;
nodes = (
"633 46 OFFCURVE",
"606 77 OFFCURVE",
"606 136 CURVE SMOOTH",
"606 257 OFFCURVE",
"708 291 OFFCURVE",
"865 295 CURVE",
"862 143 OFFCURVE",
"787 46 OFFCURVE",
"689 46 CURVE SMOOTH"
);
}
);
width = 1197;
}
);
},
{
glyphname = "sa_ta_medra-divesakuru";
lastChange = "2022-04-25 13:28:11 +0000";
layers = (
{
anchors = (
{
name = Anchor2;
position = "{1140, 590}";
},
{
name = Anchor4;
position = "{1175, 264}";
},
{
name = Anchor6;
position = "{1019, -486}";
},
{
name = bottom;
position = "{1019, -486}";
},
{
name = top;
position = "{1140, 590}";
},
{
name = topleft;
position = "{1175, 264}";
}
);
layerId = UUID0;
paths = (
{
closed = 1;
nodes = (
"1046 -492 OFFCURVE",
"1312 -258 OFFCURVE",
"1312 82 CURVE SMOOTH",
"1312 222 OFFCURVE",
"1235 307 OFFCURVE",
"1140 307 CURVE SMOOTH",
"1101 307 OFFCURVE",
"1076 296 OFFCURVE",
"1044 268 CURVE",
"1081 237 LINE",
"1098 251 OFFCURVE",
"1113 256 OFFCURVE",
"1134 256 CURVE SMOOTH",
"1202 256 OFFCURVE",
"1252 195 OFFCURVE",
"1252 88 CURVE SMOOTH",
"1252 -245 OFFCURVE",
"923 -407 OFFCURVE",
"574 -407 CURVE SMOOTH",
"347 -407 OFFCURVE",
"140 -358 OFFCURVE",
"-7 -284 CURVE",
"-31 -332 LINE",
"110 -429 OFFCURVE",
"320 -492 OFFCURVE",
"571 -492 CURVE SMOOTH"
);
},
{
closed = 1;
nodes = (
"897 -271 OFFCURVE",
"1137 -145 OFFCURVE",
"1137 108 CURVE SMOOTH",
"1137 249 OFFCURVE",
"1042 337 OFFCURVE",
"904 348 CURVE",
"895 506 OFFCURVE",
"808 589 OFFCURVE",
"692 589 CURVE SMOOTH",
"575 589 OFFCURVE",
"503 507 OFFCURVE",
"493 403 CURVE",
"544 395 LINE",
"558 436 OFFCURVE",
"602 502 OFFCURVE",
"689 502 CURVE SMOOTH",
"758 502 OFFCURVE",
"828 461 OFFCURVE",
"842 349 CURVE",
"791 346 OFFCURVE",
"755 343 OFFCURVE",
"721 336 CURVE SMOOTH",
"692 330 OFFCURVE",
"663 324 OFFCURVE",
"632 317 CURVE SMOOTH",
"582 306 OFFCURVE",
"522 293 OFFCURVE",
"444 281 CURVE SMOOTH",
"352 267 OFFCURVE",
"331 244 OFFCURVE",
"331 210 CURVE SMOOTH",
"331 186 OFFCURVE",
"339 167 OFFCURVE",
"348 148 CURVE SMOOTH",
"357 128 OFFCURVE",
"366 108 OFFCURVE",
"366 83 CURVE SMOOTH",
"366 53 OFFCURVE",
"343 38 OFFCURVE",
"301 38 CURVE SMOOTH",
"220 38 OFFCURVE",
"163 110 OFFCURVE",
"163 197 CURVE SMOOTH",
"163 281 OFFCURVE",
"231 319 OFFCURVE",
"367 325 CURVE",
"367 370 LINE",
"243 374 OFFCURVE",
"115 381 OFFCURVE",
"115 462 CURVE SMOOTH",
"115 516 OFFCURVE",
"165 537 OFFCURVE",
"243 537 CURVE SMOOTH",
"293 537 OFFCURVE",
"332 530 OFFCURVE",
"380 520 CURVE",
"399 567 LINE",
"338 584 OFFCURVE",
"285 589 OFFCURVE",
"230 589 CURVE SMOOTH",
"99 589 OFFCURVE",
"24 544 OFFCURVE",
"24 463 CURVE SMOOTH",
"24 386 OFFCURVE",
"114 350 OFFCURVE",
"203 336 CURVE",
"138 321 OFFCURVE",
"69 272 OFFCURVE",
"69 193 CURVE SMOOTH",
"69 73 OFFCURVE",
"174 -11 OFFCURVE",
"294 -11 CURVE SMOOTH",
"356 -11 OFFCURVE",
"420 15 OFFCURVE",
"420 83 CURVE SMOOTH",
"420 110 OFFCURVE",
"414 133 OFFCURVE",
"407 153 CURVE SMOOTH",
"401 170 OFFCURVE",
"397 185 OFFCURVE",
"397 199 CURVE SMOOTH",
"397 216 OFFCURVE",
"404 225 OFFCURVE",
"437 231 CURVE SMOOTH",
"487 240 OFFCURVE",
"527 248 OFFCURVE",
"559 255 CURVE",
"532 223 OFFCURVE",
"516 182 OFFCURVE",
"516 130 CURVE SMOOTH",
"516 36 OFFCURVE",
"576 -10 OFFCURVE",
"667 -10 CURVE SMOOTH",
"799 -10 OFFCURVE",
"896 108 OFFCURVE",
"904 294 CURVE",
"1011 284 OFFCURVE",
"1077 212 OFFCURVE",
"1077 106 CURVE SMOOTH",
"1077 -118 OFFCURVE",
"849 -180 OFFCURVE",
"691 -180 CURVE SMOOTH",
"590 -180 OFFCURVE",
"519 -166 OFFCURVE",
"464 -145 CURVE",
"450 -192 LINE",
"497 -235 OFFCURVE",
"591 -271 OFFCURVE",
"696 -271 CURVE SMOOTH"
);
},
{
closed = 1;
nodes = (
"613 46 OFFCURVE",
"586 77 OFFCURVE",
"586 136 CURVE SMOOTH",
"586 257 OFFCURVE",
"688 291 OFFCURVE",
"845 295 CURVE",
"842 143 OFFCURVE",
"767 46 OFFCURVE",
"669 46 CURVE SMOOTH"
);
}
);
width = 1352;
}
);
},
